%TF.GenerationSoftware,KiCad,Pcbnew,10.0.3*%
%TF.CreationDate,2026-06-06T22:55:22+03:00*%
%TF.ProjectId,Interuppter,496e7465-7275-4707-9074-65722e6b6963,rev?*%
%TF.SameCoordinates,Original*%
%TF.FileFunction,Soldermask,Bot*%
%TF.FilePolarity,Negative*%
%FSLAX46Y46*%
G04 Gerber Fmt 4.6, Leading zero omitted, Abs format (unit mm)*
G04 Created by KiCad (PCBNEW 10.0.3) date 2026-06-06 22:55:22*
%MOMM*%
%LPD*%
G01*
G04 APERTURE LIST*
G04 Aperture macros list*
%AMRoundRect*
0 Rectangle with rounded corners*
0 $1 Rounding radius*
0 $2 $3 $4 $5 $6 $7 $8 $9 X,Y pos of 4 corners*
0 Add a 4 corners polygon primitive as box body*
4,1,4,$2,$3,$4,$5,$6,$7,$8,$9,$2,$3,0*
0 Add four circle primitives for the rounded corners*
1,1,$1+$1,$2,$3*
1,1,$1+$1,$4,$5*
1,1,$1+$1,$6,$7*
1,1,$1+$1,$8,$9*
0 Add four rect primitives between the rounded corners*
20,1,$1+$1,$2,$3,$4,$5,0*
20,1,$1+$1,$4,$5,$6,$7,0*
20,1,$1+$1,$6,$7,$8,$9,0*
20,1,$1+$1,$8,$9,$2,$3,0*%
G04 Aperture macros list end*
%ADD10RoundRect,0.200000X0.600000X-0.200000X0.600000X0.200000X-0.600000X0.200000X-0.600000X-0.200000X0*%
%ADD11RoundRect,0.250001X1.249999X-0.799999X1.249999X0.799999X-1.249999X0.799999X-1.249999X-0.799999X0*%
%ADD12C,2.700000*%
%ADD13C,0.650000*%
%ADD14O,1.000000X2.100000*%
%ADD15O,1.000000X1.800000*%
%ADD16C,3.000000*%
%ADD17C,1.200000*%
%ADD18O,3.200000X1.900000*%
%ADD19C,1.000000*%
%ADD20R,1.000000X1.000000*%
%ADD21RoundRect,0.233645X0.266355X0.266355X-0.266355X0.266355X-0.266355X-0.266355X0.266355X-0.266355X0*%
%ADD22C,1.500000*%
%ADD23R,1.800000X1.800000*%
%ADD24C,1.800000*%
%ADD25O,1.000000X2.000000*%
G04 APERTURE END LIST*
D10*
%TO.C,J2*%
X240252500Y-136610000D03*
X240252500Y-135360000D03*
X240252500Y-134110000D03*
D11*
X237352500Y-139160000D03*
X237352500Y-131560000D03*
%TD*%
D12*
%TO.C,H2*%
X268750000Y-100950000D03*
%TD*%
D13*
%TO.C,J4*%
X256397500Y-146320000D03*
X262177500Y-146320000D03*
D14*
X254967500Y-145800000D03*
D15*
X254967500Y-150000000D03*
D14*
X263607500Y-145800000D03*
D15*
X263607500Y-150000000D03*
%TD*%
D16*
%TO.C,U2*%
X209902500Y-105150000D03*
X202202500Y-105150000D03*
D17*
X208592500Y-108850000D03*
X206052500Y-108850000D03*
X203512500Y-108850000D03*
%TD*%
D18*
%TO.C,SW2*%
X171662500Y-124705241D03*
X159162500Y-124705241D03*
X171662500Y-119705241D03*
X159162500Y-119705241D03*
%TD*%
D19*
%TO.C,D2*%
X243312500Y-145170000D03*
D20*
X246162500Y-145170000D03*
D19*
X249012500Y-145170000D03*
%TD*%
D12*
%TO.C,H3*%
X268742500Y-150440000D03*
%TD*%
%TO.C,H4*%
X176742500Y-150450000D03*
%TD*%
%TO.C,H1*%
X176742500Y-100950000D03*
%TD*%
D19*
%TO.C,D3*%
X170607500Y-133510000D03*
D21*
X169337500Y-133510000D03*
D19*
X168067500Y-133510000D03*
X166797500Y-133510000D03*
%TD*%
D16*
%TO.C,U5*%
X196772500Y-105150000D03*
X189072500Y-105150000D03*
D17*
X195462500Y-108850000D03*
X192922500Y-108850000D03*
X190382500Y-108850000D03*
%TD*%
D22*
%TO.C,SW3*%
X165542500Y-146800000D03*
X170042500Y-146800000D03*
%TD*%
%TO.C,SW1*%
X158152500Y-146800000D03*
X162652500Y-146800000D03*
%TD*%
D23*
%TO.C,D1*%
X161482500Y-133230000D03*
D24*
X158942500Y-133230000D03*
%TD*%
D25*
%TO.C,SW4*%
X158612500Y-106405241D03*
X172212500Y-106405241D03*
%TD*%
M02*
