%TF.GenerationSoftware,KiCad,Pcbnew,10.0.3*%
%TF.CreationDate,2026-06-06T22:21:00+03:00*%
%TF.ProjectId,Interuppter,496e7465-7275-4707-9074-65722e6b6963,rev?*%
%TF.SameCoordinates,Original*%
%TF.FileFunction,Paste,Top*%
%TF.FilePolarity,Positive*%
%FSLAX46Y46*%
G04 Gerber Fmt 4.6, Leading zero omitted, Abs format (unit mm)*
G04 Created by KiCad (PCBNEW 10.0.3) date 2026-06-06 22:21:00*
%MOMM*%
%LPD*%
G01*
G04 APERTURE LIST*
G04 Aperture macros list*
%AMRoundRect*
0 Rectangle with rounded corners*
0 $1 Rounding radius*
0 $2 $3 $4 $5 $6 $7 $8 $9 X,Y pos of 4 corners*
0 Add a 4 corners polygon primitive as box body*
4,1,4,$2,$3,$4,$5,$6,$7,$8,$9,$2,$3,0*
0 Add four circle primitives for the rounded corners*
1,1,$1+$1,$2,$3*
1,1,$1+$1,$4,$5*
1,1,$1+$1,$6,$7*
1,1,$1+$1,$8,$9*
0 Add four rect primitives between the rounded corners*
20,1,$1+$1,$2,$3,$4,$5,0*
20,1,$1+$1,$4,$5,$6,$7,0*
20,1,$1+$1,$6,$7,$8,$9,0*
20,1,$1+$1,$8,$9,$2,$3,0*%
G04 Aperture macros list end*
%ADD10RoundRect,0.250000X0.262500X0.450000X-0.262500X0.450000X-0.262500X-0.450000X0.262500X-0.450000X0*%
%ADD11RoundRect,0.250000X-1.100000X0.325000X-1.100000X-0.325000X1.100000X-0.325000X1.100000X0.325000X0*%
%ADD12RoundRect,0.250000X-0.325000X-1.100000X0.325000X-1.100000X0.325000X1.100000X-0.325000X1.100000X0*%
%ADD13RoundRect,0.250000X1.100000X-0.325000X1.100000X0.325000X-1.100000X0.325000X-1.100000X-0.325000X0*%
%ADD14RoundRect,0.250000X0.475000X-0.250000X0.475000X0.250000X-0.475000X0.250000X-0.475000X-0.250000X0*%
%ADD15RoundRect,0.250000X-0.250000X-0.475000X0.250000X-0.475000X0.250000X0.475000X-0.250000X0.475000X0*%
%ADD16RoundRect,0.195000X-0.195000X-0.195000X0.195000X-0.195000X0.195000X0.195000X-0.195000X0.195000X0*%
%ADD17RoundRect,0.062500X-0.325000X-0.062500X0.325000X-0.062500X0.325000X0.062500X-0.325000X0.062500X0*%
%ADD18RoundRect,0.062500X-0.062500X-0.325000X0.062500X-0.325000X0.062500X0.325000X-0.062500X0.325000X0*%
%ADD19RoundRect,0.250000X0.250000X0.475000X-0.250000X0.475000X-0.250000X-0.475000X0.250000X-0.475000X0*%
%ADD20RoundRect,0.250000X-0.262500X-0.450000X0.262500X-0.450000X0.262500X0.450000X-0.262500X0.450000X0*%
%ADD21R,1.300000X0.300000*%
%ADD22R,2.200000X1.800000*%
%ADD23RoundRect,0.250000X-0.450000X-0.350000X0.450000X-0.350000X0.450000X0.350000X-0.450000X0.350000X0*%
%ADD24RoundRect,0.250000X0.450000X-0.262500X0.450000X0.262500X-0.450000X0.262500X-0.450000X-0.262500X0*%
%ADD25RoundRect,0.150000X0.512500X0.150000X-0.512500X0.150000X-0.512500X-0.150000X0.512500X-0.150000X0*%
%ADD26RoundRect,0.150000X-0.150000X-0.470000X0.150000X-0.470000X0.150000X0.470000X-0.150000X0.470000X0*%
%ADD27RoundRect,0.075000X-0.075000X-0.545000X0.075000X-0.545000X0.075000X0.545000X-0.075000X0.545000X0*%
%ADD28RoundRect,0.250000X-0.475000X0.250000X-0.475000X-0.250000X0.475000X-0.250000X0.475000X0.250000X0*%
%ADD29RoundRect,0.249999X1.100001X-0.450001X1.100001X0.450001X-1.100001X0.450001X-1.100001X-0.450001X0*%
%ADD30RoundRect,0.250000X-0.450000X0.262500X-0.450000X-0.262500X0.450000X-0.262500X0.450000X0.262500X0*%
%ADD31RoundRect,0.250000X0.325000X1.100000X-0.325000X1.100000X-0.325000X-1.100000X0.325000X-1.100000X0*%
%ADD32RoundRect,0.250000X0.335000X0.335000X-0.335000X0.335000X-0.335000X-0.335000X0.335000X-0.335000X0*%
%ADD33RoundRect,0.062500X0.350000X0.062500X-0.350000X0.062500X-0.350000X-0.062500X0.350000X-0.062500X0*%
%ADD34RoundRect,0.062500X0.062500X0.350000X-0.062500X0.350000X-0.062500X-0.350000X0.062500X-0.350000X0*%
%ADD35RoundRect,0.250000X0.650000X-0.325000X0.650000X0.325000X-0.650000X0.325000X-0.650000X-0.325000X0*%
%ADD36R,0.700000X1.700000*%
%ADD37RoundRect,0.175000X0.175000X1.175000X-0.175000X1.175000X-0.175000X-1.175000X0.175000X-1.175000X0*%
%ADD38RoundRect,0.250000X0.300000X0.700000X-0.300000X0.700000X-0.300000X-0.700000X0.300000X-0.700000X0*%
%ADD39RoundRect,0.162500X-0.650000X-0.162500X0.650000X-0.162500X0.650000X0.162500X-0.650000X0.162500X0*%
%ADD40RoundRect,0.250000X-2.600000X0.600000X-2.600000X-0.600000X2.600000X-0.600000X2.600000X0.600000X0*%
%ADD41RoundRect,0.227500X-0.227500X-0.227500X0.227500X-0.227500X0.227500X0.227500X-0.227500X0.227500X0*%
%ADD42RoundRect,0.050000X-0.350000X-0.050000X0.350000X-0.050000X0.350000X0.050000X-0.350000X0.050000X0*%
%ADD43RoundRect,0.050000X-0.050000X-0.350000X0.050000X-0.350000X0.050000X0.350000X-0.050000X0.350000X0*%
G04 APERTURE END LIST*
D10*
%TO.C,R12*%
X252255000Y-106325000D03*
X250430000Y-106325000D03*
%TD*%
D11*
%TO.C,C18*%
X255230000Y-108850000D03*
X255230000Y-111800000D03*
%TD*%
D12*
%TO.C,C25*%
X245867500Y-120850000D03*
X248817500Y-120850000D03*
%TD*%
D13*
%TO.C,C28*%
X261230000Y-111800000D03*
X261230000Y-108850000D03*
%TD*%
D14*
%TO.C,C22*%
X261430000Y-115950000D03*
X261430000Y-114050000D03*
%TD*%
D15*
%TO.C,C15*%
X198752500Y-127200000D03*
X200652500Y-127200000D03*
%TD*%
D16*
%TO.C,U4*%
X251030000Y-111625000D03*
X251030000Y-112525000D03*
X251930000Y-111625000D03*
X251930000Y-112525000D03*
D17*
X249992500Y-111325000D03*
X249992500Y-111825000D03*
X249992500Y-112325000D03*
X249992500Y-112825000D03*
D18*
X250730000Y-113562500D03*
X251230000Y-113562500D03*
X251730000Y-113562500D03*
X252230000Y-113562500D03*
D17*
X252967500Y-112825000D03*
X252967500Y-112325000D03*
X252967500Y-111825000D03*
X252967500Y-111325000D03*
D18*
X252230000Y-110587500D03*
X251730000Y-110587500D03*
X251230000Y-110587500D03*
X250730000Y-110587500D03*
%TD*%
D19*
%TO.C,C7*%
X190252500Y-131350000D03*
X188352500Y-131350000D03*
%TD*%
D20*
%TO.C,R19*%
X254830000Y-124787500D03*
X256655000Y-124787500D03*
%TD*%
%TO.C,R5*%
X234630000Y-150050000D03*
X236455000Y-150050000D03*
%TD*%
D15*
%TO.C,C6*%
X203072500Y-131870000D03*
X204972500Y-131870000D03*
%TD*%
D21*
%TO.C,J5*%
X176062500Y-136790000D03*
X176062500Y-136290000D03*
X176062500Y-135790000D03*
X176062500Y-135290000D03*
X176062500Y-134790000D03*
X176062500Y-134290000D03*
X176062500Y-133790000D03*
X176062500Y-133290000D03*
X176062500Y-132790000D03*
X176062500Y-132290000D03*
X176062500Y-131790000D03*
X176062500Y-131290000D03*
X176062500Y-130790000D03*
X176062500Y-130290000D03*
D22*
X179312500Y-138690000D03*
X179312500Y-128390000D03*
%TD*%
D15*
%TO.C,C8*%
X188442500Y-134080000D03*
X190342500Y-134080000D03*
%TD*%
D10*
%TO.C,R10*%
X248342500Y-114525000D03*
X246517500Y-114525000D03*
%TD*%
D23*
%TO.C,Y1*%
X194250000Y-144640000D03*
X196450000Y-144640000D03*
X196450000Y-142940000D03*
X194250000Y-142940000D03*
%TD*%
D24*
%TO.C,R29*%
X165392500Y-140942500D03*
X165392500Y-139117500D03*
%TD*%
D10*
%TO.C,R8*%
X259742500Y-106725000D03*
X257917500Y-106725000D03*
%TD*%
D25*
%TO.C,U7*%
X240830000Y-149737500D03*
X240830000Y-148787500D03*
X240830000Y-147837500D03*
X238555000Y-147837500D03*
X238555000Y-148787500D03*
X238555000Y-149737500D03*
%TD*%
D24*
%TO.C,R11*%
X250830000Y-103837500D03*
X250830000Y-102012500D03*
%TD*%
D26*
%TO.C,J4*%
X256087500Y-145200000D03*
X256887500Y-145200000D03*
D27*
X258037500Y-145200000D03*
X259037500Y-145200000D03*
X259537500Y-145200000D03*
X260537500Y-145200000D03*
D26*
X261687500Y-145200000D03*
X262487500Y-145200000D03*
X262487500Y-145200000D03*
X261687500Y-145200000D03*
D27*
X261037500Y-145200000D03*
X260037500Y-145200000D03*
X258537500Y-145200000D03*
X257537500Y-145200000D03*
D26*
X256887500Y-145200000D03*
X256087500Y-145200000D03*
%TD*%
D28*
%TO.C,C14*%
X206732500Y-125460000D03*
X206732500Y-127360000D03*
%TD*%
D20*
%TO.C,R14*%
X258860000Y-143070000D03*
X260685000Y-143070000D03*
%TD*%
D29*
%TO.C,L2*%
X247230000Y-110775000D03*
X247230000Y-108675000D03*
%TD*%
D28*
%TO.C,C5*%
X202102500Y-137910000D03*
X202102500Y-139810000D03*
%TD*%
D10*
%TO.C,R2*%
X204265000Y-125030000D03*
X202440000Y-125030000D03*
%TD*%
D19*
%TO.C,C13*%
X204912500Y-136160000D03*
X203012500Y-136160000D03*
%TD*%
D15*
%TO.C,C16*%
X198762500Y-125150000D03*
X200662500Y-125150000D03*
%TD*%
D20*
%TO.C,R23*%
X161847500Y-151300000D03*
X163672500Y-151300000D03*
%TD*%
D15*
%TO.C,C37*%
X206202500Y-114300000D03*
X208102500Y-114300000D03*
%TD*%
D30*
%TO.C,R17*%
X241030000Y-143337500D03*
X241030000Y-145162500D03*
%TD*%
D15*
%TO.C,C35*%
X193592500Y-114310000D03*
X195492500Y-114310000D03*
%TD*%
%TO.C,C19*%
X256480000Y-114925000D03*
X258380000Y-114925000D03*
%TD*%
D12*
%TO.C,C20*%
X244080000Y-105925000D03*
X247030000Y-105925000D03*
%TD*%
D14*
%TO.C,C2*%
X191750000Y-144690000D03*
X191750000Y-142790000D03*
%TD*%
D30*
%TO.C,R26*%
X234067500Y-126302500D03*
X234067500Y-128127500D03*
%TD*%
D19*
%TO.C,C11*%
X204352500Y-133910000D03*
X202452500Y-133910000D03*
%TD*%
D28*
%TO.C,C24*%
X249142500Y-129037500D03*
X249142500Y-130937500D03*
%TD*%
%TO.C,C23*%
X237362500Y-126290000D03*
X237362500Y-128190000D03*
%TD*%
D10*
%TO.C,R9*%
X252230000Y-115325000D03*
X250405000Y-115325000D03*
%TD*%
D30*
%TO.C,TH1*%
X258592500Y-127375000D03*
X258592500Y-129200000D03*
%TD*%
D31*
%TO.C,C31*%
X245692500Y-129850000D03*
X242742500Y-129850000D03*
%TD*%
D13*
%TO.C,C29*%
X247142500Y-141925000D03*
X247142500Y-138975000D03*
%TD*%
D15*
%TO.C,C12*%
X189632500Y-127520000D03*
X191532500Y-127520000D03*
%TD*%
D32*
%TO.C,U6*%
X254117500Y-130062500D03*
X254117500Y-128712500D03*
X252767500Y-130062500D03*
X252767500Y-128712500D03*
D33*
X255405000Y-130637500D03*
X255405000Y-130137500D03*
X255405000Y-129637500D03*
X255405000Y-129137500D03*
X255405000Y-128637500D03*
X255405000Y-128137500D03*
D34*
X254692500Y-127425000D03*
X254192500Y-127425000D03*
X253692500Y-127425000D03*
X253192500Y-127425000D03*
X252692500Y-127425000D03*
X252192500Y-127425000D03*
D33*
X251480000Y-128137500D03*
X251480000Y-128637500D03*
X251480000Y-129137500D03*
X251480000Y-129637500D03*
X251480000Y-130137500D03*
X251480000Y-130637500D03*
D34*
X252192500Y-131350000D03*
X252692500Y-131350000D03*
X253192500Y-131350000D03*
X253692500Y-131350000D03*
X254192500Y-131350000D03*
X254692500Y-131350000D03*
%TD*%
D35*
%TO.C,R16*%
X249142500Y-126662500D03*
X249142500Y-123712500D03*
%TD*%
D19*
%TO.C,C34*%
X192002500Y-114310000D03*
X190102500Y-114310000D03*
%TD*%
D11*
%TO.C,C17*%
X264430000Y-108850000D03*
X264430000Y-111800000D03*
%TD*%
D19*
%TO.C,C10*%
X204342500Y-129280000D03*
X202442500Y-129280000D03*
%TD*%
D20*
%TO.C,R20*%
X254830000Y-121450000D03*
X256655000Y-121450000D03*
%TD*%
D15*
%TO.C,C3*%
X192692500Y-140070000D03*
X194592500Y-140070000D03*
%TD*%
D24*
%TO.C,R4*%
X237362500Y-124552500D03*
X237362500Y-122727500D03*
%TD*%
D19*
%TO.C,C33*%
X254092500Y-133787500D03*
X252192500Y-133787500D03*
%TD*%
D15*
%TO.C,C4*%
X202532500Y-127230000D03*
X204432500Y-127230000D03*
%TD*%
D24*
%TO.C,R27*%
X172162500Y-141012500D03*
X172162500Y-139187500D03*
%TD*%
D10*
%TO.C,R7*%
X259595000Y-140840000D03*
X257770000Y-140840000D03*
%TD*%
D19*
%TO.C,C36*%
X204602500Y-114300000D03*
X202702500Y-114300000D03*
%TD*%
D36*
%TO.C,L1*%
X199722500Y-122941790D03*
X198322500Y-122941790D03*
%TD*%
D10*
%TO.C,R22*%
X263342500Y-130050000D03*
X261517500Y-130050000D03*
%TD*%
D37*
%TO.C,J1*%
X218802500Y-103870000D03*
X217302500Y-103870000D03*
X215802500Y-103870000D03*
D38*
X220752500Y-100170000D03*
X213852500Y-100170000D03*
%TD*%
D24*
%TO.C,R25*%
X251542500Y-144962500D03*
X251542500Y-143137500D03*
%TD*%
D28*
%TO.C,C1*%
X199050000Y-142790000D03*
X199050000Y-144690000D03*
%TD*%
%TO.C,C21*%
X255430000Y-101650000D03*
X255430000Y-103550000D03*
%TD*%
D20*
%TO.C,R24*%
X165420000Y-151360000D03*
X167245000Y-151360000D03*
%TD*%
D24*
%TO.C,R21*%
X258522500Y-125012500D03*
X258522500Y-123187500D03*
%TD*%
D20*
%TO.C,R6*%
X234630000Y-147450000D03*
X236455000Y-147450000D03*
%TD*%
D24*
%TO.C,R28*%
X168742500Y-140942500D03*
X168742500Y-139117500D03*
%TD*%
%TO.C,R15*%
X262602500Y-138362500D03*
X262602500Y-136537500D03*
%TD*%
D13*
%TO.C,C26*%
X243542500Y-126525000D03*
X243542500Y-123575000D03*
%TD*%
D39*
%TO.C,U3*%
X185437500Y-118067500D03*
X185437500Y-119337500D03*
X185437500Y-120607500D03*
X185437500Y-121877500D03*
X192612500Y-121877500D03*
X192612500Y-120607500D03*
X192612500Y-119337500D03*
X192612500Y-118067500D03*
%TD*%
D28*
%TO.C,C9*%
X195382500Y-123180000D03*
X195382500Y-125080000D03*
%TD*%
D12*
%TO.C,C30*%
X246867500Y-133787500D03*
X249817500Y-133787500D03*
%TD*%
D20*
%TO.C,R13*%
X254317500Y-106725000D03*
X256142500Y-106725000D03*
%TD*%
%TO.C,R18*%
X251230000Y-124787500D03*
X253055000Y-124787500D03*
%TD*%
D40*
%TO.C,L3*%
X258342500Y-133450000D03*
X258342500Y-137950000D03*
%TD*%
D41*
%TO.C,U1*%
X195962500Y-131480000D03*
X195962500Y-132610000D03*
X195962500Y-133740000D03*
X197092500Y-131480000D03*
X197092500Y-132610000D03*
X197092500Y-133740000D03*
X198222500Y-131480000D03*
X198222500Y-132610000D03*
X198222500Y-133740000D03*
D42*
X193642500Y-129810000D03*
X193642500Y-130210000D03*
X193642500Y-130610000D03*
X193642500Y-131010000D03*
X193642500Y-131410000D03*
X193642500Y-131810000D03*
X193642500Y-132210000D03*
X193642500Y-132610000D03*
X193642500Y-133010000D03*
X193642500Y-133410000D03*
X193642500Y-133810000D03*
X193642500Y-134210000D03*
X193642500Y-134610000D03*
X193642500Y-135010000D03*
X193642500Y-135410000D03*
D43*
X194292500Y-136060000D03*
X194692500Y-136060000D03*
X195092500Y-136060000D03*
X195492500Y-136060000D03*
X195892500Y-136060000D03*
X196292500Y-136060000D03*
X196692500Y-136060000D03*
X197092500Y-136060000D03*
X197492500Y-136060000D03*
X197892500Y-136060000D03*
X198292500Y-136060000D03*
X198692500Y-136060000D03*
X199092500Y-136060000D03*
X199492500Y-136060000D03*
X199892500Y-136060000D03*
D42*
X200542500Y-135410000D03*
X200542500Y-135010000D03*
X200542500Y-134610000D03*
X200542500Y-134210000D03*
X200542500Y-133810000D03*
X200542500Y-133410000D03*
X200542500Y-133010000D03*
X200542500Y-132610000D03*
X200542500Y-132210000D03*
X200542500Y-131810000D03*
X200542500Y-131410000D03*
X200542500Y-131010000D03*
X200542500Y-130610000D03*
X200542500Y-130210000D03*
X200542500Y-129810000D03*
D43*
X199892500Y-129160000D03*
X199492500Y-129160000D03*
X199092500Y-129160000D03*
X198692500Y-129160000D03*
X198292500Y-129160000D03*
X197892500Y-129160000D03*
X197492500Y-129160000D03*
X197092500Y-129160000D03*
X196692500Y-129160000D03*
X196292500Y-129160000D03*
X195892500Y-129160000D03*
X195492500Y-129160000D03*
X195092500Y-129160000D03*
X194692500Y-129160000D03*
X194292500Y-129160000D03*
%TD*%
D19*
%TO.C,C27*%
X265180000Y-113925000D03*
X263280000Y-113925000D03*
%TD*%
D30*
%TO.C,R1*%
X159752500Y-137977500D03*
X159752500Y-139802500D03*
%TD*%
D13*
%TO.C,C32*%
X243942500Y-141925000D03*
X243942500Y-138975000D03*
%TD*%
D24*
%TO.C,R3*%
X196652500Y-141122500D03*
X196652500Y-139297500D03*
%TD*%
M02*
