%TF.GenerationSoftware,KiCad,Pcbnew,10.0.3*%
%TF.CreationDate,2026-06-06T22:28:14+03:00*%
%TF.ProjectId,Interuppter,496e7465-7275-4707-9074-65722e6b6963,rev?*%
%TF.SameCoordinates,Original*%
%TF.FileFunction,Legend,Bot*%
%TF.FilePolarity,Positive*%
%FSLAX46Y46*%
G04 Gerber Fmt 4.6, Leading zero omitted, Abs format (unit mm)*
G04 Created by KiCad (PCBNEW 10.0.3) date 2026-06-06 22:28:14*
%MOMM*%
%LPD*%
G01*
G04 APERTURE LIST*
%ADD10C,0.500000*%
%ADD11C,0.150000*%
%ADD12C,0.120000*%
G04 APERTURE END LIST*
D10*
X230932500Y-153290000D02*
X230942859Y-118100000D01*
X231266250Y-118100000D02*
X271542500Y-118100000D01*
X242782500Y-98280000D02*
X242782500Y-118060000D01*
D11*
X241207319Y-136256666D02*
X241921604Y-136256666D01*
X241921604Y-136256666D02*
X242064461Y-136209047D01*
X242064461Y-136209047D02*
X242159700Y-136113809D01*
X242159700Y-136113809D02*
X242207319Y-135970952D01*
X242207319Y-135970952D02*
X242207319Y-135875714D01*
X241302557Y-136685238D02*
X241254938Y-136732857D01*
X241254938Y-136732857D02*
X241207319Y-136828095D01*
X241207319Y-136828095D02*
X241207319Y-137066190D01*
X241207319Y-137066190D02*
X241254938Y-137161428D01*
X241254938Y-137161428D02*
X241302557Y-137209047D01*
X241302557Y-137209047D02*
X241397795Y-137256666D01*
X241397795Y-137256666D02*
X241493033Y-137256666D01*
X241493033Y-137256666D02*
X241635890Y-137209047D01*
X241635890Y-137209047D02*
X242207319Y-136637619D01*
X242207319Y-136637619D02*
X242207319Y-137256666D01*
%TO.C,J2*%
D12*
X235292500Y-137700000D02*
X235292500Y-133020000D01*
X238112500Y-131750000D02*
X239562500Y-131750000D01*
X238112500Y-138970000D02*
X239562500Y-138970000D01*
X239562500Y-131750000D02*
X239562500Y-133550000D01*
X239562500Y-137170000D02*
X240552500Y-137170000D01*
X239562500Y-138970000D02*
X239562500Y-137170000D01*
%TD*%
M02*
