%TF.GenerationSoftware,KiCad,Pcbnew,10.0.3*%
%TF.CreationDate,2026-06-06T22:28:14+03:00*%
%TF.ProjectId,Interuppter,496e7465-7275-4707-9074-65722e6b6963,rev?*%
%TF.SameCoordinates,Original*%
%TF.FileFunction,Legend,Top*%
%TF.FilePolarity,Positive*%
%FSLAX46Y46*%
G04 Gerber Fmt 4.6, Leading zero omitted, Abs format (unit mm)*
G04 Created by KiCad (PCBNEW 10.0.3) date 2026-06-06 22:28:14*
%MOMM*%
%LPD*%
G01*
G04 APERTURE LIST*
%ADD10C,0.500000*%
%ADD11C,0.150000*%
%ADD12C,0.100000*%
%ADD13C,0.120000*%
%ADD14C,0.050000*%
%ADD15C,0.191421*%
G04 APERTURE END LIST*
D10*
X230932500Y-153290000D02*
X230942500Y-118150000D01*
X230952500Y-118100000D02*
X271542500Y-118100000D01*
X242782500Y-98280000D02*
X242782500Y-118070000D01*
D11*
X250699642Y-108429819D02*
X250366309Y-107953628D01*
X250128214Y-108429819D02*
X250128214Y-107429819D01*
X250128214Y-107429819D02*
X250509166Y-107429819D01*
X250509166Y-107429819D02*
X250604404Y-107477438D01*
X250604404Y-107477438D02*
X250652023Y-107525057D01*
X250652023Y-107525057D02*
X250699642Y-107620295D01*
X250699642Y-107620295D02*
X250699642Y-107763152D01*
X250699642Y-107763152D02*
X250652023Y-107858390D01*
X250652023Y-107858390D02*
X250604404Y-107906009D01*
X250604404Y-107906009D02*
X250509166Y-107953628D01*
X250509166Y-107953628D02*
X250128214Y-107953628D01*
X251652023Y-108429819D02*
X251080595Y-108429819D01*
X251366309Y-108429819D02*
X251366309Y-107429819D01*
X251366309Y-107429819D02*
X251271071Y-107572676D01*
X251271071Y-107572676D02*
X251175833Y-107667914D01*
X251175833Y-107667914D02*
X251080595Y-107715533D01*
X252032976Y-107525057D02*
X252080595Y-107477438D01*
X252080595Y-107477438D02*
X252175833Y-107429819D01*
X252175833Y-107429819D02*
X252413928Y-107429819D01*
X252413928Y-107429819D02*
X252509166Y-107477438D01*
X252509166Y-107477438D02*
X252556785Y-107525057D01*
X252556785Y-107525057D02*
X252604404Y-107620295D01*
X252604404Y-107620295D02*
X252604404Y-107715533D01*
X252604404Y-107715533D02*
X252556785Y-107858390D01*
X252556785Y-107858390D02*
X251985357Y-108429819D01*
X251985357Y-108429819D02*
X252604404Y-108429819D01*
X267988095Y-104804819D02*
X267988095Y-103804819D01*
X267988095Y-104281009D02*
X268559523Y-104281009D01*
X268559523Y-104804819D02*
X268559523Y-103804819D01*
X268988095Y-103900057D02*
X269035714Y-103852438D01*
X269035714Y-103852438D02*
X269130952Y-103804819D01*
X269130952Y-103804819D02*
X269369047Y-103804819D01*
X269369047Y-103804819D02*
X269464285Y-103852438D01*
X269464285Y-103852438D02*
X269511904Y-103900057D01*
X269511904Y-103900057D02*
X269559523Y-103995295D01*
X269559523Y-103995295D02*
X269559523Y-104090533D01*
X269559523Y-104090533D02*
X269511904Y-104233390D01*
X269511904Y-104233390D02*
X268940476Y-104804819D01*
X268940476Y-104804819D02*
X269559523Y-104804819D01*
X257889580Y-110967857D02*
X257937200Y-111015476D01*
X257937200Y-111015476D02*
X257984819Y-111158333D01*
X257984819Y-111158333D02*
X257984819Y-111253571D01*
X257984819Y-111253571D02*
X257937200Y-111396428D01*
X257937200Y-111396428D02*
X257841961Y-111491666D01*
X257841961Y-111491666D02*
X257746723Y-111539285D01*
X257746723Y-111539285D02*
X257556247Y-111586904D01*
X257556247Y-111586904D02*
X257413390Y-111586904D01*
X257413390Y-111586904D02*
X257222914Y-111539285D01*
X257222914Y-111539285D02*
X257127676Y-111491666D01*
X257127676Y-111491666D02*
X257032438Y-111396428D01*
X257032438Y-111396428D02*
X256984819Y-111253571D01*
X256984819Y-111253571D02*
X256984819Y-111158333D01*
X256984819Y-111158333D02*
X257032438Y-111015476D01*
X257032438Y-111015476D02*
X257080057Y-110967857D01*
X257984819Y-110015476D02*
X257984819Y-110586904D01*
X257984819Y-110301190D02*
X256984819Y-110301190D01*
X256984819Y-110301190D02*
X257127676Y-110396428D01*
X257127676Y-110396428D02*
X257222914Y-110491666D01*
X257222914Y-110491666D02*
X257270533Y-110586904D01*
X257413390Y-109444047D02*
X257365771Y-109539285D01*
X257365771Y-109539285D02*
X257318152Y-109586904D01*
X257318152Y-109586904D02*
X257222914Y-109634523D01*
X257222914Y-109634523D02*
X257175295Y-109634523D01*
X257175295Y-109634523D02*
X257080057Y-109586904D01*
X257080057Y-109586904D02*
X257032438Y-109539285D01*
X257032438Y-109539285D02*
X256984819Y-109444047D01*
X256984819Y-109444047D02*
X256984819Y-109253571D01*
X256984819Y-109253571D02*
X257032438Y-109158333D01*
X257032438Y-109158333D02*
X257080057Y-109110714D01*
X257080057Y-109110714D02*
X257175295Y-109063095D01*
X257175295Y-109063095D02*
X257222914Y-109063095D01*
X257222914Y-109063095D02*
X257318152Y-109110714D01*
X257318152Y-109110714D02*
X257365771Y-109158333D01*
X257365771Y-109158333D02*
X257413390Y-109253571D01*
X257413390Y-109253571D02*
X257413390Y-109444047D01*
X257413390Y-109444047D02*
X257461009Y-109539285D01*
X257461009Y-109539285D02*
X257508628Y-109586904D01*
X257508628Y-109586904D02*
X257603866Y-109634523D01*
X257603866Y-109634523D02*
X257794342Y-109634523D01*
X257794342Y-109634523D02*
X257889580Y-109586904D01*
X257889580Y-109586904D02*
X257937200Y-109539285D01*
X257937200Y-109539285D02*
X257984819Y-109444047D01*
X257984819Y-109444047D02*
X257984819Y-109253571D01*
X257984819Y-109253571D02*
X257937200Y-109158333D01*
X257937200Y-109158333D02*
X257889580Y-109110714D01*
X257889580Y-109110714D02*
X257794342Y-109063095D01*
X257794342Y-109063095D02*
X257603866Y-109063095D01*
X257603866Y-109063095D02*
X257508628Y-109110714D01*
X257508628Y-109110714D02*
X257461009Y-109158333D01*
X257461009Y-109158333D02*
X257413390Y-109253571D01*
X250329642Y-121239580D02*
X250282023Y-121287200D01*
X250282023Y-121287200D02*
X250139166Y-121334819D01*
X250139166Y-121334819D02*
X250043928Y-121334819D01*
X250043928Y-121334819D02*
X249901071Y-121287200D01*
X249901071Y-121287200D02*
X249805833Y-121191961D01*
X249805833Y-121191961D02*
X249758214Y-121096723D01*
X249758214Y-121096723D02*
X249710595Y-120906247D01*
X249710595Y-120906247D02*
X249710595Y-120763390D01*
X249710595Y-120763390D02*
X249758214Y-120572914D01*
X249758214Y-120572914D02*
X249805833Y-120477676D01*
X249805833Y-120477676D02*
X249901071Y-120382438D01*
X249901071Y-120382438D02*
X250043928Y-120334819D01*
X250043928Y-120334819D02*
X250139166Y-120334819D01*
X250139166Y-120334819D02*
X250282023Y-120382438D01*
X250282023Y-120382438D02*
X250329642Y-120430057D01*
X250710595Y-120430057D02*
X250758214Y-120382438D01*
X250758214Y-120382438D02*
X250853452Y-120334819D01*
X250853452Y-120334819D02*
X251091547Y-120334819D01*
X251091547Y-120334819D02*
X251186785Y-120382438D01*
X251186785Y-120382438D02*
X251234404Y-120430057D01*
X251234404Y-120430057D02*
X251282023Y-120525295D01*
X251282023Y-120525295D02*
X251282023Y-120620533D01*
X251282023Y-120620533D02*
X251234404Y-120763390D01*
X251234404Y-120763390D02*
X250662976Y-121334819D01*
X250662976Y-121334819D02*
X251282023Y-121334819D01*
X252186785Y-120334819D02*
X251710595Y-120334819D01*
X251710595Y-120334819D02*
X251662976Y-120811009D01*
X251662976Y-120811009D02*
X251710595Y-120763390D01*
X251710595Y-120763390D02*
X251805833Y-120715771D01*
X251805833Y-120715771D02*
X252043928Y-120715771D01*
X252043928Y-120715771D02*
X252139166Y-120763390D01*
X252139166Y-120763390D02*
X252186785Y-120811009D01*
X252186785Y-120811009D02*
X252234404Y-120906247D01*
X252234404Y-120906247D02*
X252234404Y-121144342D01*
X252234404Y-121144342D02*
X252186785Y-121239580D01*
X252186785Y-121239580D02*
X252139166Y-121287200D01*
X252139166Y-121287200D02*
X252043928Y-121334819D01*
X252043928Y-121334819D02*
X251805833Y-121334819D01*
X251805833Y-121334819D02*
X251710595Y-121287200D01*
X251710595Y-121287200D02*
X251662976Y-121239580D01*
X259289580Y-110967857D02*
X259337200Y-111015476D01*
X259337200Y-111015476D02*
X259384819Y-111158333D01*
X259384819Y-111158333D02*
X259384819Y-111253571D01*
X259384819Y-111253571D02*
X259337200Y-111396428D01*
X259337200Y-111396428D02*
X259241961Y-111491666D01*
X259241961Y-111491666D02*
X259146723Y-111539285D01*
X259146723Y-111539285D02*
X258956247Y-111586904D01*
X258956247Y-111586904D02*
X258813390Y-111586904D01*
X258813390Y-111586904D02*
X258622914Y-111539285D01*
X258622914Y-111539285D02*
X258527676Y-111491666D01*
X258527676Y-111491666D02*
X258432438Y-111396428D01*
X258432438Y-111396428D02*
X258384819Y-111253571D01*
X258384819Y-111253571D02*
X258384819Y-111158333D01*
X258384819Y-111158333D02*
X258432438Y-111015476D01*
X258432438Y-111015476D02*
X258480057Y-110967857D01*
X258480057Y-110586904D02*
X258432438Y-110539285D01*
X258432438Y-110539285D02*
X258384819Y-110444047D01*
X258384819Y-110444047D02*
X258384819Y-110205952D01*
X258384819Y-110205952D02*
X258432438Y-110110714D01*
X258432438Y-110110714D02*
X258480057Y-110063095D01*
X258480057Y-110063095D02*
X258575295Y-110015476D01*
X258575295Y-110015476D02*
X258670533Y-110015476D01*
X258670533Y-110015476D02*
X258813390Y-110063095D01*
X258813390Y-110063095D02*
X259384819Y-110634523D01*
X259384819Y-110634523D02*
X259384819Y-110015476D01*
X258813390Y-109444047D02*
X258765771Y-109539285D01*
X258765771Y-109539285D02*
X258718152Y-109586904D01*
X258718152Y-109586904D02*
X258622914Y-109634523D01*
X258622914Y-109634523D02*
X258575295Y-109634523D01*
X258575295Y-109634523D02*
X258480057Y-109586904D01*
X258480057Y-109586904D02*
X258432438Y-109539285D01*
X258432438Y-109539285D02*
X258384819Y-109444047D01*
X258384819Y-109444047D02*
X258384819Y-109253571D01*
X258384819Y-109253571D02*
X258432438Y-109158333D01*
X258432438Y-109158333D02*
X258480057Y-109110714D01*
X258480057Y-109110714D02*
X258575295Y-109063095D01*
X258575295Y-109063095D02*
X258622914Y-109063095D01*
X258622914Y-109063095D02*
X258718152Y-109110714D01*
X258718152Y-109110714D02*
X258765771Y-109158333D01*
X258765771Y-109158333D02*
X258813390Y-109253571D01*
X258813390Y-109253571D02*
X258813390Y-109444047D01*
X258813390Y-109444047D02*
X258861009Y-109539285D01*
X258861009Y-109539285D02*
X258908628Y-109586904D01*
X258908628Y-109586904D02*
X259003866Y-109634523D01*
X259003866Y-109634523D02*
X259194342Y-109634523D01*
X259194342Y-109634523D02*
X259289580Y-109586904D01*
X259289580Y-109586904D02*
X259337200Y-109539285D01*
X259337200Y-109539285D02*
X259384819Y-109444047D01*
X259384819Y-109444047D02*
X259384819Y-109253571D01*
X259384819Y-109253571D02*
X259337200Y-109158333D01*
X259337200Y-109158333D02*
X259289580Y-109110714D01*
X259289580Y-109110714D02*
X259194342Y-109063095D01*
X259194342Y-109063095D02*
X259003866Y-109063095D01*
X259003866Y-109063095D02*
X258908628Y-109110714D01*
X258908628Y-109110714D02*
X258861009Y-109158333D01*
X258861009Y-109158333D02*
X258813390Y-109253571D01*
X260109580Y-115642857D02*
X260157200Y-115690476D01*
X260157200Y-115690476D02*
X260204819Y-115833333D01*
X260204819Y-115833333D02*
X260204819Y-115928571D01*
X260204819Y-115928571D02*
X260157200Y-116071428D01*
X260157200Y-116071428D02*
X260061961Y-116166666D01*
X260061961Y-116166666D02*
X259966723Y-116214285D01*
X259966723Y-116214285D02*
X259776247Y-116261904D01*
X259776247Y-116261904D02*
X259633390Y-116261904D01*
X259633390Y-116261904D02*
X259442914Y-116214285D01*
X259442914Y-116214285D02*
X259347676Y-116166666D01*
X259347676Y-116166666D02*
X259252438Y-116071428D01*
X259252438Y-116071428D02*
X259204819Y-115928571D01*
X259204819Y-115928571D02*
X259204819Y-115833333D01*
X259204819Y-115833333D02*
X259252438Y-115690476D01*
X259252438Y-115690476D02*
X259300057Y-115642857D01*
X259300057Y-115261904D02*
X259252438Y-115214285D01*
X259252438Y-115214285D02*
X259204819Y-115119047D01*
X259204819Y-115119047D02*
X259204819Y-114880952D01*
X259204819Y-114880952D02*
X259252438Y-114785714D01*
X259252438Y-114785714D02*
X259300057Y-114738095D01*
X259300057Y-114738095D02*
X259395295Y-114690476D01*
X259395295Y-114690476D02*
X259490533Y-114690476D01*
X259490533Y-114690476D02*
X259633390Y-114738095D01*
X259633390Y-114738095D02*
X260204819Y-115309523D01*
X260204819Y-115309523D02*
X260204819Y-114690476D01*
X259300057Y-114309523D02*
X259252438Y-114261904D01*
X259252438Y-114261904D02*
X259204819Y-114166666D01*
X259204819Y-114166666D02*
X259204819Y-113928571D01*
X259204819Y-113928571D02*
X259252438Y-113833333D01*
X259252438Y-113833333D02*
X259300057Y-113785714D01*
X259300057Y-113785714D02*
X259395295Y-113738095D01*
X259395295Y-113738095D02*
X259490533Y-113738095D01*
X259490533Y-113738095D02*
X259633390Y-113785714D01*
X259633390Y-113785714D02*
X260204819Y-114357142D01*
X260204819Y-114357142D02*
X260204819Y-113738095D01*
X201719642Y-124019580D02*
X201672023Y-124067200D01*
X201672023Y-124067200D02*
X201529166Y-124114819D01*
X201529166Y-124114819D02*
X201433928Y-124114819D01*
X201433928Y-124114819D02*
X201291071Y-124067200D01*
X201291071Y-124067200D02*
X201195833Y-123971961D01*
X201195833Y-123971961D02*
X201148214Y-123876723D01*
X201148214Y-123876723D02*
X201100595Y-123686247D01*
X201100595Y-123686247D02*
X201100595Y-123543390D01*
X201100595Y-123543390D02*
X201148214Y-123352914D01*
X201148214Y-123352914D02*
X201195833Y-123257676D01*
X201195833Y-123257676D02*
X201291071Y-123162438D01*
X201291071Y-123162438D02*
X201433928Y-123114819D01*
X201433928Y-123114819D02*
X201529166Y-123114819D01*
X201529166Y-123114819D02*
X201672023Y-123162438D01*
X201672023Y-123162438D02*
X201719642Y-123210057D01*
X202672023Y-124114819D02*
X202100595Y-124114819D01*
X202386309Y-124114819D02*
X202386309Y-123114819D01*
X202386309Y-123114819D02*
X202291071Y-123257676D01*
X202291071Y-123257676D02*
X202195833Y-123352914D01*
X202195833Y-123352914D02*
X202100595Y-123400533D01*
X203576785Y-123114819D02*
X203100595Y-123114819D01*
X203100595Y-123114819D02*
X203052976Y-123591009D01*
X203052976Y-123591009D02*
X203100595Y-123543390D01*
X203100595Y-123543390D02*
X203195833Y-123495771D01*
X203195833Y-123495771D02*
X203433928Y-123495771D01*
X203433928Y-123495771D02*
X203529166Y-123543390D01*
X203529166Y-123543390D02*
X203576785Y-123591009D01*
X203576785Y-123591009D02*
X203624404Y-123686247D01*
X203624404Y-123686247D02*
X203624404Y-123924342D01*
X203624404Y-123924342D02*
X203576785Y-124019580D01*
X203576785Y-124019580D02*
X203529166Y-124067200D01*
X203529166Y-124067200D02*
X203433928Y-124114819D01*
X203433928Y-124114819D02*
X203195833Y-124114819D01*
X203195833Y-124114819D02*
X203100595Y-124067200D01*
X203100595Y-124067200D02*
X203052976Y-124019580D01*
X250718095Y-108699819D02*
X250718095Y-109509342D01*
X250718095Y-109509342D02*
X250765714Y-109604580D01*
X250765714Y-109604580D02*
X250813333Y-109652200D01*
X250813333Y-109652200D02*
X250908571Y-109699819D01*
X250908571Y-109699819D02*
X251099047Y-109699819D01*
X251099047Y-109699819D02*
X251194285Y-109652200D01*
X251194285Y-109652200D02*
X251241904Y-109604580D01*
X251241904Y-109604580D02*
X251289523Y-109509342D01*
X251289523Y-109509342D02*
X251289523Y-108699819D01*
X252194285Y-109033152D02*
X252194285Y-109699819D01*
X251956190Y-108652200D02*
X251718095Y-109366485D01*
X251718095Y-109366485D02*
X252337142Y-109366485D01*
X186425833Y-131739580D02*
X186378214Y-131787200D01*
X186378214Y-131787200D02*
X186235357Y-131834819D01*
X186235357Y-131834819D02*
X186140119Y-131834819D01*
X186140119Y-131834819D02*
X185997262Y-131787200D01*
X185997262Y-131787200D02*
X185902024Y-131691961D01*
X185902024Y-131691961D02*
X185854405Y-131596723D01*
X185854405Y-131596723D02*
X185806786Y-131406247D01*
X185806786Y-131406247D02*
X185806786Y-131263390D01*
X185806786Y-131263390D02*
X185854405Y-131072914D01*
X185854405Y-131072914D02*
X185902024Y-130977676D01*
X185902024Y-130977676D02*
X185997262Y-130882438D01*
X185997262Y-130882438D02*
X186140119Y-130834819D01*
X186140119Y-130834819D02*
X186235357Y-130834819D01*
X186235357Y-130834819D02*
X186378214Y-130882438D01*
X186378214Y-130882438D02*
X186425833Y-130930057D01*
X186759167Y-130834819D02*
X187425833Y-130834819D01*
X187425833Y-130834819D02*
X186997262Y-131834819D01*
X255099642Y-123592319D02*
X254766309Y-123116128D01*
X254528214Y-123592319D02*
X254528214Y-122592319D01*
X254528214Y-122592319D02*
X254909166Y-122592319D01*
X254909166Y-122592319D02*
X255004404Y-122639938D01*
X255004404Y-122639938D02*
X255052023Y-122687557D01*
X255052023Y-122687557D02*
X255099642Y-122782795D01*
X255099642Y-122782795D02*
X255099642Y-122925652D01*
X255099642Y-122925652D02*
X255052023Y-123020890D01*
X255052023Y-123020890D02*
X255004404Y-123068509D01*
X255004404Y-123068509D02*
X254909166Y-123116128D01*
X254909166Y-123116128D02*
X254528214Y-123116128D01*
X256052023Y-123592319D02*
X255480595Y-123592319D01*
X255766309Y-123592319D02*
X255766309Y-122592319D01*
X255766309Y-122592319D02*
X255671071Y-122735176D01*
X255671071Y-122735176D02*
X255575833Y-122830414D01*
X255575833Y-122830414D02*
X255480595Y-122878033D01*
X256528214Y-123592319D02*
X256718690Y-123592319D01*
X256718690Y-123592319D02*
X256813928Y-123544700D01*
X256813928Y-123544700D02*
X256861547Y-123497080D01*
X256861547Y-123497080D02*
X256956785Y-123354223D01*
X256956785Y-123354223D02*
X257004404Y-123163747D01*
X257004404Y-123163747D02*
X257004404Y-122782795D01*
X257004404Y-122782795D02*
X256956785Y-122687557D01*
X256956785Y-122687557D02*
X256909166Y-122639938D01*
X256909166Y-122639938D02*
X256813928Y-122592319D01*
X256813928Y-122592319D02*
X256623452Y-122592319D01*
X256623452Y-122592319D02*
X256528214Y-122639938D01*
X256528214Y-122639938D02*
X256480595Y-122687557D01*
X256480595Y-122687557D02*
X256432976Y-122782795D01*
X256432976Y-122782795D02*
X256432976Y-123020890D01*
X256432976Y-123020890D02*
X256480595Y-123116128D01*
X256480595Y-123116128D02*
X256528214Y-123163747D01*
X256528214Y-123163747D02*
X256623452Y-123211366D01*
X256623452Y-123211366D02*
X256813928Y-123211366D01*
X256813928Y-123211366D02*
X256909166Y-123163747D01*
X256909166Y-123163747D02*
X256956785Y-123116128D01*
X256956785Y-123116128D02*
X257004404Y-123020890D01*
X235375833Y-152184819D02*
X235042500Y-151708628D01*
X234804405Y-152184819D02*
X234804405Y-151184819D01*
X234804405Y-151184819D02*
X235185357Y-151184819D01*
X235185357Y-151184819D02*
X235280595Y-151232438D01*
X235280595Y-151232438D02*
X235328214Y-151280057D01*
X235328214Y-151280057D02*
X235375833Y-151375295D01*
X235375833Y-151375295D02*
X235375833Y-151518152D01*
X235375833Y-151518152D02*
X235328214Y-151613390D01*
X235328214Y-151613390D02*
X235280595Y-151661009D01*
X235280595Y-151661009D02*
X235185357Y-151708628D01*
X235185357Y-151708628D02*
X234804405Y-151708628D01*
X236280595Y-151184819D02*
X235804405Y-151184819D01*
X235804405Y-151184819D02*
X235756786Y-151661009D01*
X235756786Y-151661009D02*
X235804405Y-151613390D01*
X235804405Y-151613390D02*
X235899643Y-151565771D01*
X235899643Y-151565771D02*
X236137738Y-151565771D01*
X236137738Y-151565771D02*
X236232976Y-151613390D01*
X236232976Y-151613390D02*
X236280595Y-151661009D01*
X236280595Y-151661009D02*
X236328214Y-151756247D01*
X236328214Y-151756247D02*
X236328214Y-151994342D01*
X236328214Y-151994342D02*
X236280595Y-152089580D01*
X236280595Y-152089580D02*
X236232976Y-152137200D01*
X236232976Y-152137200D02*
X236137738Y-152184819D01*
X236137738Y-152184819D02*
X235899643Y-152184819D01*
X235899643Y-152184819D02*
X235804405Y-152137200D01*
X235804405Y-152137200D02*
X235756786Y-152089580D01*
X206525833Y-132429580D02*
X206478214Y-132477200D01*
X206478214Y-132477200D02*
X206335357Y-132524819D01*
X206335357Y-132524819D02*
X206240119Y-132524819D01*
X206240119Y-132524819D02*
X206097262Y-132477200D01*
X206097262Y-132477200D02*
X206002024Y-132381961D01*
X206002024Y-132381961D02*
X205954405Y-132286723D01*
X205954405Y-132286723D02*
X205906786Y-132096247D01*
X205906786Y-132096247D02*
X205906786Y-131953390D01*
X205906786Y-131953390D02*
X205954405Y-131762914D01*
X205954405Y-131762914D02*
X206002024Y-131667676D01*
X206002024Y-131667676D02*
X206097262Y-131572438D01*
X206097262Y-131572438D02*
X206240119Y-131524819D01*
X206240119Y-131524819D02*
X206335357Y-131524819D01*
X206335357Y-131524819D02*
X206478214Y-131572438D01*
X206478214Y-131572438D02*
X206525833Y-131620057D01*
X207382976Y-131524819D02*
X207192500Y-131524819D01*
X207192500Y-131524819D02*
X207097262Y-131572438D01*
X207097262Y-131572438D02*
X207049643Y-131620057D01*
X207049643Y-131620057D02*
X206954405Y-131762914D01*
X206954405Y-131762914D02*
X206906786Y-131953390D01*
X206906786Y-131953390D02*
X206906786Y-132334342D01*
X206906786Y-132334342D02*
X206954405Y-132429580D01*
X206954405Y-132429580D02*
X207002024Y-132477200D01*
X207002024Y-132477200D02*
X207097262Y-132524819D01*
X207097262Y-132524819D02*
X207287738Y-132524819D01*
X207287738Y-132524819D02*
X207382976Y-132477200D01*
X207382976Y-132477200D02*
X207430595Y-132429580D01*
X207430595Y-132429580D02*
X207478214Y-132334342D01*
X207478214Y-132334342D02*
X207478214Y-132096247D01*
X207478214Y-132096247D02*
X207430595Y-132001009D01*
X207430595Y-132001009D02*
X207382976Y-131953390D01*
X207382976Y-131953390D02*
X207287738Y-131905771D01*
X207287738Y-131905771D02*
X207097262Y-131905771D01*
X207097262Y-131905771D02*
X207002024Y-131953390D01*
X207002024Y-131953390D02*
X206954405Y-132001009D01*
X206954405Y-132001009D02*
X206906786Y-132096247D01*
X173667319Y-133873333D02*
X174381604Y-133873333D01*
X174381604Y-133873333D02*
X174524461Y-133920952D01*
X174524461Y-133920952D02*
X174619700Y-134016190D01*
X174619700Y-134016190D02*
X174667319Y-134159047D01*
X174667319Y-134159047D02*
X174667319Y-134254285D01*
X173667319Y-132920952D02*
X173667319Y-133397142D01*
X173667319Y-133397142D02*
X174143509Y-133444761D01*
X174143509Y-133444761D02*
X174095890Y-133397142D01*
X174095890Y-133397142D02*
X174048271Y-133301904D01*
X174048271Y-133301904D02*
X174048271Y-133063809D01*
X174048271Y-133063809D02*
X174095890Y-132968571D01*
X174095890Y-132968571D02*
X174143509Y-132920952D01*
X174143509Y-132920952D02*
X174238747Y-132873333D01*
X174238747Y-132873333D02*
X174476842Y-132873333D01*
X174476842Y-132873333D02*
X174572080Y-132920952D01*
X174572080Y-132920952D02*
X174619700Y-132968571D01*
X174619700Y-132968571D02*
X174667319Y-133063809D01*
X174667319Y-133063809D02*
X174667319Y-133301904D01*
X174667319Y-133301904D02*
X174619700Y-133397142D01*
X174619700Y-133397142D02*
X174572080Y-133444761D01*
X186305833Y-134739580D02*
X186258214Y-134787200D01*
X186258214Y-134787200D02*
X186115357Y-134834819D01*
X186115357Y-134834819D02*
X186020119Y-134834819D01*
X186020119Y-134834819D02*
X185877262Y-134787200D01*
X185877262Y-134787200D02*
X185782024Y-134691961D01*
X185782024Y-134691961D02*
X185734405Y-134596723D01*
X185734405Y-134596723D02*
X185686786Y-134406247D01*
X185686786Y-134406247D02*
X185686786Y-134263390D01*
X185686786Y-134263390D02*
X185734405Y-134072914D01*
X185734405Y-134072914D02*
X185782024Y-133977676D01*
X185782024Y-133977676D02*
X185877262Y-133882438D01*
X185877262Y-133882438D02*
X186020119Y-133834819D01*
X186020119Y-133834819D02*
X186115357Y-133834819D01*
X186115357Y-133834819D02*
X186258214Y-133882438D01*
X186258214Y-133882438D02*
X186305833Y-133930057D01*
X186877262Y-134263390D02*
X186782024Y-134215771D01*
X186782024Y-134215771D02*
X186734405Y-134168152D01*
X186734405Y-134168152D02*
X186686786Y-134072914D01*
X186686786Y-134072914D02*
X186686786Y-134025295D01*
X186686786Y-134025295D02*
X186734405Y-133930057D01*
X186734405Y-133930057D02*
X186782024Y-133882438D01*
X186782024Y-133882438D02*
X186877262Y-133834819D01*
X186877262Y-133834819D02*
X187067738Y-133834819D01*
X187067738Y-133834819D02*
X187162976Y-133882438D01*
X187162976Y-133882438D02*
X187210595Y-133930057D01*
X187210595Y-133930057D02*
X187258214Y-134025295D01*
X187258214Y-134025295D02*
X187258214Y-134072914D01*
X187258214Y-134072914D02*
X187210595Y-134168152D01*
X187210595Y-134168152D02*
X187162976Y-134215771D01*
X187162976Y-134215771D02*
X187067738Y-134263390D01*
X187067738Y-134263390D02*
X186877262Y-134263390D01*
X186877262Y-134263390D02*
X186782024Y-134311009D01*
X186782024Y-134311009D02*
X186734405Y-134358628D01*
X186734405Y-134358628D02*
X186686786Y-134453866D01*
X186686786Y-134453866D02*
X186686786Y-134644342D01*
X186686786Y-134644342D02*
X186734405Y-134739580D01*
X186734405Y-134739580D02*
X186782024Y-134787200D01*
X186782024Y-134787200D02*
X186877262Y-134834819D01*
X186877262Y-134834819D02*
X187067738Y-134834819D01*
X187067738Y-134834819D02*
X187162976Y-134787200D01*
X187162976Y-134787200D02*
X187210595Y-134739580D01*
X187210595Y-134739580D02*
X187258214Y-134644342D01*
X187258214Y-134644342D02*
X187258214Y-134453866D01*
X187258214Y-134453866D02*
X187210595Y-134358628D01*
X187210595Y-134358628D02*
X187162976Y-134311009D01*
X187162976Y-134311009D02*
X187067738Y-134263390D01*
X246787142Y-116629819D02*
X246453809Y-116153628D01*
X246215714Y-116629819D02*
X246215714Y-115629819D01*
X246215714Y-115629819D02*
X246596666Y-115629819D01*
X246596666Y-115629819D02*
X246691904Y-115677438D01*
X246691904Y-115677438D02*
X246739523Y-115725057D01*
X246739523Y-115725057D02*
X246787142Y-115820295D01*
X246787142Y-115820295D02*
X246787142Y-115963152D01*
X246787142Y-115963152D02*
X246739523Y-116058390D01*
X246739523Y-116058390D02*
X246691904Y-116106009D01*
X246691904Y-116106009D02*
X246596666Y-116153628D01*
X246596666Y-116153628D02*
X246215714Y-116153628D01*
X247739523Y-116629819D02*
X247168095Y-116629819D01*
X247453809Y-116629819D02*
X247453809Y-115629819D01*
X247453809Y-115629819D02*
X247358571Y-115772676D01*
X247358571Y-115772676D02*
X247263333Y-115867914D01*
X247263333Y-115867914D02*
X247168095Y-115915533D01*
X248358571Y-115629819D02*
X248453809Y-115629819D01*
X248453809Y-115629819D02*
X248549047Y-115677438D01*
X248549047Y-115677438D02*
X248596666Y-115725057D01*
X248596666Y-115725057D02*
X248644285Y-115820295D01*
X248644285Y-115820295D02*
X248691904Y-116010771D01*
X248691904Y-116010771D02*
X248691904Y-116248866D01*
X248691904Y-116248866D02*
X248644285Y-116439342D01*
X248644285Y-116439342D02*
X248596666Y-116534580D01*
X248596666Y-116534580D02*
X248549047Y-116582200D01*
X248549047Y-116582200D02*
X248453809Y-116629819D01*
X248453809Y-116629819D02*
X248358571Y-116629819D01*
X248358571Y-116629819D02*
X248263333Y-116582200D01*
X248263333Y-116582200D02*
X248215714Y-116534580D01*
X248215714Y-116534580D02*
X248168095Y-116439342D01*
X248168095Y-116439342D02*
X248120476Y-116248866D01*
X248120476Y-116248866D02*
X248120476Y-116010771D01*
X248120476Y-116010771D02*
X248168095Y-115820295D01*
X248168095Y-115820295D02*
X248215714Y-115725057D01*
X248215714Y-115725057D02*
X248263333Y-115677438D01*
X248263333Y-115677438D02*
X248358571Y-115629819D01*
X194873809Y-146238628D02*
X194873809Y-146714819D01*
X194540476Y-145714819D02*
X194873809Y-146238628D01*
X194873809Y-146238628D02*
X195207142Y-145714819D01*
X196064285Y-146714819D02*
X195492857Y-146714819D01*
X195778571Y-146714819D02*
X195778571Y-145714819D01*
X195778571Y-145714819D02*
X195683333Y-145857676D01*
X195683333Y-145857676D02*
X195588095Y-145952914D01*
X195588095Y-145952914D02*
X195492857Y-146000533D01*
X164197319Y-140672857D02*
X163721128Y-141006190D01*
X164197319Y-141244285D02*
X163197319Y-141244285D01*
X163197319Y-141244285D02*
X163197319Y-140863333D01*
X163197319Y-140863333D02*
X163244938Y-140768095D01*
X163244938Y-140768095D02*
X163292557Y-140720476D01*
X163292557Y-140720476D02*
X163387795Y-140672857D01*
X163387795Y-140672857D02*
X163530652Y-140672857D01*
X163530652Y-140672857D02*
X163625890Y-140720476D01*
X163625890Y-140720476D02*
X163673509Y-140768095D01*
X163673509Y-140768095D02*
X163721128Y-140863333D01*
X163721128Y-140863333D02*
X163721128Y-141244285D01*
X163292557Y-140291904D02*
X163244938Y-140244285D01*
X163244938Y-140244285D02*
X163197319Y-140149047D01*
X163197319Y-140149047D02*
X163197319Y-139910952D01*
X163197319Y-139910952D02*
X163244938Y-139815714D01*
X163244938Y-139815714D02*
X163292557Y-139768095D01*
X163292557Y-139768095D02*
X163387795Y-139720476D01*
X163387795Y-139720476D02*
X163483033Y-139720476D01*
X163483033Y-139720476D02*
X163625890Y-139768095D01*
X163625890Y-139768095D02*
X164197319Y-140339523D01*
X164197319Y-140339523D02*
X164197319Y-139720476D01*
X164197319Y-139244285D02*
X164197319Y-139053809D01*
X164197319Y-139053809D02*
X164149700Y-138958571D01*
X164149700Y-138958571D02*
X164102080Y-138910952D01*
X164102080Y-138910952D02*
X163959223Y-138815714D01*
X163959223Y-138815714D02*
X163768747Y-138768095D01*
X163768747Y-138768095D02*
X163387795Y-138768095D01*
X163387795Y-138768095D02*
X163292557Y-138815714D01*
X163292557Y-138815714D02*
X163244938Y-138863333D01*
X163244938Y-138863333D02*
X163197319Y-138958571D01*
X163197319Y-138958571D02*
X163197319Y-139149047D01*
X163197319Y-139149047D02*
X163244938Y-139244285D01*
X163244938Y-139244285D02*
X163292557Y-139291904D01*
X163292557Y-139291904D02*
X163387795Y-139339523D01*
X163387795Y-139339523D02*
X163625890Y-139339523D01*
X163625890Y-139339523D02*
X163721128Y-139291904D01*
X163721128Y-139291904D02*
X163768747Y-139244285D01*
X163768747Y-139244285D02*
X163816366Y-139149047D01*
X163816366Y-139149047D02*
X163816366Y-138958571D01*
X163816366Y-138958571D02*
X163768747Y-138863333D01*
X163768747Y-138863333D02*
X163721128Y-138815714D01*
X163721128Y-138815714D02*
X163625890Y-138768095D01*
X258663333Y-108829819D02*
X258330000Y-108353628D01*
X258091905Y-108829819D02*
X258091905Y-107829819D01*
X258091905Y-107829819D02*
X258472857Y-107829819D01*
X258472857Y-107829819D02*
X258568095Y-107877438D01*
X258568095Y-107877438D02*
X258615714Y-107925057D01*
X258615714Y-107925057D02*
X258663333Y-108020295D01*
X258663333Y-108020295D02*
X258663333Y-108163152D01*
X258663333Y-108163152D02*
X258615714Y-108258390D01*
X258615714Y-108258390D02*
X258568095Y-108306009D01*
X258568095Y-108306009D02*
X258472857Y-108353628D01*
X258472857Y-108353628D02*
X258091905Y-108353628D01*
X259234762Y-108258390D02*
X259139524Y-108210771D01*
X259139524Y-108210771D02*
X259091905Y-108163152D01*
X259091905Y-108163152D02*
X259044286Y-108067914D01*
X259044286Y-108067914D02*
X259044286Y-108020295D01*
X259044286Y-108020295D02*
X259091905Y-107925057D01*
X259091905Y-107925057D02*
X259139524Y-107877438D01*
X259139524Y-107877438D02*
X259234762Y-107829819D01*
X259234762Y-107829819D02*
X259425238Y-107829819D01*
X259425238Y-107829819D02*
X259520476Y-107877438D01*
X259520476Y-107877438D02*
X259568095Y-107925057D01*
X259568095Y-107925057D02*
X259615714Y-108020295D01*
X259615714Y-108020295D02*
X259615714Y-108067914D01*
X259615714Y-108067914D02*
X259568095Y-108163152D01*
X259568095Y-108163152D02*
X259520476Y-108210771D01*
X259520476Y-108210771D02*
X259425238Y-108258390D01*
X259425238Y-108258390D02*
X259234762Y-108258390D01*
X259234762Y-108258390D02*
X259139524Y-108306009D01*
X259139524Y-108306009D02*
X259091905Y-108353628D01*
X259091905Y-108353628D02*
X259044286Y-108448866D01*
X259044286Y-108448866D02*
X259044286Y-108639342D01*
X259044286Y-108639342D02*
X259091905Y-108734580D01*
X259091905Y-108734580D02*
X259139524Y-108782200D01*
X259139524Y-108782200D02*
X259234762Y-108829819D01*
X259234762Y-108829819D02*
X259425238Y-108829819D01*
X259425238Y-108829819D02*
X259520476Y-108782200D01*
X259520476Y-108782200D02*
X259568095Y-108734580D01*
X259568095Y-108734580D02*
X259615714Y-108639342D01*
X259615714Y-108639342D02*
X259615714Y-108448866D01*
X259615714Y-108448866D02*
X259568095Y-108353628D01*
X259568095Y-108353628D02*
X259520476Y-108306009D01*
X259520476Y-108306009D02*
X259425238Y-108258390D01*
X238930595Y-150642319D02*
X238930595Y-151451842D01*
X238930595Y-151451842D02*
X238978214Y-151547080D01*
X238978214Y-151547080D02*
X239025833Y-151594700D01*
X239025833Y-151594700D02*
X239121071Y-151642319D01*
X239121071Y-151642319D02*
X239311547Y-151642319D01*
X239311547Y-151642319D02*
X239406785Y-151594700D01*
X239406785Y-151594700D02*
X239454404Y-151547080D01*
X239454404Y-151547080D02*
X239502023Y-151451842D01*
X239502023Y-151451842D02*
X239502023Y-150642319D01*
X239882976Y-150642319D02*
X240549642Y-150642319D01*
X240549642Y-150642319D02*
X240121071Y-151642319D01*
X249634819Y-103567857D02*
X249158628Y-103901190D01*
X249634819Y-104139285D02*
X248634819Y-104139285D01*
X248634819Y-104139285D02*
X248634819Y-103758333D01*
X248634819Y-103758333D02*
X248682438Y-103663095D01*
X248682438Y-103663095D02*
X248730057Y-103615476D01*
X248730057Y-103615476D02*
X248825295Y-103567857D01*
X248825295Y-103567857D02*
X248968152Y-103567857D01*
X248968152Y-103567857D02*
X249063390Y-103615476D01*
X249063390Y-103615476D02*
X249111009Y-103663095D01*
X249111009Y-103663095D02*
X249158628Y-103758333D01*
X249158628Y-103758333D02*
X249158628Y-104139285D01*
X249634819Y-102615476D02*
X249634819Y-103186904D01*
X249634819Y-102901190D02*
X248634819Y-102901190D01*
X248634819Y-102901190D02*
X248777676Y-102996428D01*
X248777676Y-102996428D02*
X248872914Y-103091666D01*
X248872914Y-103091666D02*
X248920533Y-103186904D01*
X249634819Y-101663095D02*
X249634819Y-102234523D01*
X249634819Y-101948809D02*
X248634819Y-101948809D01*
X248634819Y-101948809D02*
X248777676Y-102044047D01*
X248777676Y-102044047D02*
X248872914Y-102139285D01*
X248872914Y-102139285D02*
X248920533Y-102234523D01*
D12*
X212540595Y-110587419D02*
X212540595Y-111396942D01*
X212540595Y-111396942D02*
X212588214Y-111492180D01*
X212588214Y-111492180D02*
X212635833Y-111539800D01*
X212635833Y-111539800D02*
X212731071Y-111587419D01*
X212731071Y-111587419D02*
X212921547Y-111587419D01*
X212921547Y-111587419D02*
X213016785Y-111539800D01*
X213016785Y-111539800D02*
X213064404Y-111492180D01*
X213064404Y-111492180D02*
X213112023Y-111396942D01*
X213112023Y-111396942D02*
X213112023Y-110587419D01*
X213540595Y-110682657D02*
X213588214Y-110635038D01*
X213588214Y-110635038D02*
X213683452Y-110587419D01*
X213683452Y-110587419D02*
X213921547Y-110587419D01*
X213921547Y-110587419D02*
X214016785Y-110635038D01*
X214016785Y-110635038D02*
X214064404Y-110682657D01*
X214064404Y-110682657D02*
X214112023Y-110777895D01*
X214112023Y-110777895D02*
X214112023Y-110873133D01*
X214112023Y-110873133D02*
X214064404Y-111015990D01*
X214064404Y-111015990D02*
X213492976Y-111587419D01*
X213492976Y-111587419D02*
X214112023Y-111587419D01*
D11*
X208772080Y-127052857D02*
X208819700Y-127100476D01*
X208819700Y-127100476D02*
X208867319Y-127243333D01*
X208867319Y-127243333D02*
X208867319Y-127338571D01*
X208867319Y-127338571D02*
X208819700Y-127481428D01*
X208819700Y-127481428D02*
X208724461Y-127576666D01*
X208724461Y-127576666D02*
X208629223Y-127624285D01*
X208629223Y-127624285D02*
X208438747Y-127671904D01*
X208438747Y-127671904D02*
X208295890Y-127671904D01*
X208295890Y-127671904D02*
X208105414Y-127624285D01*
X208105414Y-127624285D02*
X208010176Y-127576666D01*
X208010176Y-127576666D02*
X207914938Y-127481428D01*
X207914938Y-127481428D02*
X207867319Y-127338571D01*
X207867319Y-127338571D02*
X207867319Y-127243333D01*
X207867319Y-127243333D02*
X207914938Y-127100476D01*
X207914938Y-127100476D02*
X207962557Y-127052857D01*
X208867319Y-126100476D02*
X208867319Y-126671904D01*
X208867319Y-126386190D02*
X207867319Y-126386190D01*
X207867319Y-126386190D02*
X208010176Y-126481428D01*
X208010176Y-126481428D02*
X208105414Y-126576666D01*
X208105414Y-126576666D02*
X208153033Y-126671904D01*
X208200652Y-125243333D02*
X208867319Y-125243333D01*
X207819700Y-125481428D02*
X208533985Y-125719523D01*
X208533985Y-125719523D02*
X208533985Y-125100476D01*
X262209642Y-142444819D02*
X261876309Y-141968628D01*
X261638214Y-142444819D02*
X261638214Y-141444819D01*
X261638214Y-141444819D02*
X262019166Y-141444819D01*
X262019166Y-141444819D02*
X262114404Y-141492438D01*
X262114404Y-141492438D02*
X262162023Y-141540057D01*
X262162023Y-141540057D02*
X262209642Y-141635295D01*
X262209642Y-141635295D02*
X262209642Y-141778152D01*
X262209642Y-141778152D02*
X262162023Y-141873390D01*
X262162023Y-141873390D02*
X262114404Y-141921009D01*
X262114404Y-141921009D02*
X262019166Y-141968628D01*
X262019166Y-141968628D02*
X261638214Y-141968628D01*
X263162023Y-142444819D02*
X262590595Y-142444819D01*
X262876309Y-142444819D02*
X262876309Y-141444819D01*
X262876309Y-141444819D02*
X262781071Y-141587676D01*
X262781071Y-141587676D02*
X262685833Y-141682914D01*
X262685833Y-141682914D02*
X262590595Y-141730533D01*
X264019166Y-141778152D02*
X264019166Y-142444819D01*
X263781071Y-141397200D02*
X263542976Y-142111485D01*
X263542976Y-142111485D02*
X264162023Y-142111485D01*
X245234819Y-109891666D02*
X245234819Y-110367856D01*
X245234819Y-110367856D02*
X244234819Y-110367856D01*
X244330057Y-109605951D02*
X244282438Y-109558332D01*
X244282438Y-109558332D02*
X244234819Y-109463094D01*
X244234819Y-109463094D02*
X244234819Y-109224999D01*
X244234819Y-109224999D02*
X244282438Y-109129761D01*
X244282438Y-109129761D02*
X244330057Y-109082142D01*
X244330057Y-109082142D02*
X244425295Y-109034523D01*
X244425295Y-109034523D02*
X244520533Y-109034523D01*
X244520533Y-109034523D02*
X244663390Y-109082142D01*
X244663390Y-109082142D02*
X245234819Y-109653570D01*
X245234819Y-109653570D02*
X245234819Y-109034523D01*
X203895833Y-139289580D02*
X203848214Y-139337200D01*
X203848214Y-139337200D02*
X203705357Y-139384819D01*
X203705357Y-139384819D02*
X203610119Y-139384819D01*
X203610119Y-139384819D02*
X203467262Y-139337200D01*
X203467262Y-139337200D02*
X203372024Y-139241961D01*
X203372024Y-139241961D02*
X203324405Y-139146723D01*
X203324405Y-139146723D02*
X203276786Y-138956247D01*
X203276786Y-138956247D02*
X203276786Y-138813390D01*
X203276786Y-138813390D02*
X203324405Y-138622914D01*
X203324405Y-138622914D02*
X203372024Y-138527676D01*
X203372024Y-138527676D02*
X203467262Y-138432438D01*
X203467262Y-138432438D02*
X203610119Y-138384819D01*
X203610119Y-138384819D02*
X203705357Y-138384819D01*
X203705357Y-138384819D02*
X203848214Y-138432438D01*
X203848214Y-138432438D02*
X203895833Y-138480057D01*
X204800595Y-138384819D02*
X204324405Y-138384819D01*
X204324405Y-138384819D02*
X204276786Y-138861009D01*
X204276786Y-138861009D02*
X204324405Y-138813390D01*
X204324405Y-138813390D02*
X204419643Y-138765771D01*
X204419643Y-138765771D02*
X204657738Y-138765771D01*
X204657738Y-138765771D02*
X204752976Y-138813390D01*
X204752976Y-138813390D02*
X204800595Y-138861009D01*
X204800595Y-138861009D02*
X204848214Y-138956247D01*
X204848214Y-138956247D02*
X204848214Y-139194342D01*
X204848214Y-139194342D02*
X204800595Y-139289580D01*
X204800595Y-139289580D02*
X204752976Y-139337200D01*
X204752976Y-139337200D02*
X204657738Y-139384819D01*
X204657738Y-139384819D02*
X204419643Y-139384819D01*
X204419643Y-139384819D02*
X204324405Y-139337200D01*
X204324405Y-139337200D02*
X204276786Y-139289580D01*
X205905833Y-126904819D02*
X205572500Y-126428628D01*
X205334405Y-126904819D02*
X205334405Y-125904819D01*
X205334405Y-125904819D02*
X205715357Y-125904819D01*
X205715357Y-125904819D02*
X205810595Y-125952438D01*
X205810595Y-125952438D02*
X205858214Y-126000057D01*
X205858214Y-126000057D02*
X205905833Y-126095295D01*
X205905833Y-126095295D02*
X205905833Y-126238152D01*
X205905833Y-126238152D02*
X205858214Y-126333390D01*
X205858214Y-126333390D02*
X205810595Y-126381009D01*
X205810595Y-126381009D02*
X205715357Y-126428628D01*
X205715357Y-126428628D02*
X205334405Y-126428628D01*
X206286786Y-126000057D02*
X206334405Y-125952438D01*
X206334405Y-125952438D02*
X206429643Y-125904819D01*
X206429643Y-125904819D02*
X206667738Y-125904819D01*
X206667738Y-125904819D02*
X206762976Y-125952438D01*
X206762976Y-125952438D02*
X206810595Y-126000057D01*
X206810595Y-126000057D02*
X206858214Y-126095295D01*
X206858214Y-126095295D02*
X206858214Y-126190533D01*
X206858214Y-126190533D02*
X206810595Y-126333390D01*
X206810595Y-126333390D02*
X206239167Y-126904819D01*
X206239167Y-126904819D02*
X206858214Y-126904819D01*
X206539642Y-136499580D02*
X206492023Y-136547200D01*
X206492023Y-136547200D02*
X206349166Y-136594819D01*
X206349166Y-136594819D02*
X206253928Y-136594819D01*
X206253928Y-136594819D02*
X206111071Y-136547200D01*
X206111071Y-136547200D02*
X206015833Y-136451961D01*
X206015833Y-136451961D02*
X205968214Y-136356723D01*
X205968214Y-136356723D02*
X205920595Y-136166247D01*
X205920595Y-136166247D02*
X205920595Y-136023390D01*
X205920595Y-136023390D02*
X205968214Y-135832914D01*
X205968214Y-135832914D02*
X206015833Y-135737676D01*
X206015833Y-135737676D02*
X206111071Y-135642438D01*
X206111071Y-135642438D02*
X206253928Y-135594819D01*
X206253928Y-135594819D02*
X206349166Y-135594819D01*
X206349166Y-135594819D02*
X206492023Y-135642438D01*
X206492023Y-135642438D02*
X206539642Y-135690057D01*
X207492023Y-136594819D02*
X206920595Y-136594819D01*
X207206309Y-136594819D02*
X207206309Y-135594819D01*
X207206309Y-135594819D02*
X207111071Y-135737676D01*
X207111071Y-135737676D02*
X207015833Y-135832914D01*
X207015833Y-135832914D02*
X206920595Y-135880533D01*
X207825357Y-135594819D02*
X208444404Y-135594819D01*
X208444404Y-135594819D02*
X208111071Y-135975771D01*
X208111071Y-135975771D02*
X208253928Y-135975771D01*
X208253928Y-135975771D02*
X208349166Y-136023390D01*
X208349166Y-136023390D02*
X208396785Y-136071009D01*
X208396785Y-136071009D02*
X208444404Y-136166247D01*
X208444404Y-136166247D02*
X208444404Y-136404342D01*
X208444404Y-136404342D02*
X208396785Y-136499580D01*
X208396785Y-136499580D02*
X208349166Y-136547200D01*
X208349166Y-136547200D02*
X208253928Y-136594819D01*
X208253928Y-136594819D02*
X207968214Y-136594819D01*
X207968214Y-136594819D02*
X207872976Y-136547200D01*
X207872976Y-136547200D02*
X207825357Y-136499580D01*
X201759642Y-122789580D02*
X201712023Y-122837200D01*
X201712023Y-122837200D02*
X201569166Y-122884819D01*
X201569166Y-122884819D02*
X201473928Y-122884819D01*
X201473928Y-122884819D02*
X201331071Y-122837200D01*
X201331071Y-122837200D02*
X201235833Y-122741961D01*
X201235833Y-122741961D02*
X201188214Y-122646723D01*
X201188214Y-122646723D02*
X201140595Y-122456247D01*
X201140595Y-122456247D02*
X201140595Y-122313390D01*
X201140595Y-122313390D02*
X201188214Y-122122914D01*
X201188214Y-122122914D02*
X201235833Y-122027676D01*
X201235833Y-122027676D02*
X201331071Y-121932438D01*
X201331071Y-121932438D02*
X201473928Y-121884819D01*
X201473928Y-121884819D02*
X201569166Y-121884819D01*
X201569166Y-121884819D02*
X201712023Y-121932438D01*
X201712023Y-121932438D02*
X201759642Y-121980057D01*
X202712023Y-122884819D02*
X202140595Y-122884819D01*
X202426309Y-122884819D02*
X202426309Y-121884819D01*
X202426309Y-121884819D02*
X202331071Y-122027676D01*
X202331071Y-122027676D02*
X202235833Y-122122914D01*
X202235833Y-122122914D02*
X202140595Y-122170533D01*
X203569166Y-121884819D02*
X203378690Y-121884819D01*
X203378690Y-121884819D02*
X203283452Y-121932438D01*
X203283452Y-121932438D02*
X203235833Y-121980057D01*
X203235833Y-121980057D02*
X203140595Y-122122914D01*
X203140595Y-122122914D02*
X203092976Y-122313390D01*
X203092976Y-122313390D02*
X203092976Y-122694342D01*
X203092976Y-122694342D02*
X203140595Y-122789580D01*
X203140595Y-122789580D02*
X203188214Y-122837200D01*
X203188214Y-122837200D02*
X203283452Y-122884819D01*
X203283452Y-122884819D02*
X203473928Y-122884819D01*
X203473928Y-122884819D02*
X203569166Y-122837200D01*
X203569166Y-122837200D02*
X203616785Y-122789580D01*
X203616785Y-122789580D02*
X203664404Y-122694342D01*
X203664404Y-122694342D02*
X203664404Y-122456247D01*
X203664404Y-122456247D02*
X203616785Y-122361009D01*
X203616785Y-122361009D02*
X203569166Y-122313390D01*
X203569166Y-122313390D02*
X203473928Y-122265771D01*
X203473928Y-122265771D02*
X203283452Y-122265771D01*
X203283452Y-122265771D02*
X203188214Y-122313390D01*
X203188214Y-122313390D02*
X203140595Y-122361009D01*
X203140595Y-122361009D02*
X203092976Y-122456247D01*
X158769642Y-152704819D02*
X158436309Y-152228628D01*
X158198214Y-152704819D02*
X158198214Y-151704819D01*
X158198214Y-151704819D02*
X158579166Y-151704819D01*
X158579166Y-151704819D02*
X158674404Y-151752438D01*
X158674404Y-151752438D02*
X158722023Y-151800057D01*
X158722023Y-151800057D02*
X158769642Y-151895295D01*
X158769642Y-151895295D02*
X158769642Y-152038152D01*
X158769642Y-152038152D02*
X158722023Y-152133390D01*
X158722023Y-152133390D02*
X158674404Y-152181009D01*
X158674404Y-152181009D02*
X158579166Y-152228628D01*
X158579166Y-152228628D02*
X158198214Y-152228628D01*
X159150595Y-151800057D02*
X159198214Y-151752438D01*
X159198214Y-151752438D02*
X159293452Y-151704819D01*
X159293452Y-151704819D02*
X159531547Y-151704819D01*
X159531547Y-151704819D02*
X159626785Y-151752438D01*
X159626785Y-151752438D02*
X159674404Y-151800057D01*
X159674404Y-151800057D02*
X159722023Y-151895295D01*
X159722023Y-151895295D02*
X159722023Y-151990533D01*
X159722023Y-151990533D02*
X159674404Y-152133390D01*
X159674404Y-152133390D02*
X159102976Y-152704819D01*
X159102976Y-152704819D02*
X159722023Y-152704819D01*
X160055357Y-151704819D02*
X160674404Y-151704819D01*
X160674404Y-151704819D02*
X160341071Y-152085771D01*
X160341071Y-152085771D02*
X160483928Y-152085771D01*
X160483928Y-152085771D02*
X160579166Y-152133390D01*
X160579166Y-152133390D02*
X160626785Y-152181009D01*
X160626785Y-152181009D02*
X160674404Y-152276247D01*
X160674404Y-152276247D02*
X160674404Y-152514342D01*
X160674404Y-152514342D02*
X160626785Y-152609580D01*
X160626785Y-152609580D02*
X160579166Y-152657200D01*
X160579166Y-152657200D02*
X160483928Y-152704819D01*
X160483928Y-152704819D02*
X160198214Y-152704819D01*
X160198214Y-152704819D02*
X160102976Y-152657200D01*
X160102976Y-152657200D02*
X160055357Y-152609580D01*
X206499642Y-116539580D02*
X206452023Y-116587200D01*
X206452023Y-116587200D02*
X206309166Y-116634819D01*
X206309166Y-116634819D02*
X206213928Y-116634819D01*
X206213928Y-116634819D02*
X206071071Y-116587200D01*
X206071071Y-116587200D02*
X205975833Y-116491961D01*
X205975833Y-116491961D02*
X205928214Y-116396723D01*
X205928214Y-116396723D02*
X205880595Y-116206247D01*
X205880595Y-116206247D02*
X205880595Y-116063390D01*
X205880595Y-116063390D02*
X205928214Y-115872914D01*
X205928214Y-115872914D02*
X205975833Y-115777676D01*
X205975833Y-115777676D02*
X206071071Y-115682438D01*
X206071071Y-115682438D02*
X206213928Y-115634819D01*
X206213928Y-115634819D02*
X206309166Y-115634819D01*
X206309166Y-115634819D02*
X206452023Y-115682438D01*
X206452023Y-115682438D02*
X206499642Y-115730057D01*
X206832976Y-115634819D02*
X207452023Y-115634819D01*
X207452023Y-115634819D02*
X207118690Y-116015771D01*
X207118690Y-116015771D02*
X207261547Y-116015771D01*
X207261547Y-116015771D02*
X207356785Y-116063390D01*
X207356785Y-116063390D02*
X207404404Y-116111009D01*
X207404404Y-116111009D02*
X207452023Y-116206247D01*
X207452023Y-116206247D02*
X207452023Y-116444342D01*
X207452023Y-116444342D02*
X207404404Y-116539580D01*
X207404404Y-116539580D02*
X207356785Y-116587200D01*
X207356785Y-116587200D02*
X207261547Y-116634819D01*
X207261547Y-116634819D02*
X206975833Y-116634819D01*
X206975833Y-116634819D02*
X206880595Y-116587200D01*
X206880595Y-116587200D02*
X206832976Y-116539580D01*
X207785357Y-115634819D02*
X208452023Y-115634819D01*
X208452023Y-115634819D02*
X208023452Y-116634819D01*
X239727319Y-144892857D02*
X239251128Y-145226190D01*
X239727319Y-145464285D02*
X238727319Y-145464285D01*
X238727319Y-145464285D02*
X238727319Y-145083333D01*
X238727319Y-145083333D02*
X238774938Y-144988095D01*
X238774938Y-144988095D02*
X238822557Y-144940476D01*
X238822557Y-144940476D02*
X238917795Y-144892857D01*
X238917795Y-144892857D02*
X239060652Y-144892857D01*
X239060652Y-144892857D02*
X239155890Y-144940476D01*
X239155890Y-144940476D02*
X239203509Y-144988095D01*
X239203509Y-144988095D02*
X239251128Y-145083333D01*
X239251128Y-145083333D02*
X239251128Y-145464285D01*
X239727319Y-143940476D02*
X239727319Y-144511904D01*
X239727319Y-144226190D02*
X238727319Y-144226190D01*
X238727319Y-144226190D02*
X238870176Y-144321428D01*
X238870176Y-144321428D02*
X238965414Y-144416666D01*
X238965414Y-144416666D02*
X239013033Y-144511904D01*
X238727319Y-143607142D02*
X238727319Y-142940476D01*
X238727319Y-142940476D02*
X239727319Y-143369047D01*
X193989642Y-116549580D02*
X193942023Y-116597200D01*
X193942023Y-116597200D02*
X193799166Y-116644819D01*
X193799166Y-116644819D02*
X193703928Y-116644819D01*
X193703928Y-116644819D02*
X193561071Y-116597200D01*
X193561071Y-116597200D02*
X193465833Y-116501961D01*
X193465833Y-116501961D02*
X193418214Y-116406723D01*
X193418214Y-116406723D02*
X193370595Y-116216247D01*
X193370595Y-116216247D02*
X193370595Y-116073390D01*
X193370595Y-116073390D02*
X193418214Y-115882914D01*
X193418214Y-115882914D02*
X193465833Y-115787676D01*
X193465833Y-115787676D02*
X193561071Y-115692438D01*
X193561071Y-115692438D02*
X193703928Y-115644819D01*
X193703928Y-115644819D02*
X193799166Y-115644819D01*
X193799166Y-115644819D02*
X193942023Y-115692438D01*
X193942023Y-115692438D02*
X193989642Y-115740057D01*
X194322976Y-115644819D02*
X194942023Y-115644819D01*
X194942023Y-115644819D02*
X194608690Y-116025771D01*
X194608690Y-116025771D02*
X194751547Y-116025771D01*
X194751547Y-116025771D02*
X194846785Y-116073390D01*
X194846785Y-116073390D02*
X194894404Y-116121009D01*
X194894404Y-116121009D02*
X194942023Y-116216247D01*
X194942023Y-116216247D02*
X194942023Y-116454342D01*
X194942023Y-116454342D02*
X194894404Y-116549580D01*
X194894404Y-116549580D02*
X194846785Y-116597200D01*
X194846785Y-116597200D02*
X194751547Y-116644819D01*
X194751547Y-116644819D02*
X194465833Y-116644819D01*
X194465833Y-116644819D02*
X194370595Y-116597200D01*
X194370595Y-116597200D02*
X194322976Y-116549580D01*
X195846785Y-115644819D02*
X195370595Y-115644819D01*
X195370595Y-115644819D02*
X195322976Y-116121009D01*
X195322976Y-116121009D02*
X195370595Y-116073390D01*
X195370595Y-116073390D02*
X195465833Y-116025771D01*
X195465833Y-116025771D02*
X195703928Y-116025771D01*
X195703928Y-116025771D02*
X195799166Y-116073390D01*
X195799166Y-116073390D02*
X195846785Y-116121009D01*
X195846785Y-116121009D02*
X195894404Y-116216247D01*
X195894404Y-116216247D02*
X195894404Y-116454342D01*
X195894404Y-116454342D02*
X195846785Y-116549580D01*
X195846785Y-116549580D02*
X195799166Y-116597200D01*
X195799166Y-116597200D02*
X195703928Y-116644819D01*
X195703928Y-116644819D02*
X195465833Y-116644819D01*
X195465833Y-116644819D02*
X195370595Y-116597200D01*
X195370595Y-116597200D02*
X195322976Y-116549580D01*
X256787142Y-113604580D02*
X256739523Y-113652200D01*
X256739523Y-113652200D02*
X256596666Y-113699819D01*
X256596666Y-113699819D02*
X256501428Y-113699819D01*
X256501428Y-113699819D02*
X256358571Y-113652200D01*
X256358571Y-113652200D02*
X256263333Y-113556961D01*
X256263333Y-113556961D02*
X256215714Y-113461723D01*
X256215714Y-113461723D02*
X256168095Y-113271247D01*
X256168095Y-113271247D02*
X256168095Y-113128390D01*
X256168095Y-113128390D02*
X256215714Y-112937914D01*
X256215714Y-112937914D02*
X256263333Y-112842676D01*
X256263333Y-112842676D02*
X256358571Y-112747438D01*
X256358571Y-112747438D02*
X256501428Y-112699819D01*
X256501428Y-112699819D02*
X256596666Y-112699819D01*
X256596666Y-112699819D02*
X256739523Y-112747438D01*
X256739523Y-112747438D02*
X256787142Y-112795057D01*
X257739523Y-113699819D02*
X257168095Y-113699819D01*
X257453809Y-113699819D02*
X257453809Y-112699819D01*
X257453809Y-112699819D02*
X257358571Y-112842676D01*
X257358571Y-112842676D02*
X257263333Y-112937914D01*
X257263333Y-112937914D02*
X257168095Y-112985533D01*
X258215714Y-113699819D02*
X258406190Y-113699819D01*
X258406190Y-113699819D02*
X258501428Y-113652200D01*
X258501428Y-113652200D02*
X258549047Y-113604580D01*
X258549047Y-113604580D02*
X258644285Y-113461723D01*
X258644285Y-113461723D02*
X258691904Y-113271247D01*
X258691904Y-113271247D02*
X258691904Y-112890295D01*
X258691904Y-112890295D02*
X258644285Y-112795057D01*
X258644285Y-112795057D02*
X258596666Y-112747438D01*
X258596666Y-112747438D02*
X258501428Y-112699819D01*
X258501428Y-112699819D02*
X258310952Y-112699819D01*
X258310952Y-112699819D02*
X258215714Y-112747438D01*
X258215714Y-112747438D02*
X258168095Y-112795057D01*
X258168095Y-112795057D02*
X258120476Y-112890295D01*
X258120476Y-112890295D02*
X258120476Y-113128390D01*
X258120476Y-113128390D02*
X258168095Y-113223628D01*
X258168095Y-113223628D02*
X258215714Y-113271247D01*
X258215714Y-113271247D02*
X258310952Y-113318866D01*
X258310952Y-113318866D02*
X258501428Y-113318866D01*
X258501428Y-113318866D02*
X258596666Y-113271247D01*
X258596666Y-113271247D02*
X258644285Y-113223628D01*
X258644285Y-113223628D02*
X258691904Y-113128390D01*
X162679167Y-130522441D02*
X162822024Y-130570060D01*
X162822024Y-130570060D02*
X163060119Y-130570060D01*
X163060119Y-130570060D02*
X163155357Y-130522441D01*
X163155357Y-130522441D02*
X163202976Y-130474821D01*
X163202976Y-130474821D02*
X163250595Y-130379583D01*
X163250595Y-130379583D02*
X163250595Y-130284345D01*
X163250595Y-130284345D02*
X163202976Y-130189107D01*
X163202976Y-130189107D02*
X163155357Y-130141488D01*
X163155357Y-130141488D02*
X163060119Y-130093869D01*
X163060119Y-130093869D02*
X162869643Y-130046250D01*
X162869643Y-130046250D02*
X162774405Y-129998631D01*
X162774405Y-129998631D02*
X162726786Y-129951012D01*
X162726786Y-129951012D02*
X162679167Y-129855774D01*
X162679167Y-129855774D02*
X162679167Y-129760536D01*
X162679167Y-129760536D02*
X162726786Y-129665298D01*
X162726786Y-129665298D02*
X162774405Y-129617679D01*
X162774405Y-129617679D02*
X162869643Y-129570060D01*
X162869643Y-129570060D02*
X163107738Y-129570060D01*
X163107738Y-129570060D02*
X163250595Y-129617679D01*
X163583929Y-129570060D02*
X163822024Y-130570060D01*
X163822024Y-130570060D02*
X164012500Y-129855774D01*
X164012500Y-129855774D02*
X164202976Y-130570060D01*
X164202976Y-130570060D02*
X164441072Y-129570060D01*
X164774405Y-129665298D02*
X164822024Y-129617679D01*
X164822024Y-129617679D02*
X164917262Y-129570060D01*
X164917262Y-129570060D02*
X165155357Y-129570060D01*
X165155357Y-129570060D02*
X165250595Y-129617679D01*
X165250595Y-129617679D02*
X165298214Y-129665298D01*
X165298214Y-129665298D02*
X165345833Y-129760536D01*
X165345833Y-129760536D02*
X165345833Y-129855774D01*
X165345833Y-129855774D02*
X165298214Y-129998631D01*
X165298214Y-129998631D02*
X164726786Y-130570060D01*
X164726786Y-130570060D02*
X165345833Y-130570060D01*
D12*
X245424405Y-139877419D02*
X245424405Y-138877419D01*
X245424405Y-138877419D02*
X245662500Y-138877419D01*
X245662500Y-138877419D02*
X245805357Y-138925038D01*
X245805357Y-138925038D02*
X245900595Y-139020276D01*
X245900595Y-139020276D02*
X245948214Y-139115514D01*
X245948214Y-139115514D02*
X245995833Y-139305990D01*
X245995833Y-139305990D02*
X245995833Y-139448847D01*
X245995833Y-139448847D02*
X245948214Y-139639323D01*
X245948214Y-139639323D02*
X245900595Y-139734561D01*
X245900595Y-139734561D02*
X245805357Y-139829800D01*
X245805357Y-139829800D02*
X245662500Y-139877419D01*
X245662500Y-139877419D02*
X245424405Y-139877419D01*
X246376786Y-138972657D02*
X246424405Y-138925038D01*
X246424405Y-138925038D02*
X246519643Y-138877419D01*
X246519643Y-138877419D02*
X246757738Y-138877419D01*
X246757738Y-138877419D02*
X246852976Y-138925038D01*
X246852976Y-138925038D02*
X246900595Y-138972657D01*
X246900595Y-138972657D02*
X246948214Y-139067895D01*
X246948214Y-139067895D02*
X246948214Y-139163133D01*
X246948214Y-139163133D02*
X246900595Y-139305990D01*
X246900595Y-139305990D02*
X246329167Y-139877419D01*
X246329167Y-139877419D02*
X246948214Y-139877419D01*
D11*
X244912142Y-103984580D02*
X244864523Y-104032200D01*
X244864523Y-104032200D02*
X244721666Y-104079819D01*
X244721666Y-104079819D02*
X244626428Y-104079819D01*
X244626428Y-104079819D02*
X244483571Y-104032200D01*
X244483571Y-104032200D02*
X244388333Y-103936961D01*
X244388333Y-103936961D02*
X244340714Y-103841723D01*
X244340714Y-103841723D02*
X244293095Y-103651247D01*
X244293095Y-103651247D02*
X244293095Y-103508390D01*
X244293095Y-103508390D02*
X244340714Y-103317914D01*
X244340714Y-103317914D02*
X244388333Y-103222676D01*
X244388333Y-103222676D02*
X244483571Y-103127438D01*
X244483571Y-103127438D02*
X244626428Y-103079819D01*
X244626428Y-103079819D02*
X244721666Y-103079819D01*
X244721666Y-103079819D02*
X244864523Y-103127438D01*
X244864523Y-103127438D02*
X244912142Y-103175057D01*
X245293095Y-103175057D02*
X245340714Y-103127438D01*
X245340714Y-103127438D02*
X245435952Y-103079819D01*
X245435952Y-103079819D02*
X245674047Y-103079819D01*
X245674047Y-103079819D02*
X245769285Y-103127438D01*
X245769285Y-103127438D02*
X245816904Y-103175057D01*
X245816904Y-103175057D02*
X245864523Y-103270295D01*
X245864523Y-103270295D02*
X245864523Y-103365533D01*
X245864523Y-103365533D02*
X245816904Y-103508390D01*
X245816904Y-103508390D02*
X245245476Y-104079819D01*
X245245476Y-104079819D02*
X245864523Y-104079819D01*
X246483571Y-103079819D02*
X246578809Y-103079819D01*
X246578809Y-103079819D02*
X246674047Y-103127438D01*
X246674047Y-103127438D02*
X246721666Y-103175057D01*
X246721666Y-103175057D02*
X246769285Y-103270295D01*
X246769285Y-103270295D02*
X246816904Y-103460771D01*
X246816904Y-103460771D02*
X246816904Y-103698866D01*
X246816904Y-103698866D02*
X246769285Y-103889342D01*
X246769285Y-103889342D02*
X246721666Y-103984580D01*
X246721666Y-103984580D02*
X246674047Y-104032200D01*
X246674047Y-104032200D02*
X246578809Y-104079819D01*
X246578809Y-104079819D02*
X246483571Y-104079819D01*
X246483571Y-104079819D02*
X246388333Y-104032200D01*
X246388333Y-104032200D02*
X246340714Y-103984580D01*
X246340714Y-103984580D02*
X246293095Y-103889342D01*
X246293095Y-103889342D02*
X246245476Y-103698866D01*
X246245476Y-103698866D02*
X246245476Y-103460771D01*
X246245476Y-103460771D02*
X246293095Y-103270295D01*
X246293095Y-103270295D02*
X246340714Y-103175057D01*
X246340714Y-103175057D02*
X246388333Y-103127438D01*
X246388333Y-103127438D02*
X246483571Y-103079819D01*
X191555833Y-146419580D02*
X191508214Y-146467200D01*
X191508214Y-146467200D02*
X191365357Y-146514819D01*
X191365357Y-146514819D02*
X191270119Y-146514819D01*
X191270119Y-146514819D02*
X191127262Y-146467200D01*
X191127262Y-146467200D02*
X191032024Y-146371961D01*
X191032024Y-146371961D02*
X190984405Y-146276723D01*
X190984405Y-146276723D02*
X190936786Y-146086247D01*
X190936786Y-146086247D02*
X190936786Y-145943390D01*
X190936786Y-145943390D02*
X190984405Y-145752914D01*
X190984405Y-145752914D02*
X191032024Y-145657676D01*
X191032024Y-145657676D02*
X191127262Y-145562438D01*
X191127262Y-145562438D02*
X191270119Y-145514819D01*
X191270119Y-145514819D02*
X191365357Y-145514819D01*
X191365357Y-145514819D02*
X191508214Y-145562438D01*
X191508214Y-145562438D02*
X191555833Y-145610057D01*
X191936786Y-145610057D02*
X191984405Y-145562438D01*
X191984405Y-145562438D02*
X192079643Y-145514819D01*
X192079643Y-145514819D02*
X192317738Y-145514819D01*
X192317738Y-145514819D02*
X192412976Y-145562438D01*
X192412976Y-145562438D02*
X192460595Y-145610057D01*
X192460595Y-145610057D02*
X192508214Y-145705295D01*
X192508214Y-145705295D02*
X192508214Y-145800533D01*
X192508214Y-145800533D02*
X192460595Y-145943390D01*
X192460595Y-145943390D02*
X191889167Y-146514819D01*
X191889167Y-146514819D02*
X192508214Y-146514819D01*
X236172319Y-127857857D02*
X235696128Y-128191190D01*
X236172319Y-128429285D02*
X235172319Y-128429285D01*
X235172319Y-128429285D02*
X235172319Y-128048333D01*
X235172319Y-128048333D02*
X235219938Y-127953095D01*
X235219938Y-127953095D02*
X235267557Y-127905476D01*
X235267557Y-127905476D02*
X235362795Y-127857857D01*
X235362795Y-127857857D02*
X235505652Y-127857857D01*
X235505652Y-127857857D02*
X235600890Y-127905476D01*
X235600890Y-127905476D02*
X235648509Y-127953095D01*
X235648509Y-127953095D02*
X235696128Y-128048333D01*
X235696128Y-128048333D02*
X235696128Y-128429285D01*
X235267557Y-127476904D02*
X235219938Y-127429285D01*
X235219938Y-127429285D02*
X235172319Y-127334047D01*
X235172319Y-127334047D02*
X235172319Y-127095952D01*
X235172319Y-127095952D02*
X235219938Y-127000714D01*
X235219938Y-127000714D02*
X235267557Y-126953095D01*
X235267557Y-126953095D02*
X235362795Y-126905476D01*
X235362795Y-126905476D02*
X235458033Y-126905476D01*
X235458033Y-126905476D02*
X235600890Y-126953095D01*
X235600890Y-126953095D02*
X236172319Y-127524523D01*
X236172319Y-127524523D02*
X236172319Y-126905476D01*
X235172319Y-126048333D02*
X235172319Y-126238809D01*
X235172319Y-126238809D02*
X235219938Y-126334047D01*
X235219938Y-126334047D02*
X235267557Y-126381666D01*
X235267557Y-126381666D02*
X235410414Y-126476904D01*
X235410414Y-126476904D02*
X235600890Y-126524523D01*
X235600890Y-126524523D02*
X235981842Y-126524523D01*
X235981842Y-126524523D02*
X236077080Y-126476904D01*
X236077080Y-126476904D02*
X236124700Y-126429285D01*
X236124700Y-126429285D02*
X236172319Y-126334047D01*
X236172319Y-126334047D02*
X236172319Y-126143571D01*
X236172319Y-126143571D02*
X236124700Y-126048333D01*
X236124700Y-126048333D02*
X236077080Y-126000714D01*
X236077080Y-126000714D02*
X235981842Y-125953095D01*
X235981842Y-125953095D02*
X235743747Y-125953095D01*
X235743747Y-125953095D02*
X235648509Y-126000714D01*
X235648509Y-126000714D02*
X235600890Y-126048333D01*
X235600890Y-126048333D02*
X235553271Y-126143571D01*
X235553271Y-126143571D02*
X235553271Y-126334047D01*
X235553271Y-126334047D02*
X235600890Y-126429285D01*
X235600890Y-126429285D02*
X235648509Y-126476904D01*
X235648509Y-126476904D02*
X235743747Y-126524523D01*
X267980595Y-147594819D02*
X267980595Y-146594819D01*
X267980595Y-147071009D02*
X268552023Y-147071009D01*
X268552023Y-147594819D02*
X268552023Y-146594819D01*
X268932976Y-146594819D02*
X269552023Y-146594819D01*
X269552023Y-146594819D02*
X269218690Y-146975771D01*
X269218690Y-146975771D02*
X269361547Y-146975771D01*
X269361547Y-146975771D02*
X269456785Y-147023390D01*
X269456785Y-147023390D02*
X269504404Y-147071009D01*
X269504404Y-147071009D02*
X269552023Y-147166247D01*
X269552023Y-147166247D02*
X269552023Y-147404342D01*
X269552023Y-147404342D02*
X269504404Y-147499580D01*
X269504404Y-147499580D02*
X269456785Y-147547200D01*
X269456785Y-147547200D02*
X269361547Y-147594819D01*
X269361547Y-147594819D02*
X269075833Y-147594819D01*
X269075833Y-147594819D02*
X268980595Y-147547200D01*
X268980595Y-147547200D02*
X268932976Y-147499580D01*
X179560595Y-152804819D02*
X179560595Y-151804819D01*
X179560595Y-152281009D02*
X180132023Y-152281009D01*
X180132023Y-152804819D02*
X180132023Y-151804819D01*
X181036785Y-152138152D02*
X181036785Y-152804819D01*
X180798690Y-151757200D02*
X180560595Y-152471485D01*
X180560595Y-152471485D02*
X181179642Y-152471485D01*
X205879642Y-134329580D02*
X205832023Y-134377200D01*
X205832023Y-134377200D02*
X205689166Y-134424819D01*
X205689166Y-134424819D02*
X205593928Y-134424819D01*
X205593928Y-134424819D02*
X205451071Y-134377200D01*
X205451071Y-134377200D02*
X205355833Y-134281961D01*
X205355833Y-134281961D02*
X205308214Y-134186723D01*
X205308214Y-134186723D02*
X205260595Y-133996247D01*
X205260595Y-133996247D02*
X205260595Y-133853390D01*
X205260595Y-133853390D02*
X205308214Y-133662914D01*
X205308214Y-133662914D02*
X205355833Y-133567676D01*
X205355833Y-133567676D02*
X205451071Y-133472438D01*
X205451071Y-133472438D02*
X205593928Y-133424819D01*
X205593928Y-133424819D02*
X205689166Y-133424819D01*
X205689166Y-133424819D02*
X205832023Y-133472438D01*
X205832023Y-133472438D02*
X205879642Y-133520057D01*
X206832023Y-134424819D02*
X206260595Y-134424819D01*
X206546309Y-134424819D02*
X206546309Y-133424819D01*
X206546309Y-133424819D02*
X206451071Y-133567676D01*
X206451071Y-133567676D02*
X206355833Y-133662914D01*
X206355833Y-133662914D02*
X206260595Y-133710533D01*
X207784404Y-134424819D02*
X207212976Y-134424819D01*
X207498690Y-134424819D02*
X207498690Y-133424819D01*
X207498690Y-133424819D02*
X207403452Y-133567676D01*
X207403452Y-133567676D02*
X207308214Y-133662914D01*
X207308214Y-133662914D02*
X207212976Y-133710533D01*
X179390595Y-99654819D02*
X179390595Y-98654819D01*
X179390595Y-99131009D02*
X179962023Y-99131009D01*
X179962023Y-99654819D02*
X179962023Y-98654819D01*
X180962023Y-99654819D02*
X180390595Y-99654819D01*
X180676309Y-99654819D02*
X180676309Y-98654819D01*
X180676309Y-98654819D02*
X180581071Y-98797676D01*
X180581071Y-98797676D02*
X180485833Y-98892914D01*
X180485833Y-98892914D02*
X180390595Y-98940533D01*
X251182080Y-130630357D02*
X251229700Y-130677976D01*
X251229700Y-130677976D02*
X251277319Y-130820833D01*
X251277319Y-130820833D02*
X251277319Y-130916071D01*
X251277319Y-130916071D02*
X251229700Y-131058928D01*
X251229700Y-131058928D02*
X251134461Y-131154166D01*
X251134461Y-131154166D02*
X251039223Y-131201785D01*
X251039223Y-131201785D02*
X250848747Y-131249404D01*
X250848747Y-131249404D02*
X250705890Y-131249404D01*
X250705890Y-131249404D02*
X250515414Y-131201785D01*
X250515414Y-131201785D02*
X250420176Y-131154166D01*
X250420176Y-131154166D02*
X250324938Y-131058928D01*
X250324938Y-131058928D02*
X250277319Y-130916071D01*
X250277319Y-130916071D02*
X250277319Y-130820833D01*
X250277319Y-130820833D02*
X250324938Y-130677976D01*
X250324938Y-130677976D02*
X250372557Y-130630357D01*
X250372557Y-130249404D02*
X250324938Y-130201785D01*
X250324938Y-130201785D02*
X250277319Y-130106547D01*
X250277319Y-130106547D02*
X250277319Y-129868452D01*
X250277319Y-129868452D02*
X250324938Y-129773214D01*
X250324938Y-129773214D02*
X250372557Y-129725595D01*
X250372557Y-129725595D02*
X250467795Y-129677976D01*
X250467795Y-129677976D02*
X250563033Y-129677976D01*
X250563033Y-129677976D02*
X250705890Y-129725595D01*
X250705890Y-129725595D02*
X251277319Y-130297023D01*
X251277319Y-130297023D02*
X251277319Y-129677976D01*
X250610652Y-128820833D02*
X251277319Y-128820833D01*
X250229700Y-129058928D02*
X250943985Y-129297023D01*
X250943985Y-129297023D02*
X250943985Y-128677976D01*
X239202080Y-127602857D02*
X239249700Y-127650476D01*
X239249700Y-127650476D02*
X239297319Y-127793333D01*
X239297319Y-127793333D02*
X239297319Y-127888571D01*
X239297319Y-127888571D02*
X239249700Y-128031428D01*
X239249700Y-128031428D02*
X239154461Y-128126666D01*
X239154461Y-128126666D02*
X239059223Y-128174285D01*
X239059223Y-128174285D02*
X238868747Y-128221904D01*
X238868747Y-128221904D02*
X238725890Y-128221904D01*
X238725890Y-128221904D02*
X238535414Y-128174285D01*
X238535414Y-128174285D02*
X238440176Y-128126666D01*
X238440176Y-128126666D02*
X238344938Y-128031428D01*
X238344938Y-128031428D02*
X238297319Y-127888571D01*
X238297319Y-127888571D02*
X238297319Y-127793333D01*
X238297319Y-127793333D02*
X238344938Y-127650476D01*
X238344938Y-127650476D02*
X238392557Y-127602857D01*
X238392557Y-127221904D02*
X238344938Y-127174285D01*
X238344938Y-127174285D02*
X238297319Y-127079047D01*
X238297319Y-127079047D02*
X238297319Y-126840952D01*
X238297319Y-126840952D02*
X238344938Y-126745714D01*
X238344938Y-126745714D02*
X238392557Y-126698095D01*
X238392557Y-126698095D02*
X238487795Y-126650476D01*
X238487795Y-126650476D02*
X238583033Y-126650476D01*
X238583033Y-126650476D02*
X238725890Y-126698095D01*
X238725890Y-126698095D02*
X239297319Y-127269523D01*
X239297319Y-127269523D02*
X239297319Y-126650476D01*
X238297319Y-126317142D02*
X238297319Y-125698095D01*
X238297319Y-125698095D02*
X238678271Y-126031428D01*
X238678271Y-126031428D02*
X238678271Y-125888571D01*
X238678271Y-125888571D02*
X238725890Y-125793333D01*
X238725890Y-125793333D02*
X238773509Y-125745714D01*
X238773509Y-125745714D02*
X238868747Y-125698095D01*
X238868747Y-125698095D02*
X239106842Y-125698095D01*
X239106842Y-125698095D02*
X239202080Y-125745714D01*
X239202080Y-125745714D02*
X239249700Y-125793333D01*
X239249700Y-125793333D02*
X239297319Y-125888571D01*
X239297319Y-125888571D02*
X239297319Y-126174285D01*
X239297319Y-126174285D02*
X239249700Y-126269523D01*
X239249700Y-126269523D02*
X239202080Y-126317142D01*
X251150833Y-117429819D02*
X250817500Y-116953628D01*
X250579405Y-117429819D02*
X250579405Y-116429819D01*
X250579405Y-116429819D02*
X250960357Y-116429819D01*
X250960357Y-116429819D02*
X251055595Y-116477438D01*
X251055595Y-116477438D02*
X251103214Y-116525057D01*
X251103214Y-116525057D02*
X251150833Y-116620295D01*
X251150833Y-116620295D02*
X251150833Y-116763152D01*
X251150833Y-116763152D02*
X251103214Y-116858390D01*
X251103214Y-116858390D02*
X251055595Y-116906009D01*
X251055595Y-116906009D02*
X250960357Y-116953628D01*
X250960357Y-116953628D02*
X250579405Y-116953628D01*
X251627024Y-117429819D02*
X251817500Y-117429819D01*
X251817500Y-117429819D02*
X251912738Y-117382200D01*
X251912738Y-117382200D02*
X251960357Y-117334580D01*
X251960357Y-117334580D02*
X252055595Y-117191723D01*
X252055595Y-117191723D02*
X252103214Y-117001247D01*
X252103214Y-117001247D02*
X252103214Y-116620295D01*
X252103214Y-116620295D02*
X252055595Y-116525057D01*
X252055595Y-116525057D02*
X252007976Y-116477438D01*
X252007976Y-116477438D02*
X251912738Y-116429819D01*
X251912738Y-116429819D02*
X251722262Y-116429819D01*
X251722262Y-116429819D02*
X251627024Y-116477438D01*
X251627024Y-116477438D02*
X251579405Y-116525057D01*
X251579405Y-116525057D02*
X251531786Y-116620295D01*
X251531786Y-116620295D02*
X251531786Y-116858390D01*
X251531786Y-116858390D02*
X251579405Y-116953628D01*
X251579405Y-116953628D02*
X251627024Y-117001247D01*
X251627024Y-117001247D02*
X251722262Y-117048866D01*
X251722262Y-117048866D02*
X251912738Y-117048866D01*
X251912738Y-117048866D02*
X252007976Y-117001247D01*
X252007976Y-117001247D02*
X252055595Y-116953628D01*
X252055595Y-116953628D02*
X252103214Y-116858390D01*
X259697319Y-129573213D02*
X259697319Y-129001785D01*
X260697319Y-129287499D02*
X259697319Y-129287499D01*
X260697319Y-128668451D02*
X259697319Y-128668451D01*
X260173509Y-128668451D02*
X260173509Y-128097023D01*
X260697319Y-128097023D02*
X259697319Y-128097023D01*
X260697319Y-127097023D02*
X260697319Y-127668451D01*
X260697319Y-127382737D02*
X259697319Y-127382737D01*
X259697319Y-127382737D02*
X259840176Y-127477975D01*
X259840176Y-127477975D02*
X259935414Y-127573213D01*
X259935414Y-127573213D02*
X259983033Y-127668451D01*
X243574642Y-132509580D02*
X243527023Y-132557200D01*
X243527023Y-132557200D02*
X243384166Y-132604819D01*
X243384166Y-132604819D02*
X243288928Y-132604819D01*
X243288928Y-132604819D02*
X243146071Y-132557200D01*
X243146071Y-132557200D02*
X243050833Y-132461961D01*
X243050833Y-132461961D02*
X243003214Y-132366723D01*
X243003214Y-132366723D02*
X242955595Y-132176247D01*
X242955595Y-132176247D02*
X242955595Y-132033390D01*
X242955595Y-132033390D02*
X243003214Y-131842914D01*
X243003214Y-131842914D02*
X243050833Y-131747676D01*
X243050833Y-131747676D02*
X243146071Y-131652438D01*
X243146071Y-131652438D02*
X243288928Y-131604819D01*
X243288928Y-131604819D02*
X243384166Y-131604819D01*
X243384166Y-131604819D02*
X243527023Y-131652438D01*
X243527023Y-131652438D02*
X243574642Y-131700057D01*
X243907976Y-131604819D02*
X244527023Y-131604819D01*
X244527023Y-131604819D02*
X244193690Y-131985771D01*
X244193690Y-131985771D02*
X244336547Y-131985771D01*
X244336547Y-131985771D02*
X244431785Y-132033390D01*
X244431785Y-132033390D02*
X244479404Y-132081009D01*
X244479404Y-132081009D02*
X244527023Y-132176247D01*
X244527023Y-132176247D02*
X244527023Y-132414342D01*
X244527023Y-132414342D02*
X244479404Y-132509580D01*
X244479404Y-132509580D02*
X244431785Y-132557200D01*
X244431785Y-132557200D02*
X244336547Y-132604819D01*
X244336547Y-132604819D02*
X244050833Y-132604819D01*
X244050833Y-132604819D02*
X243955595Y-132557200D01*
X243955595Y-132557200D02*
X243907976Y-132509580D01*
X245479404Y-132604819D02*
X244907976Y-132604819D01*
X245193690Y-132604819D02*
X245193690Y-131604819D01*
X245193690Y-131604819D02*
X245098452Y-131747676D01*
X245098452Y-131747676D02*
X245003214Y-131842914D01*
X245003214Y-131842914D02*
X244907976Y-131890533D01*
X249672080Y-141092857D02*
X249719700Y-141140476D01*
X249719700Y-141140476D02*
X249767319Y-141283333D01*
X249767319Y-141283333D02*
X249767319Y-141378571D01*
X249767319Y-141378571D02*
X249719700Y-141521428D01*
X249719700Y-141521428D02*
X249624461Y-141616666D01*
X249624461Y-141616666D02*
X249529223Y-141664285D01*
X249529223Y-141664285D02*
X249338747Y-141711904D01*
X249338747Y-141711904D02*
X249195890Y-141711904D01*
X249195890Y-141711904D02*
X249005414Y-141664285D01*
X249005414Y-141664285D02*
X248910176Y-141616666D01*
X248910176Y-141616666D02*
X248814938Y-141521428D01*
X248814938Y-141521428D02*
X248767319Y-141378571D01*
X248767319Y-141378571D02*
X248767319Y-141283333D01*
X248767319Y-141283333D02*
X248814938Y-141140476D01*
X248814938Y-141140476D02*
X248862557Y-141092857D01*
X248862557Y-140711904D02*
X248814938Y-140664285D01*
X248814938Y-140664285D02*
X248767319Y-140569047D01*
X248767319Y-140569047D02*
X248767319Y-140330952D01*
X248767319Y-140330952D02*
X248814938Y-140235714D01*
X248814938Y-140235714D02*
X248862557Y-140188095D01*
X248862557Y-140188095D02*
X248957795Y-140140476D01*
X248957795Y-140140476D02*
X249053033Y-140140476D01*
X249053033Y-140140476D02*
X249195890Y-140188095D01*
X249195890Y-140188095D02*
X249767319Y-140759523D01*
X249767319Y-140759523D02*
X249767319Y-140140476D01*
X249767319Y-139664285D02*
X249767319Y-139473809D01*
X249767319Y-139473809D02*
X249719700Y-139378571D01*
X249719700Y-139378571D02*
X249672080Y-139330952D01*
X249672080Y-139330952D02*
X249529223Y-139235714D01*
X249529223Y-139235714D02*
X249338747Y-139188095D01*
X249338747Y-139188095D02*
X248957795Y-139188095D01*
X248957795Y-139188095D02*
X248862557Y-139235714D01*
X248862557Y-139235714D02*
X248814938Y-139283333D01*
X248814938Y-139283333D02*
X248767319Y-139378571D01*
X248767319Y-139378571D02*
X248767319Y-139569047D01*
X248767319Y-139569047D02*
X248814938Y-139664285D01*
X248814938Y-139664285D02*
X248862557Y-139711904D01*
X248862557Y-139711904D02*
X248957795Y-139759523D01*
X248957795Y-139759523D02*
X249195890Y-139759523D01*
X249195890Y-139759523D02*
X249291128Y-139711904D01*
X249291128Y-139711904D02*
X249338747Y-139664285D01*
X249338747Y-139664285D02*
X249386366Y-139569047D01*
X249386366Y-139569047D02*
X249386366Y-139378571D01*
X249386366Y-139378571D02*
X249338747Y-139283333D01*
X249338747Y-139283333D02*
X249291128Y-139235714D01*
X249291128Y-139235714D02*
X249195890Y-139188095D01*
X186829642Y-127879580D02*
X186782023Y-127927200D01*
X186782023Y-127927200D02*
X186639166Y-127974819D01*
X186639166Y-127974819D02*
X186543928Y-127974819D01*
X186543928Y-127974819D02*
X186401071Y-127927200D01*
X186401071Y-127927200D02*
X186305833Y-127831961D01*
X186305833Y-127831961D02*
X186258214Y-127736723D01*
X186258214Y-127736723D02*
X186210595Y-127546247D01*
X186210595Y-127546247D02*
X186210595Y-127403390D01*
X186210595Y-127403390D02*
X186258214Y-127212914D01*
X186258214Y-127212914D02*
X186305833Y-127117676D01*
X186305833Y-127117676D02*
X186401071Y-127022438D01*
X186401071Y-127022438D02*
X186543928Y-126974819D01*
X186543928Y-126974819D02*
X186639166Y-126974819D01*
X186639166Y-126974819D02*
X186782023Y-127022438D01*
X186782023Y-127022438D02*
X186829642Y-127070057D01*
X187782023Y-127974819D02*
X187210595Y-127974819D01*
X187496309Y-127974819D02*
X187496309Y-126974819D01*
X187496309Y-126974819D02*
X187401071Y-127117676D01*
X187401071Y-127117676D02*
X187305833Y-127212914D01*
X187305833Y-127212914D02*
X187210595Y-127260533D01*
X188162976Y-127070057D02*
X188210595Y-127022438D01*
X188210595Y-127022438D02*
X188305833Y-126974819D01*
X188305833Y-126974819D02*
X188543928Y-126974819D01*
X188543928Y-126974819D02*
X188639166Y-127022438D01*
X188639166Y-127022438D02*
X188686785Y-127070057D01*
X188686785Y-127070057D02*
X188734404Y-127165295D01*
X188734404Y-127165295D02*
X188734404Y-127260533D01*
X188734404Y-127260533D02*
X188686785Y-127403390D01*
X188686785Y-127403390D02*
X188115357Y-127974819D01*
X188115357Y-127974819D02*
X188734404Y-127974819D01*
X167964405Y-137924819D02*
X167964405Y-136924819D01*
X167964405Y-136924819D02*
X168202500Y-136924819D01*
X168202500Y-136924819D02*
X168345357Y-136972438D01*
X168345357Y-136972438D02*
X168440595Y-137067676D01*
X168440595Y-137067676D02*
X168488214Y-137162914D01*
X168488214Y-137162914D02*
X168535833Y-137353390D01*
X168535833Y-137353390D02*
X168535833Y-137496247D01*
X168535833Y-137496247D02*
X168488214Y-137686723D01*
X168488214Y-137686723D02*
X168440595Y-137781961D01*
X168440595Y-137781961D02*
X168345357Y-137877200D01*
X168345357Y-137877200D02*
X168202500Y-137924819D01*
X168202500Y-137924819D02*
X167964405Y-137924819D01*
X168869167Y-136924819D02*
X169488214Y-136924819D01*
X169488214Y-136924819D02*
X169154881Y-137305771D01*
X169154881Y-137305771D02*
X169297738Y-137305771D01*
X169297738Y-137305771D02*
X169392976Y-137353390D01*
X169392976Y-137353390D02*
X169440595Y-137401009D01*
X169440595Y-137401009D02*
X169488214Y-137496247D01*
X169488214Y-137496247D02*
X169488214Y-137734342D01*
X169488214Y-137734342D02*
X169440595Y-137829580D01*
X169440595Y-137829580D02*
X169392976Y-137877200D01*
X169392976Y-137877200D02*
X169297738Y-137924819D01*
X169297738Y-137924819D02*
X169012024Y-137924819D01*
X169012024Y-137924819D02*
X168916786Y-137877200D01*
X168916786Y-137877200D02*
X168869167Y-137829580D01*
X252680595Y-132172319D02*
X252680595Y-132981842D01*
X252680595Y-132981842D02*
X252728214Y-133077080D01*
X252728214Y-133077080D02*
X252775833Y-133124700D01*
X252775833Y-133124700D02*
X252871071Y-133172319D01*
X252871071Y-133172319D02*
X253061547Y-133172319D01*
X253061547Y-133172319D02*
X253156785Y-133124700D01*
X253156785Y-133124700D02*
X253204404Y-133077080D01*
X253204404Y-133077080D02*
X253252023Y-132981842D01*
X253252023Y-132981842D02*
X253252023Y-132172319D01*
X254156785Y-132172319D02*
X253966309Y-132172319D01*
X253966309Y-132172319D02*
X253871071Y-132219938D01*
X253871071Y-132219938D02*
X253823452Y-132267557D01*
X253823452Y-132267557D02*
X253728214Y-132410414D01*
X253728214Y-132410414D02*
X253680595Y-132600890D01*
X253680595Y-132600890D02*
X253680595Y-132981842D01*
X253680595Y-132981842D02*
X253728214Y-133077080D01*
X253728214Y-133077080D02*
X253775833Y-133124700D01*
X253775833Y-133124700D02*
X253871071Y-133172319D01*
X253871071Y-133172319D02*
X254061547Y-133172319D01*
X254061547Y-133172319D02*
X254156785Y-133124700D01*
X254156785Y-133124700D02*
X254204404Y-133077080D01*
X254204404Y-133077080D02*
X254252023Y-132981842D01*
X254252023Y-132981842D02*
X254252023Y-132743747D01*
X254252023Y-132743747D02*
X254204404Y-132648509D01*
X254204404Y-132648509D02*
X254156785Y-132600890D01*
X254156785Y-132600890D02*
X254061547Y-132553271D01*
X254061547Y-132553271D02*
X253871071Y-132553271D01*
X253871071Y-132553271D02*
X253775833Y-132600890D01*
X253775833Y-132600890D02*
X253728214Y-132648509D01*
X253728214Y-132648509D02*
X253680595Y-132743747D01*
X247747319Y-125830357D02*
X247271128Y-126163690D01*
X247747319Y-126401785D02*
X246747319Y-126401785D01*
X246747319Y-126401785D02*
X246747319Y-126020833D01*
X246747319Y-126020833D02*
X246794938Y-125925595D01*
X246794938Y-125925595D02*
X246842557Y-125877976D01*
X246842557Y-125877976D02*
X246937795Y-125830357D01*
X246937795Y-125830357D02*
X247080652Y-125830357D01*
X247080652Y-125830357D02*
X247175890Y-125877976D01*
X247175890Y-125877976D02*
X247223509Y-125925595D01*
X247223509Y-125925595D02*
X247271128Y-126020833D01*
X247271128Y-126020833D02*
X247271128Y-126401785D01*
X247747319Y-124877976D02*
X247747319Y-125449404D01*
X247747319Y-125163690D02*
X246747319Y-125163690D01*
X246747319Y-125163690D02*
X246890176Y-125258928D01*
X246890176Y-125258928D02*
X246985414Y-125354166D01*
X246985414Y-125354166D02*
X247033033Y-125449404D01*
X246747319Y-124020833D02*
X246747319Y-124211309D01*
X246747319Y-124211309D02*
X246794938Y-124306547D01*
X246794938Y-124306547D02*
X246842557Y-124354166D01*
X246842557Y-124354166D02*
X246985414Y-124449404D01*
X246985414Y-124449404D02*
X247175890Y-124497023D01*
X247175890Y-124497023D02*
X247556842Y-124497023D01*
X247556842Y-124497023D02*
X247652080Y-124449404D01*
X247652080Y-124449404D02*
X247699700Y-124401785D01*
X247699700Y-124401785D02*
X247747319Y-124306547D01*
X247747319Y-124306547D02*
X247747319Y-124116071D01*
X247747319Y-124116071D02*
X247699700Y-124020833D01*
X247699700Y-124020833D02*
X247652080Y-123973214D01*
X247652080Y-123973214D02*
X247556842Y-123925595D01*
X247556842Y-123925595D02*
X247318747Y-123925595D01*
X247318747Y-123925595D02*
X247223509Y-123973214D01*
X247223509Y-123973214D02*
X247175890Y-124020833D01*
X247175890Y-124020833D02*
X247128271Y-124116071D01*
X247128271Y-124116071D02*
X247128271Y-124306547D01*
X247128271Y-124306547D02*
X247175890Y-124401785D01*
X247175890Y-124401785D02*
X247223509Y-124449404D01*
X247223509Y-124449404D02*
X247318747Y-124497023D01*
X190409642Y-116529580D02*
X190362023Y-116577200D01*
X190362023Y-116577200D02*
X190219166Y-116624819D01*
X190219166Y-116624819D02*
X190123928Y-116624819D01*
X190123928Y-116624819D02*
X189981071Y-116577200D01*
X189981071Y-116577200D02*
X189885833Y-116481961D01*
X189885833Y-116481961D02*
X189838214Y-116386723D01*
X189838214Y-116386723D02*
X189790595Y-116196247D01*
X189790595Y-116196247D02*
X189790595Y-116053390D01*
X189790595Y-116053390D02*
X189838214Y-115862914D01*
X189838214Y-115862914D02*
X189885833Y-115767676D01*
X189885833Y-115767676D02*
X189981071Y-115672438D01*
X189981071Y-115672438D02*
X190123928Y-115624819D01*
X190123928Y-115624819D02*
X190219166Y-115624819D01*
X190219166Y-115624819D02*
X190362023Y-115672438D01*
X190362023Y-115672438D02*
X190409642Y-115720057D01*
X190742976Y-115624819D02*
X191362023Y-115624819D01*
X191362023Y-115624819D02*
X191028690Y-116005771D01*
X191028690Y-116005771D02*
X191171547Y-116005771D01*
X191171547Y-116005771D02*
X191266785Y-116053390D01*
X191266785Y-116053390D02*
X191314404Y-116101009D01*
X191314404Y-116101009D02*
X191362023Y-116196247D01*
X191362023Y-116196247D02*
X191362023Y-116434342D01*
X191362023Y-116434342D02*
X191314404Y-116529580D01*
X191314404Y-116529580D02*
X191266785Y-116577200D01*
X191266785Y-116577200D02*
X191171547Y-116624819D01*
X191171547Y-116624819D02*
X190885833Y-116624819D01*
X190885833Y-116624819D02*
X190790595Y-116577200D01*
X190790595Y-116577200D02*
X190742976Y-116529580D01*
X192219166Y-115958152D02*
X192219166Y-116624819D01*
X191981071Y-115577200D02*
X191742976Y-116291485D01*
X191742976Y-116291485D02*
X192362023Y-116291485D01*
X267089580Y-110967857D02*
X267137200Y-111015476D01*
X267137200Y-111015476D02*
X267184819Y-111158333D01*
X267184819Y-111158333D02*
X267184819Y-111253571D01*
X267184819Y-111253571D02*
X267137200Y-111396428D01*
X267137200Y-111396428D02*
X267041961Y-111491666D01*
X267041961Y-111491666D02*
X266946723Y-111539285D01*
X266946723Y-111539285D02*
X266756247Y-111586904D01*
X266756247Y-111586904D02*
X266613390Y-111586904D01*
X266613390Y-111586904D02*
X266422914Y-111539285D01*
X266422914Y-111539285D02*
X266327676Y-111491666D01*
X266327676Y-111491666D02*
X266232438Y-111396428D01*
X266232438Y-111396428D02*
X266184819Y-111253571D01*
X266184819Y-111253571D02*
X266184819Y-111158333D01*
X266184819Y-111158333D02*
X266232438Y-111015476D01*
X266232438Y-111015476D02*
X266280057Y-110967857D01*
X267184819Y-110015476D02*
X267184819Y-110586904D01*
X267184819Y-110301190D02*
X266184819Y-110301190D01*
X266184819Y-110301190D02*
X266327676Y-110396428D01*
X266327676Y-110396428D02*
X266422914Y-110491666D01*
X266422914Y-110491666D02*
X266470533Y-110586904D01*
X266184819Y-109682142D02*
X266184819Y-109015476D01*
X266184819Y-109015476D02*
X267184819Y-109444047D01*
X205909642Y-129569580D02*
X205862023Y-129617200D01*
X205862023Y-129617200D02*
X205719166Y-129664819D01*
X205719166Y-129664819D02*
X205623928Y-129664819D01*
X205623928Y-129664819D02*
X205481071Y-129617200D01*
X205481071Y-129617200D02*
X205385833Y-129521961D01*
X205385833Y-129521961D02*
X205338214Y-129426723D01*
X205338214Y-129426723D02*
X205290595Y-129236247D01*
X205290595Y-129236247D02*
X205290595Y-129093390D01*
X205290595Y-129093390D02*
X205338214Y-128902914D01*
X205338214Y-128902914D02*
X205385833Y-128807676D01*
X205385833Y-128807676D02*
X205481071Y-128712438D01*
X205481071Y-128712438D02*
X205623928Y-128664819D01*
X205623928Y-128664819D02*
X205719166Y-128664819D01*
X205719166Y-128664819D02*
X205862023Y-128712438D01*
X205862023Y-128712438D02*
X205909642Y-128760057D01*
X206862023Y-129664819D02*
X206290595Y-129664819D01*
X206576309Y-129664819D02*
X206576309Y-128664819D01*
X206576309Y-128664819D02*
X206481071Y-128807676D01*
X206481071Y-128807676D02*
X206385833Y-128902914D01*
X206385833Y-128902914D02*
X206290595Y-128950533D01*
X207481071Y-128664819D02*
X207576309Y-128664819D01*
X207576309Y-128664819D02*
X207671547Y-128712438D01*
X207671547Y-128712438D02*
X207719166Y-128760057D01*
X207719166Y-128760057D02*
X207766785Y-128855295D01*
X207766785Y-128855295D02*
X207814404Y-129045771D01*
X207814404Y-129045771D02*
X207814404Y-129283866D01*
X207814404Y-129283866D02*
X207766785Y-129474342D01*
X207766785Y-129474342D02*
X207719166Y-129569580D01*
X207719166Y-129569580D02*
X207671547Y-129617200D01*
X207671547Y-129617200D02*
X207576309Y-129664819D01*
X207576309Y-129664819D02*
X207481071Y-129664819D01*
X207481071Y-129664819D02*
X207385833Y-129617200D01*
X207385833Y-129617200D02*
X207338214Y-129569580D01*
X207338214Y-129569580D02*
X207290595Y-129474342D01*
X207290595Y-129474342D02*
X207242976Y-129283866D01*
X207242976Y-129283866D02*
X207242976Y-129045771D01*
X207242976Y-129045771D02*
X207290595Y-128855295D01*
X207290595Y-128855295D02*
X207338214Y-128760057D01*
X207338214Y-128760057D02*
X207385833Y-128712438D01*
X207385833Y-128712438D02*
X207481071Y-128664819D01*
D12*
X185050595Y-110467419D02*
X185050595Y-111276942D01*
X185050595Y-111276942D02*
X185098214Y-111372180D01*
X185098214Y-111372180D02*
X185145833Y-111419800D01*
X185145833Y-111419800D02*
X185241071Y-111467419D01*
X185241071Y-111467419D02*
X185431547Y-111467419D01*
X185431547Y-111467419D02*
X185526785Y-111419800D01*
X185526785Y-111419800D02*
X185574404Y-111372180D01*
X185574404Y-111372180D02*
X185622023Y-111276942D01*
X185622023Y-111276942D02*
X185622023Y-110467419D01*
X186574404Y-110467419D02*
X186098214Y-110467419D01*
X186098214Y-110467419D02*
X186050595Y-110943609D01*
X186050595Y-110943609D02*
X186098214Y-110895990D01*
X186098214Y-110895990D02*
X186193452Y-110848371D01*
X186193452Y-110848371D02*
X186431547Y-110848371D01*
X186431547Y-110848371D02*
X186526785Y-110895990D01*
X186526785Y-110895990D02*
X186574404Y-110943609D01*
X186574404Y-110943609D02*
X186622023Y-111038847D01*
X186622023Y-111038847D02*
X186622023Y-111276942D01*
X186622023Y-111276942D02*
X186574404Y-111372180D01*
X186574404Y-111372180D02*
X186526785Y-111419800D01*
X186526785Y-111419800D02*
X186431547Y-111467419D01*
X186431547Y-111467419D02*
X186193452Y-111467419D01*
X186193452Y-111467419D02*
X186098214Y-111419800D01*
X186098214Y-111419800D02*
X186050595Y-111372180D01*
D11*
X255099642Y-120254819D02*
X254766309Y-119778628D01*
X254528214Y-120254819D02*
X254528214Y-119254819D01*
X254528214Y-119254819D02*
X254909166Y-119254819D01*
X254909166Y-119254819D02*
X255004404Y-119302438D01*
X255004404Y-119302438D02*
X255052023Y-119350057D01*
X255052023Y-119350057D02*
X255099642Y-119445295D01*
X255099642Y-119445295D02*
X255099642Y-119588152D01*
X255099642Y-119588152D02*
X255052023Y-119683390D01*
X255052023Y-119683390D02*
X255004404Y-119731009D01*
X255004404Y-119731009D02*
X254909166Y-119778628D01*
X254909166Y-119778628D02*
X254528214Y-119778628D01*
X255480595Y-119350057D02*
X255528214Y-119302438D01*
X255528214Y-119302438D02*
X255623452Y-119254819D01*
X255623452Y-119254819D02*
X255861547Y-119254819D01*
X255861547Y-119254819D02*
X255956785Y-119302438D01*
X255956785Y-119302438D02*
X256004404Y-119350057D01*
X256004404Y-119350057D02*
X256052023Y-119445295D01*
X256052023Y-119445295D02*
X256052023Y-119540533D01*
X256052023Y-119540533D02*
X256004404Y-119683390D01*
X256004404Y-119683390D02*
X255432976Y-120254819D01*
X255432976Y-120254819D02*
X256052023Y-120254819D01*
X256671071Y-119254819D02*
X256766309Y-119254819D01*
X256766309Y-119254819D02*
X256861547Y-119302438D01*
X256861547Y-119302438D02*
X256909166Y-119350057D01*
X256909166Y-119350057D02*
X256956785Y-119445295D01*
X256956785Y-119445295D02*
X257004404Y-119635771D01*
X257004404Y-119635771D02*
X257004404Y-119873866D01*
X257004404Y-119873866D02*
X256956785Y-120064342D01*
X256956785Y-120064342D02*
X256909166Y-120159580D01*
X256909166Y-120159580D02*
X256861547Y-120207200D01*
X256861547Y-120207200D02*
X256766309Y-120254819D01*
X256766309Y-120254819D02*
X256671071Y-120254819D01*
X256671071Y-120254819D02*
X256575833Y-120207200D01*
X256575833Y-120207200D02*
X256528214Y-120159580D01*
X256528214Y-120159580D02*
X256480595Y-120064342D01*
X256480595Y-120064342D02*
X256432976Y-119873866D01*
X256432976Y-119873866D02*
X256432976Y-119635771D01*
X256432976Y-119635771D02*
X256480595Y-119445295D01*
X256480595Y-119445295D02*
X256528214Y-119350057D01*
X256528214Y-119350057D02*
X256575833Y-119302438D01*
X256575833Y-119302438D02*
X256671071Y-119254819D01*
X190805833Y-140479580D02*
X190758214Y-140527200D01*
X190758214Y-140527200D02*
X190615357Y-140574819D01*
X190615357Y-140574819D02*
X190520119Y-140574819D01*
X190520119Y-140574819D02*
X190377262Y-140527200D01*
X190377262Y-140527200D02*
X190282024Y-140431961D01*
X190282024Y-140431961D02*
X190234405Y-140336723D01*
X190234405Y-140336723D02*
X190186786Y-140146247D01*
X190186786Y-140146247D02*
X190186786Y-140003390D01*
X190186786Y-140003390D02*
X190234405Y-139812914D01*
X190234405Y-139812914D02*
X190282024Y-139717676D01*
X190282024Y-139717676D02*
X190377262Y-139622438D01*
X190377262Y-139622438D02*
X190520119Y-139574819D01*
X190520119Y-139574819D02*
X190615357Y-139574819D01*
X190615357Y-139574819D02*
X190758214Y-139622438D01*
X190758214Y-139622438D02*
X190805833Y-139670057D01*
X191139167Y-139574819D02*
X191758214Y-139574819D01*
X191758214Y-139574819D02*
X191424881Y-139955771D01*
X191424881Y-139955771D02*
X191567738Y-139955771D01*
X191567738Y-139955771D02*
X191662976Y-140003390D01*
X191662976Y-140003390D02*
X191710595Y-140051009D01*
X191710595Y-140051009D02*
X191758214Y-140146247D01*
X191758214Y-140146247D02*
X191758214Y-140384342D01*
X191758214Y-140384342D02*
X191710595Y-140479580D01*
X191710595Y-140479580D02*
X191662976Y-140527200D01*
X191662976Y-140527200D02*
X191567738Y-140574819D01*
X191567738Y-140574819D02*
X191282024Y-140574819D01*
X191282024Y-140574819D02*
X191186786Y-140527200D01*
X191186786Y-140527200D02*
X191139167Y-140479580D01*
X236167319Y-123806666D02*
X235691128Y-124139999D01*
X236167319Y-124378094D02*
X235167319Y-124378094D01*
X235167319Y-124378094D02*
X235167319Y-123997142D01*
X235167319Y-123997142D02*
X235214938Y-123901904D01*
X235214938Y-123901904D02*
X235262557Y-123854285D01*
X235262557Y-123854285D02*
X235357795Y-123806666D01*
X235357795Y-123806666D02*
X235500652Y-123806666D01*
X235500652Y-123806666D02*
X235595890Y-123854285D01*
X235595890Y-123854285D02*
X235643509Y-123901904D01*
X235643509Y-123901904D02*
X235691128Y-123997142D01*
X235691128Y-123997142D02*
X235691128Y-124378094D01*
X235500652Y-122949523D02*
X236167319Y-122949523D01*
X235119700Y-123187618D02*
X235833985Y-123425713D01*
X235833985Y-123425713D02*
X235833985Y-122806666D01*
X252499642Y-135827080D02*
X252452023Y-135874700D01*
X252452023Y-135874700D02*
X252309166Y-135922319D01*
X252309166Y-135922319D02*
X252213928Y-135922319D01*
X252213928Y-135922319D02*
X252071071Y-135874700D01*
X252071071Y-135874700D02*
X251975833Y-135779461D01*
X251975833Y-135779461D02*
X251928214Y-135684223D01*
X251928214Y-135684223D02*
X251880595Y-135493747D01*
X251880595Y-135493747D02*
X251880595Y-135350890D01*
X251880595Y-135350890D02*
X251928214Y-135160414D01*
X251928214Y-135160414D02*
X251975833Y-135065176D01*
X251975833Y-135065176D02*
X252071071Y-134969938D01*
X252071071Y-134969938D02*
X252213928Y-134922319D01*
X252213928Y-134922319D02*
X252309166Y-134922319D01*
X252309166Y-134922319D02*
X252452023Y-134969938D01*
X252452023Y-134969938D02*
X252499642Y-135017557D01*
X252832976Y-134922319D02*
X253452023Y-134922319D01*
X253452023Y-134922319D02*
X253118690Y-135303271D01*
X253118690Y-135303271D02*
X253261547Y-135303271D01*
X253261547Y-135303271D02*
X253356785Y-135350890D01*
X253356785Y-135350890D02*
X253404404Y-135398509D01*
X253404404Y-135398509D02*
X253452023Y-135493747D01*
X253452023Y-135493747D02*
X253452023Y-135731842D01*
X253452023Y-135731842D02*
X253404404Y-135827080D01*
X253404404Y-135827080D02*
X253356785Y-135874700D01*
X253356785Y-135874700D02*
X253261547Y-135922319D01*
X253261547Y-135922319D02*
X252975833Y-135922319D01*
X252975833Y-135922319D02*
X252880595Y-135874700D01*
X252880595Y-135874700D02*
X252832976Y-135827080D01*
X253785357Y-134922319D02*
X254404404Y-134922319D01*
X254404404Y-134922319D02*
X254071071Y-135303271D01*
X254071071Y-135303271D02*
X254213928Y-135303271D01*
X254213928Y-135303271D02*
X254309166Y-135350890D01*
X254309166Y-135350890D02*
X254356785Y-135398509D01*
X254356785Y-135398509D02*
X254404404Y-135493747D01*
X254404404Y-135493747D02*
X254404404Y-135731842D01*
X254404404Y-135731842D02*
X254356785Y-135827080D01*
X254356785Y-135827080D02*
X254309166Y-135874700D01*
X254309166Y-135874700D02*
X254213928Y-135922319D01*
X254213928Y-135922319D02*
X253928214Y-135922319D01*
X253928214Y-135922319D02*
X253832976Y-135874700D01*
X253832976Y-135874700D02*
X253785357Y-135827080D01*
D12*
X171279167Y-149459800D02*
X171422024Y-149507419D01*
X171422024Y-149507419D02*
X171660119Y-149507419D01*
X171660119Y-149507419D02*
X171755357Y-149459800D01*
X171755357Y-149459800D02*
X171802976Y-149412180D01*
X171802976Y-149412180D02*
X171850595Y-149316942D01*
X171850595Y-149316942D02*
X171850595Y-149221704D01*
X171850595Y-149221704D02*
X171802976Y-149126466D01*
X171802976Y-149126466D02*
X171755357Y-149078847D01*
X171755357Y-149078847D02*
X171660119Y-149031228D01*
X171660119Y-149031228D02*
X171469643Y-148983609D01*
X171469643Y-148983609D02*
X171374405Y-148935990D01*
X171374405Y-148935990D02*
X171326786Y-148888371D01*
X171326786Y-148888371D02*
X171279167Y-148793133D01*
X171279167Y-148793133D02*
X171279167Y-148697895D01*
X171279167Y-148697895D02*
X171326786Y-148602657D01*
X171326786Y-148602657D02*
X171374405Y-148555038D01*
X171374405Y-148555038D02*
X171469643Y-148507419D01*
X171469643Y-148507419D02*
X171707738Y-148507419D01*
X171707738Y-148507419D02*
X171850595Y-148555038D01*
X172183929Y-148507419D02*
X172422024Y-149507419D01*
X172422024Y-149507419D02*
X172612500Y-148793133D01*
X172612500Y-148793133D02*
X172802976Y-149507419D01*
X172802976Y-149507419D02*
X173041072Y-148507419D01*
X173326786Y-148507419D02*
X173945833Y-148507419D01*
X173945833Y-148507419D02*
X173612500Y-148888371D01*
X173612500Y-148888371D02*
X173755357Y-148888371D01*
X173755357Y-148888371D02*
X173850595Y-148935990D01*
X173850595Y-148935990D02*
X173898214Y-148983609D01*
X173898214Y-148983609D02*
X173945833Y-149078847D01*
X173945833Y-149078847D02*
X173945833Y-149316942D01*
X173945833Y-149316942D02*
X173898214Y-149412180D01*
X173898214Y-149412180D02*
X173850595Y-149459800D01*
X173850595Y-149459800D02*
X173755357Y-149507419D01*
X173755357Y-149507419D02*
X173469643Y-149507419D01*
X173469643Y-149507419D02*
X173374405Y-149459800D01*
X173374405Y-149459800D02*
X173326786Y-149412180D01*
D11*
X205805833Y-124409580D02*
X205758214Y-124457200D01*
X205758214Y-124457200D02*
X205615357Y-124504819D01*
X205615357Y-124504819D02*
X205520119Y-124504819D01*
X205520119Y-124504819D02*
X205377262Y-124457200D01*
X205377262Y-124457200D02*
X205282024Y-124361961D01*
X205282024Y-124361961D02*
X205234405Y-124266723D01*
X205234405Y-124266723D02*
X205186786Y-124076247D01*
X205186786Y-124076247D02*
X205186786Y-123933390D01*
X205186786Y-123933390D02*
X205234405Y-123742914D01*
X205234405Y-123742914D02*
X205282024Y-123647676D01*
X205282024Y-123647676D02*
X205377262Y-123552438D01*
X205377262Y-123552438D02*
X205520119Y-123504819D01*
X205520119Y-123504819D02*
X205615357Y-123504819D01*
X205615357Y-123504819D02*
X205758214Y-123552438D01*
X205758214Y-123552438D02*
X205805833Y-123600057D01*
X206662976Y-123838152D02*
X206662976Y-124504819D01*
X206424881Y-123457200D02*
X206186786Y-124171485D01*
X206186786Y-124171485D02*
X206805833Y-124171485D01*
X170967319Y-140742857D02*
X170491128Y-141076190D01*
X170967319Y-141314285D02*
X169967319Y-141314285D01*
X169967319Y-141314285D02*
X169967319Y-140933333D01*
X169967319Y-140933333D02*
X170014938Y-140838095D01*
X170014938Y-140838095D02*
X170062557Y-140790476D01*
X170062557Y-140790476D02*
X170157795Y-140742857D01*
X170157795Y-140742857D02*
X170300652Y-140742857D01*
X170300652Y-140742857D02*
X170395890Y-140790476D01*
X170395890Y-140790476D02*
X170443509Y-140838095D01*
X170443509Y-140838095D02*
X170491128Y-140933333D01*
X170491128Y-140933333D02*
X170491128Y-141314285D01*
X170062557Y-140361904D02*
X170014938Y-140314285D01*
X170014938Y-140314285D02*
X169967319Y-140219047D01*
X169967319Y-140219047D02*
X169967319Y-139980952D01*
X169967319Y-139980952D02*
X170014938Y-139885714D01*
X170014938Y-139885714D02*
X170062557Y-139838095D01*
X170062557Y-139838095D02*
X170157795Y-139790476D01*
X170157795Y-139790476D02*
X170253033Y-139790476D01*
X170253033Y-139790476D02*
X170395890Y-139838095D01*
X170395890Y-139838095D02*
X170967319Y-140409523D01*
X170967319Y-140409523D02*
X170967319Y-139790476D01*
X169967319Y-139457142D02*
X169967319Y-138790476D01*
X169967319Y-138790476D02*
X170967319Y-139219047D01*
X261095833Y-141324819D02*
X260762500Y-140848628D01*
X260524405Y-141324819D02*
X260524405Y-140324819D01*
X260524405Y-140324819D02*
X260905357Y-140324819D01*
X260905357Y-140324819D02*
X261000595Y-140372438D01*
X261000595Y-140372438D02*
X261048214Y-140420057D01*
X261048214Y-140420057D02*
X261095833Y-140515295D01*
X261095833Y-140515295D02*
X261095833Y-140658152D01*
X261095833Y-140658152D02*
X261048214Y-140753390D01*
X261048214Y-140753390D02*
X261000595Y-140801009D01*
X261000595Y-140801009D02*
X260905357Y-140848628D01*
X260905357Y-140848628D02*
X260524405Y-140848628D01*
X261429167Y-140324819D02*
X262095833Y-140324819D01*
X262095833Y-140324819D02*
X261667262Y-141324819D01*
X203009642Y-116489580D02*
X202962023Y-116537200D01*
X202962023Y-116537200D02*
X202819166Y-116584819D01*
X202819166Y-116584819D02*
X202723928Y-116584819D01*
X202723928Y-116584819D02*
X202581071Y-116537200D01*
X202581071Y-116537200D02*
X202485833Y-116441961D01*
X202485833Y-116441961D02*
X202438214Y-116346723D01*
X202438214Y-116346723D02*
X202390595Y-116156247D01*
X202390595Y-116156247D02*
X202390595Y-116013390D01*
X202390595Y-116013390D02*
X202438214Y-115822914D01*
X202438214Y-115822914D02*
X202485833Y-115727676D01*
X202485833Y-115727676D02*
X202581071Y-115632438D01*
X202581071Y-115632438D02*
X202723928Y-115584819D01*
X202723928Y-115584819D02*
X202819166Y-115584819D01*
X202819166Y-115584819D02*
X202962023Y-115632438D01*
X202962023Y-115632438D02*
X203009642Y-115680057D01*
X203342976Y-115584819D02*
X203962023Y-115584819D01*
X203962023Y-115584819D02*
X203628690Y-115965771D01*
X203628690Y-115965771D02*
X203771547Y-115965771D01*
X203771547Y-115965771D02*
X203866785Y-116013390D01*
X203866785Y-116013390D02*
X203914404Y-116061009D01*
X203914404Y-116061009D02*
X203962023Y-116156247D01*
X203962023Y-116156247D02*
X203962023Y-116394342D01*
X203962023Y-116394342D02*
X203914404Y-116489580D01*
X203914404Y-116489580D02*
X203866785Y-116537200D01*
X203866785Y-116537200D02*
X203771547Y-116584819D01*
X203771547Y-116584819D02*
X203485833Y-116584819D01*
X203485833Y-116584819D02*
X203390595Y-116537200D01*
X203390595Y-116537200D02*
X203342976Y-116489580D01*
X204819166Y-115584819D02*
X204628690Y-115584819D01*
X204628690Y-115584819D02*
X204533452Y-115632438D01*
X204533452Y-115632438D02*
X204485833Y-115680057D01*
X204485833Y-115680057D02*
X204390595Y-115822914D01*
X204390595Y-115822914D02*
X204342976Y-116013390D01*
X204342976Y-116013390D02*
X204342976Y-116394342D01*
X204342976Y-116394342D02*
X204390595Y-116489580D01*
X204390595Y-116489580D02*
X204438214Y-116537200D01*
X204438214Y-116537200D02*
X204533452Y-116584819D01*
X204533452Y-116584819D02*
X204723928Y-116584819D01*
X204723928Y-116584819D02*
X204819166Y-116537200D01*
X204819166Y-116537200D02*
X204866785Y-116489580D01*
X204866785Y-116489580D02*
X204914404Y-116394342D01*
X204914404Y-116394342D02*
X204914404Y-116156247D01*
X204914404Y-116156247D02*
X204866785Y-116061009D01*
X204866785Y-116061009D02*
X204819166Y-116013390D01*
X204819166Y-116013390D02*
X204723928Y-115965771D01*
X204723928Y-115965771D02*
X204533452Y-115965771D01*
X204533452Y-115965771D02*
X204438214Y-116013390D01*
X204438214Y-116013390D02*
X204390595Y-116061009D01*
X204390595Y-116061009D02*
X204342976Y-116156247D01*
X199625833Y-121754819D02*
X199149643Y-121754819D01*
X199149643Y-121754819D02*
X199149643Y-120754819D01*
X200482976Y-121754819D02*
X199911548Y-121754819D01*
X200197262Y-121754819D02*
X200197262Y-120754819D01*
X200197262Y-120754819D02*
X200102024Y-120897676D01*
X200102024Y-120897676D02*
X200006786Y-120992914D01*
X200006786Y-120992914D02*
X199911548Y-121040533D01*
D12*
X156449167Y-151309800D02*
X156592024Y-151357419D01*
X156592024Y-151357419D02*
X156830119Y-151357419D01*
X156830119Y-151357419D02*
X156925357Y-151309800D01*
X156925357Y-151309800D02*
X156972976Y-151262180D01*
X156972976Y-151262180D02*
X157020595Y-151166942D01*
X157020595Y-151166942D02*
X157020595Y-151071704D01*
X157020595Y-151071704D02*
X156972976Y-150976466D01*
X156972976Y-150976466D02*
X156925357Y-150928847D01*
X156925357Y-150928847D02*
X156830119Y-150881228D01*
X156830119Y-150881228D02*
X156639643Y-150833609D01*
X156639643Y-150833609D02*
X156544405Y-150785990D01*
X156544405Y-150785990D02*
X156496786Y-150738371D01*
X156496786Y-150738371D02*
X156449167Y-150643133D01*
X156449167Y-150643133D02*
X156449167Y-150547895D01*
X156449167Y-150547895D02*
X156496786Y-150452657D01*
X156496786Y-150452657D02*
X156544405Y-150405038D01*
X156544405Y-150405038D02*
X156639643Y-150357419D01*
X156639643Y-150357419D02*
X156877738Y-150357419D01*
X156877738Y-150357419D02*
X157020595Y-150405038D01*
X157353929Y-150357419D02*
X157592024Y-151357419D01*
X157592024Y-151357419D02*
X157782500Y-150643133D01*
X157782500Y-150643133D02*
X157972976Y-151357419D01*
X157972976Y-151357419D02*
X158211072Y-150357419D01*
X159115833Y-151357419D02*
X158544405Y-151357419D01*
X158830119Y-151357419D02*
X158830119Y-150357419D01*
X158830119Y-150357419D02*
X158734881Y-150500276D01*
X158734881Y-150500276D02*
X158639643Y-150595514D01*
X158639643Y-150595514D02*
X158544405Y-150643133D01*
D11*
X261787142Y-132154819D02*
X261453809Y-131678628D01*
X261215714Y-132154819D02*
X261215714Y-131154819D01*
X261215714Y-131154819D02*
X261596666Y-131154819D01*
X261596666Y-131154819D02*
X261691904Y-131202438D01*
X261691904Y-131202438D02*
X261739523Y-131250057D01*
X261739523Y-131250057D02*
X261787142Y-131345295D01*
X261787142Y-131345295D02*
X261787142Y-131488152D01*
X261787142Y-131488152D02*
X261739523Y-131583390D01*
X261739523Y-131583390D02*
X261691904Y-131631009D01*
X261691904Y-131631009D02*
X261596666Y-131678628D01*
X261596666Y-131678628D02*
X261215714Y-131678628D01*
X262168095Y-131250057D02*
X262215714Y-131202438D01*
X262215714Y-131202438D02*
X262310952Y-131154819D01*
X262310952Y-131154819D02*
X262549047Y-131154819D01*
X262549047Y-131154819D02*
X262644285Y-131202438D01*
X262644285Y-131202438D02*
X262691904Y-131250057D01*
X262691904Y-131250057D02*
X262739523Y-131345295D01*
X262739523Y-131345295D02*
X262739523Y-131440533D01*
X262739523Y-131440533D02*
X262691904Y-131583390D01*
X262691904Y-131583390D02*
X262120476Y-132154819D01*
X262120476Y-132154819D02*
X262739523Y-132154819D01*
X263120476Y-131250057D02*
X263168095Y-131202438D01*
X263168095Y-131202438D02*
X263263333Y-131154819D01*
X263263333Y-131154819D02*
X263501428Y-131154819D01*
X263501428Y-131154819D02*
X263596666Y-131202438D01*
X263596666Y-131202438D02*
X263644285Y-131250057D01*
X263644285Y-131250057D02*
X263691904Y-131345295D01*
X263691904Y-131345295D02*
X263691904Y-131440533D01*
X263691904Y-131440533D02*
X263644285Y-131583390D01*
X263644285Y-131583390D02*
X263072857Y-132154819D01*
X263072857Y-132154819D02*
X263691904Y-132154819D01*
X216969166Y-105874819D02*
X216969166Y-106589104D01*
X216969166Y-106589104D02*
X216921547Y-106731961D01*
X216921547Y-106731961D02*
X216826309Y-106827200D01*
X216826309Y-106827200D02*
X216683452Y-106874819D01*
X216683452Y-106874819D02*
X216588214Y-106874819D01*
X217969166Y-106874819D02*
X217397738Y-106874819D01*
X217683452Y-106874819D02*
X217683452Y-105874819D01*
X217683452Y-105874819D02*
X217588214Y-106017676D01*
X217588214Y-106017676D02*
X217492976Y-106112914D01*
X217492976Y-106112914D02*
X217397738Y-106160533D01*
X253637319Y-144692857D02*
X253161128Y-145026190D01*
X253637319Y-145264285D02*
X252637319Y-145264285D01*
X252637319Y-145264285D02*
X252637319Y-144883333D01*
X252637319Y-144883333D02*
X252684938Y-144788095D01*
X252684938Y-144788095D02*
X252732557Y-144740476D01*
X252732557Y-144740476D02*
X252827795Y-144692857D01*
X252827795Y-144692857D02*
X252970652Y-144692857D01*
X252970652Y-144692857D02*
X253065890Y-144740476D01*
X253065890Y-144740476D02*
X253113509Y-144788095D01*
X253113509Y-144788095D02*
X253161128Y-144883333D01*
X253161128Y-144883333D02*
X253161128Y-145264285D01*
X252732557Y-144311904D02*
X252684938Y-144264285D01*
X252684938Y-144264285D02*
X252637319Y-144169047D01*
X252637319Y-144169047D02*
X252637319Y-143930952D01*
X252637319Y-143930952D02*
X252684938Y-143835714D01*
X252684938Y-143835714D02*
X252732557Y-143788095D01*
X252732557Y-143788095D02*
X252827795Y-143740476D01*
X252827795Y-143740476D02*
X252923033Y-143740476D01*
X252923033Y-143740476D02*
X253065890Y-143788095D01*
X253065890Y-143788095D02*
X253637319Y-144359523D01*
X253637319Y-144359523D02*
X253637319Y-143740476D01*
X252637319Y-142835714D02*
X252637319Y-143311904D01*
X252637319Y-143311904D02*
X253113509Y-143359523D01*
X253113509Y-143359523D02*
X253065890Y-143311904D01*
X253065890Y-143311904D02*
X253018271Y-143216666D01*
X253018271Y-143216666D02*
X253018271Y-142978571D01*
X253018271Y-142978571D02*
X253065890Y-142883333D01*
X253065890Y-142883333D02*
X253113509Y-142835714D01*
X253113509Y-142835714D02*
X253208747Y-142788095D01*
X253208747Y-142788095D02*
X253446842Y-142788095D01*
X253446842Y-142788095D02*
X253542080Y-142835714D01*
X253542080Y-142835714D02*
X253589700Y-142883333D01*
X253589700Y-142883333D02*
X253637319Y-142978571D01*
X253637319Y-142978571D02*
X253637319Y-143216666D01*
X253637319Y-143216666D02*
X253589700Y-143311904D01*
X253589700Y-143311904D02*
X253542080Y-143359523D01*
X201102080Y-143916666D02*
X201149700Y-143964285D01*
X201149700Y-143964285D02*
X201197319Y-144107142D01*
X201197319Y-144107142D02*
X201197319Y-144202380D01*
X201197319Y-144202380D02*
X201149700Y-144345237D01*
X201149700Y-144345237D02*
X201054461Y-144440475D01*
X201054461Y-144440475D02*
X200959223Y-144488094D01*
X200959223Y-144488094D02*
X200768747Y-144535713D01*
X200768747Y-144535713D02*
X200625890Y-144535713D01*
X200625890Y-144535713D02*
X200435414Y-144488094D01*
X200435414Y-144488094D02*
X200340176Y-144440475D01*
X200340176Y-144440475D02*
X200244938Y-144345237D01*
X200244938Y-144345237D02*
X200197319Y-144202380D01*
X200197319Y-144202380D02*
X200197319Y-144107142D01*
X200197319Y-144107142D02*
X200244938Y-143964285D01*
X200244938Y-143964285D02*
X200292557Y-143916666D01*
X201197319Y-142964285D02*
X201197319Y-143535713D01*
X201197319Y-143249999D02*
X200197319Y-143249999D01*
X200197319Y-143249999D02*
X200340176Y-143345237D01*
X200340176Y-143345237D02*
X200435414Y-143440475D01*
X200435414Y-143440475D02*
X200483033Y-143535713D01*
X257469580Y-103242857D02*
X257517200Y-103290476D01*
X257517200Y-103290476D02*
X257564819Y-103433333D01*
X257564819Y-103433333D02*
X257564819Y-103528571D01*
X257564819Y-103528571D02*
X257517200Y-103671428D01*
X257517200Y-103671428D02*
X257421961Y-103766666D01*
X257421961Y-103766666D02*
X257326723Y-103814285D01*
X257326723Y-103814285D02*
X257136247Y-103861904D01*
X257136247Y-103861904D02*
X256993390Y-103861904D01*
X256993390Y-103861904D02*
X256802914Y-103814285D01*
X256802914Y-103814285D02*
X256707676Y-103766666D01*
X256707676Y-103766666D02*
X256612438Y-103671428D01*
X256612438Y-103671428D02*
X256564819Y-103528571D01*
X256564819Y-103528571D02*
X256564819Y-103433333D01*
X256564819Y-103433333D02*
X256612438Y-103290476D01*
X256612438Y-103290476D02*
X256660057Y-103242857D01*
X256660057Y-102861904D02*
X256612438Y-102814285D01*
X256612438Y-102814285D02*
X256564819Y-102719047D01*
X256564819Y-102719047D02*
X256564819Y-102480952D01*
X256564819Y-102480952D02*
X256612438Y-102385714D01*
X256612438Y-102385714D02*
X256660057Y-102338095D01*
X256660057Y-102338095D02*
X256755295Y-102290476D01*
X256755295Y-102290476D02*
X256850533Y-102290476D01*
X256850533Y-102290476D02*
X256993390Y-102338095D01*
X256993390Y-102338095D02*
X257564819Y-102909523D01*
X257564819Y-102909523D02*
X257564819Y-102290476D01*
X257564819Y-101338095D02*
X257564819Y-101909523D01*
X257564819Y-101623809D02*
X256564819Y-101623809D01*
X256564819Y-101623809D02*
X256707676Y-101719047D01*
X256707676Y-101719047D02*
X256802914Y-101814285D01*
X256802914Y-101814285D02*
X256850533Y-101909523D01*
X168657142Y-151884819D02*
X168323809Y-151408628D01*
X168085714Y-151884819D02*
X168085714Y-150884819D01*
X168085714Y-150884819D02*
X168466666Y-150884819D01*
X168466666Y-150884819D02*
X168561904Y-150932438D01*
X168561904Y-150932438D02*
X168609523Y-150980057D01*
X168609523Y-150980057D02*
X168657142Y-151075295D01*
X168657142Y-151075295D02*
X168657142Y-151218152D01*
X168657142Y-151218152D02*
X168609523Y-151313390D01*
X168609523Y-151313390D02*
X168561904Y-151361009D01*
X168561904Y-151361009D02*
X168466666Y-151408628D01*
X168466666Y-151408628D02*
X168085714Y-151408628D01*
X169038095Y-150980057D02*
X169085714Y-150932438D01*
X169085714Y-150932438D02*
X169180952Y-150884819D01*
X169180952Y-150884819D02*
X169419047Y-150884819D01*
X169419047Y-150884819D02*
X169514285Y-150932438D01*
X169514285Y-150932438D02*
X169561904Y-150980057D01*
X169561904Y-150980057D02*
X169609523Y-151075295D01*
X169609523Y-151075295D02*
X169609523Y-151170533D01*
X169609523Y-151170533D02*
X169561904Y-151313390D01*
X169561904Y-151313390D02*
X168990476Y-151884819D01*
X168990476Y-151884819D02*
X169609523Y-151884819D01*
X170466666Y-151218152D02*
X170466666Y-151884819D01*
X170228571Y-150837200D02*
X169990476Y-151551485D01*
X169990476Y-151551485D02*
X170609523Y-151551485D01*
X260299642Y-125704819D02*
X259966309Y-125228628D01*
X259728214Y-125704819D02*
X259728214Y-124704819D01*
X259728214Y-124704819D02*
X260109166Y-124704819D01*
X260109166Y-124704819D02*
X260204404Y-124752438D01*
X260204404Y-124752438D02*
X260252023Y-124800057D01*
X260252023Y-124800057D02*
X260299642Y-124895295D01*
X260299642Y-124895295D02*
X260299642Y-125038152D01*
X260299642Y-125038152D02*
X260252023Y-125133390D01*
X260252023Y-125133390D02*
X260204404Y-125181009D01*
X260204404Y-125181009D02*
X260109166Y-125228628D01*
X260109166Y-125228628D02*
X259728214Y-125228628D01*
X260680595Y-124800057D02*
X260728214Y-124752438D01*
X260728214Y-124752438D02*
X260823452Y-124704819D01*
X260823452Y-124704819D02*
X261061547Y-124704819D01*
X261061547Y-124704819D02*
X261156785Y-124752438D01*
X261156785Y-124752438D02*
X261204404Y-124800057D01*
X261204404Y-124800057D02*
X261252023Y-124895295D01*
X261252023Y-124895295D02*
X261252023Y-124990533D01*
X261252023Y-124990533D02*
X261204404Y-125133390D01*
X261204404Y-125133390D02*
X260632976Y-125704819D01*
X260632976Y-125704819D02*
X261252023Y-125704819D01*
X262204404Y-125704819D02*
X261632976Y-125704819D01*
X261918690Y-125704819D02*
X261918690Y-124704819D01*
X261918690Y-124704819D02*
X261823452Y-124847676D01*
X261823452Y-124847676D02*
X261728214Y-124942914D01*
X261728214Y-124942914D02*
X261632976Y-124990533D01*
X235375833Y-146254819D02*
X235042500Y-145778628D01*
X234804405Y-146254819D02*
X234804405Y-145254819D01*
X234804405Y-145254819D02*
X235185357Y-145254819D01*
X235185357Y-145254819D02*
X235280595Y-145302438D01*
X235280595Y-145302438D02*
X235328214Y-145350057D01*
X235328214Y-145350057D02*
X235375833Y-145445295D01*
X235375833Y-145445295D02*
X235375833Y-145588152D01*
X235375833Y-145588152D02*
X235328214Y-145683390D01*
X235328214Y-145683390D02*
X235280595Y-145731009D01*
X235280595Y-145731009D02*
X235185357Y-145778628D01*
X235185357Y-145778628D02*
X234804405Y-145778628D01*
X236232976Y-145254819D02*
X236042500Y-145254819D01*
X236042500Y-145254819D02*
X235947262Y-145302438D01*
X235947262Y-145302438D02*
X235899643Y-145350057D01*
X235899643Y-145350057D02*
X235804405Y-145492914D01*
X235804405Y-145492914D02*
X235756786Y-145683390D01*
X235756786Y-145683390D02*
X235756786Y-146064342D01*
X235756786Y-146064342D02*
X235804405Y-146159580D01*
X235804405Y-146159580D02*
X235852024Y-146207200D01*
X235852024Y-146207200D02*
X235947262Y-146254819D01*
X235947262Y-146254819D02*
X236137738Y-146254819D01*
X236137738Y-146254819D02*
X236232976Y-146207200D01*
X236232976Y-146207200D02*
X236280595Y-146159580D01*
X236280595Y-146159580D02*
X236328214Y-146064342D01*
X236328214Y-146064342D02*
X236328214Y-145826247D01*
X236328214Y-145826247D02*
X236280595Y-145731009D01*
X236280595Y-145731009D02*
X236232976Y-145683390D01*
X236232976Y-145683390D02*
X236137738Y-145635771D01*
X236137738Y-145635771D02*
X235947262Y-145635771D01*
X235947262Y-145635771D02*
X235852024Y-145683390D01*
X235852024Y-145683390D02*
X235804405Y-145731009D01*
X235804405Y-145731009D02*
X235756786Y-145826247D01*
X167577319Y-140555357D02*
X167101128Y-140888690D01*
X167577319Y-141126785D02*
X166577319Y-141126785D01*
X166577319Y-141126785D02*
X166577319Y-140745833D01*
X166577319Y-140745833D02*
X166624938Y-140650595D01*
X166624938Y-140650595D02*
X166672557Y-140602976D01*
X166672557Y-140602976D02*
X166767795Y-140555357D01*
X166767795Y-140555357D02*
X166910652Y-140555357D01*
X166910652Y-140555357D02*
X167005890Y-140602976D01*
X167005890Y-140602976D02*
X167053509Y-140650595D01*
X167053509Y-140650595D02*
X167101128Y-140745833D01*
X167101128Y-140745833D02*
X167101128Y-141126785D01*
X166672557Y-140174404D02*
X166624938Y-140126785D01*
X166624938Y-140126785D02*
X166577319Y-140031547D01*
X166577319Y-140031547D02*
X166577319Y-139793452D01*
X166577319Y-139793452D02*
X166624938Y-139698214D01*
X166624938Y-139698214D02*
X166672557Y-139650595D01*
X166672557Y-139650595D02*
X166767795Y-139602976D01*
X166767795Y-139602976D02*
X166863033Y-139602976D01*
X166863033Y-139602976D02*
X167005890Y-139650595D01*
X167005890Y-139650595D02*
X167577319Y-140222023D01*
X167577319Y-140222023D02*
X167577319Y-139602976D01*
X167005890Y-139031547D02*
X166958271Y-139126785D01*
X166958271Y-139126785D02*
X166910652Y-139174404D01*
X166910652Y-139174404D02*
X166815414Y-139222023D01*
X166815414Y-139222023D02*
X166767795Y-139222023D01*
X166767795Y-139222023D02*
X166672557Y-139174404D01*
X166672557Y-139174404D02*
X166624938Y-139126785D01*
X166624938Y-139126785D02*
X166577319Y-139031547D01*
X166577319Y-139031547D02*
X166577319Y-138841071D01*
X166577319Y-138841071D02*
X166624938Y-138745833D01*
X166624938Y-138745833D02*
X166672557Y-138698214D01*
X166672557Y-138698214D02*
X166767795Y-138650595D01*
X166767795Y-138650595D02*
X166815414Y-138650595D01*
X166815414Y-138650595D02*
X166910652Y-138698214D01*
X166910652Y-138698214D02*
X166958271Y-138745833D01*
X166958271Y-138745833D02*
X167005890Y-138841071D01*
X167005890Y-138841071D02*
X167005890Y-139031547D01*
X167005890Y-139031547D02*
X167053509Y-139126785D01*
X167053509Y-139126785D02*
X167101128Y-139174404D01*
X167101128Y-139174404D02*
X167196366Y-139222023D01*
X167196366Y-139222023D02*
X167386842Y-139222023D01*
X167386842Y-139222023D02*
X167482080Y-139174404D01*
X167482080Y-139174404D02*
X167529700Y-139126785D01*
X167529700Y-139126785D02*
X167577319Y-139031547D01*
X167577319Y-139031547D02*
X167577319Y-138841071D01*
X167577319Y-138841071D02*
X167529700Y-138745833D01*
X167529700Y-138745833D02*
X167482080Y-138698214D01*
X167482080Y-138698214D02*
X167386842Y-138650595D01*
X167386842Y-138650595D02*
X167196366Y-138650595D01*
X167196366Y-138650595D02*
X167101128Y-138698214D01*
X167101128Y-138698214D02*
X167053509Y-138745833D01*
X167053509Y-138745833D02*
X167005890Y-138841071D01*
X264409642Y-138954819D02*
X264076309Y-138478628D01*
X263838214Y-138954819D02*
X263838214Y-137954819D01*
X263838214Y-137954819D02*
X264219166Y-137954819D01*
X264219166Y-137954819D02*
X264314404Y-138002438D01*
X264314404Y-138002438D02*
X264362023Y-138050057D01*
X264362023Y-138050057D02*
X264409642Y-138145295D01*
X264409642Y-138145295D02*
X264409642Y-138288152D01*
X264409642Y-138288152D02*
X264362023Y-138383390D01*
X264362023Y-138383390D02*
X264314404Y-138431009D01*
X264314404Y-138431009D02*
X264219166Y-138478628D01*
X264219166Y-138478628D02*
X263838214Y-138478628D01*
X265362023Y-138954819D02*
X264790595Y-138954819D01*
X265076309Y-138954819D02*
X265076309Y-137954819D01*
X265076309Y-137954819D02*
X264981071Y-138097676D01*
X264981071Y-138097676D02*
X264885833Y-138192914D01*
X264885833Y-138192914D02*
X264790595Y-138240533D01*
X266266785Y-137954819D02*
X265790595Y-137954819D01*
X265790595Y-137954819D02*
X265742976Y-138431009D01*
X265742976Y-138431009D02*
X265790595Y-138383390D01*
X265790595Y-138383390D02*
X265885833Y-138335771D01*
X265885833Y-138335771D02*
X266123928Y-138335771D01*
X266123928Y-138335771D02*
X266219166Y-138383390D01*
X266219166Y-138383390D02*
X266266785Y-138431009D01*
X266266785Y-138431009D02*
X266314404Y-138526247D01*
X266314404Y-138526247D02*
X266314404Y-138764342D01*
X266314404Y-138764342D02*
X266266785Y-138859580D01*
X266266785Y-138859580D02*
X266219166Y-138907200D01*
X266219166Y-138907200D02*
X266123928Y-138954819D01*
X266123928Y-138954819D02*
X265885833Y-138954819D01*
X265885833Y-138954819D02*
X265790595Y-138907200D01*
X265790595Y-138907200D02*
X265742976Y-138859580D01*
X241602080Y-125692857D02*
X241649700Y-125740476D01*
X241649700Y-125740476D02*
X241697319Y-125883333D01*
X241697319Y-125883333D02*
X241697319Y-125978571D01*
X241697319Y-125978571D02*
X241649700Y-126121428D01*
X241649700Y-126121428D02*
X241554461Y-126216666D01*
X241554461Y-126216666D02*
X241459223Y-126264285D01*
X241459223Y-126264285D02*
X241268747Y-126311904D01*
X241268747Y-126311904D02*
X241125890Y-126311904D01*
X241125890Y-126311904D02*
X240935414Y-126264285D01*
X240935414Y-126264285D02*
X240840176Y-126216666D01*
X240840176Y-126216666D02*
X240744938Y-126121428D01*
X240744938Y-126121428D02*
X240697319Y-125978571D01*
X240697319Y-125978571D02*
X240697319Y-125883333D01*
X240697319Y-125883333D02*
X240744938Y-125740476D01*
X240744938Y-125740476D02*
X240792557Y-125692857D01*
X240792557Y-125311904D02*
X240744938Y-125264285D01*
X240744938Y-125264285D02*
X240697319Y-125169047D01*
X240697319Y-125169047D02*
X240697319Y-124930952D01*
X240697319Y-124930952D02*
X240744938Y-124835714D01*
X240744938Y-124835714D02*
X240792557Y-124788095D01*
X240792557Y-124788095D02*
X240887795Y-124740476D01*
X240887795Y-124740476D02*
X240983033Y-124740476D01*
X240983033Y-124740476D02*
X241125890Y-124788095D01*
X241125890Y-124788095D02*
X241697319Y-125359523D01*
X241697319Y-125359523D02*
X241697319Y-124740476D01*
X240697319Y-123883333D02*
X240697319Y-124073809D01*
X240697319Y-124073809D02*
X240744938Y-124169047D01*
X240744938Y-124169047D02*
X240792557Y-124216666D01*
X240792557Y-124216666D02*
X240935414Y-124311904D01*
X240935414Y-124311904D02*
X241125890Y-124359523D01*
X241125890Y-124359523D02*
X241506842Y-124359523D01*
X241506842Y-124359523D02*
X241602080Y-124311904D01*
X241602080Y-124311904D02*
X241649700Y-124264285D01*
X241649700Y-124264285D02*
X241697319Y-124169047D01*
X241697319Y-124169047D02*
X241697319Y-123978571D01*
X241697319Y-123978571D02*
X241649700Y-123883333D01*
X241649700Y-123883333D02*
X241602080Y-123835714D01*
X241602080Y-123835714D02*
X241506842Y-123788095D01*
X241506842Y-123788095D02*
X241268747Y-123788095D01*
X241268747Y-123788095D02*
X241173509Y-123835714D01*
X241173509Y-123835714D02*
X241125890Y-123883333D01*
X241125890Y-123883333D02*
X241078271Y-123978571D01*
X241078271Y-123978571D02*
X241078271Y-124169047D01*
X241078271Y-124169047D02*
X241125890Y-124264285D01*
X241125890Y-124264285D02*
X241173509Y-124311904D01*
X241173509Y-124311904D02*
X241268747Y-124359523D01*
X186210595Y-115534819D02*
X186210595Y-116344342D01*
X186210595Y-116344342D02*
X186258214Y-116439580D01*
X186258214Y-116439580D02*
X186305833Y-116487200D01*
X186305833Y-116487200D02*
X186401071Y-116534819D01*
X186401071Y-116534819D02*
X186591547Y-116534819D01*
X186591547Y-116534819D02*
X186686785Y-116487200D01*
X186686785Y-116487200D02*
X186734404Y-116439580D01*
X186734404Y-116439580D02*
X186782023Y-116344342D01*
X186782023Y-116344342D02*
X186782023Y-115534819D01*
X187162976Y-115534819D02*
X187782023Y-115534819D01*
X187782023Y-115534819D02*
X187448690Y-115915771D01*
X187448690Y-115915771D02*
X187591547Y-115915771D01*
X187591547Y-115915771D02*
X187686785Y-115963390D01*
X187686785Y-115963390D02*
X187734404Y-116011009D01*
X187734404Y-116011009D02*
X187782023Y-116106247D01*
X187782023Y-116106247D02*
X187782023Y-116344342D01*
X187782023Y-116344342D02*
X187734404Y-116439580D01*
X187734404Y-116439580D02*
X187686785Y-116487200D01*
X187686785Y-116487200D02*
X187591547Y-116534819D01*
X187591547Y-116534819D02*
X187305833Y-116534819D01*
X187305833Y-116534819D02*
X187210595Y-116487200D01*
X187210595Y-116487200D02*
X187162976Y-116439580D01*
X159474405Y-136644819D02*
X159474405Y-135644819D01*
X159474405Y-135644819D02*
X159712500Y-135644819D01*
X159712500Y-135644819D02*
X159855357Y-135692438D01*
X159855357Y-135692438D02*
X159950595Y-135787676D01*
X159950595Y-135787676D02*
X159998214Y-135882914D01*
X159998214Y-135882914D02*
X160045833Y-136073390D01*
X160045833Y-136073390D02*
X160045833Y-136216247D01*
X160045833Y-136216247D02*
X159998214Y-136406723D01*
X159998214Y-136406723D02*
X159950595Y-136501961D01*
X159950595Y-136501961D02*
X159855357Y-136597200D01*
X159855357Y-136597200D02*
X159712500Y-136644819D01*
X159712500Y-136644819D02*
X159474405Y-136644819D01*
X160998214Y-136644819D02*
X160426786Y-136644819D01*
X160712500Y-136644819D02*
X160712500Y-135644819D01*
X160712500Y-135644819D02*
X160617262Y-135787676D01*
X160617262Y-135787676D02*
X160522024Y-135882914D01*
X160522024Y-135882914D02*
X160426786Y-135930533D01*
X195265833Y-121839580D02*
X195218214Y-121887200D01*
X195218214Y-121887200D02*
X195075357Y-121934819D01*
X195075357Y-121934819D02*
X194980119Y-121934819D01*
X194980119Y-121934819D02*
X194837262Y-121887200D01*
X194837262Y-121887200D02*
X194742024Y-121791961D01*
X194742024Y-121791961D02*
X194694405Y-121696723D01*
X194694405Y-121696723D02*
X194646786Y-121506247D01*
X194646786Y-121506247D02*
X194646786Y-121363390D01*
X194646786Y-121363390D02*
X194694405Y-121172914D01*
X194694405Y-121172914D02*
X194742024Y-121077676D01*
X194742024Y-121077676D02*
X194837262Y-120982438D01*
X194837262Y-120982438D02*
X194980119Y-120934819D01*
X194980119Y-120934819D02*
X195075357Y-120934819D01*
X195075357Y-120934819D02*
X195218214Y-120982438D01*
X195218214Y-120982438D02*
X195265833Y-121030057D01*
X195742024Y-121934819D02*
X195932500Y-121934819D01*
X195932500Y-121934819D02*
X196027738Y-121887200D01*
X196027738Y-121887200D02*
X196075357Y-121839580D01*
X196075357Y-121839580D02*
X196170595Y-121696723D01*
X196170595Y-121696723D02*
X196218214Y-121506247D01*
X196218214Y-121506247D02*
X196218214Y-121125295D01*
X196218214Y-121125295D02*
X196170595Y-121030057D01*
X196170595Y-121030057D02*
X196122976Y-120982438D01*
X196122976Y-120982438D02*
X196027738Y-120934819D01*
X196027738Y-120934819D02*
X195837262Y-120934819D01*
X195837262Y-120934819D02*
X195742024Y-120982438D01*
X195742024Y-120982438D02*
X195694405Y-121030057D01*
X195694405Y-121030057D02*
X195646786Y-121125295D01*
X195646786Y-121125295D02*
X195646786Y-121363390D01*
X195646786Y-121363390D02*
X195694405Y-121458628D01*
X195694405Y-121458628D02*
X195742024Y-121506247D01*
X195742024Y-121506247D02*
X195837262Y-121553866D01*
X195837262Y-121553866D02*
X196027738Y-121553866D01*
X196027738Y-121553866D02*
X196122976Y-121506247D01*
X196122976Y-121506247D02*
X196170595Y-121458628D01*
X196170595Y-121458628D02*
X196218214Y-121363390D01*
X243919642Y-134699580D02*
X243872023Y-134747200D01*
X243872023Y-134747200D02*
X243729166Y-134794819D01*
X243729166Y-134794819D02*
X243633928Y-134794819D01*
X243633928Y-134794819D02*
X243491071Y-134747200D01*
X243491071Y-134747200D02*
X243395833Y-134651961D01*
X243395833Y-134651961D02*
X243348214Y-134556723D01*
X243348214Y-134556723D02*
X243300595Y-134366247D01*
X243300595Y-134366247D02*
X243300595Y-134223390D01*
X243300595Y-134223390D02*
X243348214Y-134032914D01*
X243348214Y-134032914D02*
X243395833Y-133937676D01*
X243395833Y-133937676D02*
X243491071Y-133842438D01*
X243491071Y-133842438D02*
X243633928Y-133794819D01*
X243633928Y-133794819D02*
X243729166Y-133794819D01*
X243729166Y-133794819D02*
X243872023Y-133842438D01*
X243872023Y-133842438D02*
X243919642Y-133890057D01*
X244252976Y-133794819D02*
X244872023Y-133794819D01*
X244872023Y-133794819D02*
X244538690Y-134175771D01*
X244538690Y-134175771D02*
X244681547Y-134175771D01*
X244681547Y-134175771D02*
X244776785Y-134223390D01*
X244776785Y-134223390D02*
X244824404Y-134271009D01*
X244824404Y-134271009D02*
X244872023Y-134366247D01*
X244872023Y-134366247D02*
X244872023Y-134604342D01*
X244872023Y-134604342D02*
X244824404Y-134699580D01*
X244824404Y-134699580D02*
X244776785Y-134747200D01*
X244776785Y-134747200D02*
X244681547Y-134794819D01*
X244681547Y-134794819D02*
X244395833Y-134794819D01*
X244395833Y-134794819D02*
X244300595Y-134747200D01*
X244300595Y-134747200D02*
X244252976Y-134699580D01*
X245491071Y-133794819D02*
X245586309Y-133794819D01*
X245586309Y-133794819D02*
X245681547Y-133842438D01*
X245681547Y-133842438D02*
X245729166Y-133890057D01*
X245729166Y-133890057D02*
X245776785Y-133985295D01*
X245776785Y-133985295D02*
X245824404Y-134175771D01*
X245824404Y-134175771D02*
X245824404Y-134413866D01*
X245824404Y-134413866D02*
X245776785Y-134604342D01*
X245776785Y-134604342D02*
X245729166Y-134699580D01*
X245729166Y-134699580D02*
X245681547Y-134747200D01*
X245681547Y-134747200D02*
X245586309Y-134794819D01*
X245586309Y-134794819D02*
X245491071Y-134794819D01*
X245491071Y-134794819D02*
X245395833Y-134747200D01*
X245395833Y-134747200D02*
X245348214Y-134699580D01*
X245348214Y-134699580D02*
X245300595Y-134604342D01*
X245300595Y-134604342D02*
X245252976Y-134413866D01*
X245252976Y-134413866D02*
X245252976Y-134175771D01*
X245252976Y-134175771D02*
X245300595Y-133985295D01*
X245300595Y-133985295D02*
X245348214Y-133890057D01*
X245348214Y-133890057D02*
X245395833Y-133842438D01*
X245395833Y-133842438D02*
X245491071Y-133794819D01*
X254587142Y-105529819D02*
X254253809Y-105053628D01*
X254015714Y-105529819D02*
X254015714Y-104529819D01*
X254015714Y-104529819D02*
X254396666Y-104529819D01*
X254396666Y-104529819D02*
X254491904Y-104577438D01*
X254491904Y-104577438D02*
X254539523Y-104625057D01*
X254539523Y-104625057D02*
X254587142Y-104720295D01*
X254587142Y-104720295D02*
X254587142Y-104863152D01*
X254587142Y-104863152D02*
X254539523Y-104958390D01*
X254539523Y-104958390D02*
X254491904Y-105006009D01*
X254491904Y-105006009D02*
X254396666Y-105053628D01*
X254396666Y-105053628D02*
X254015714Y-105053628D01*
X255539523Y-105529819D02*
X254968095Y-105529819D01*
X255253809Y-105529819D02*
X255253809Y-104529819D01*
X255253809Y-104529819D02*
X255158571Y-104672676D01*
X255158571Y-104672676D02*
X255063333Y-104767914D01*
X255063333Y-104767914D02*
X254968095Y-104815533D01*
X255872857Y-104529819D02*
X256491904Y-104529819D01*
X256491904Y-104529819D02*
X256158571Y-104910771D01*
X256158571Y-104910771D02*
X256301428Y-104910771D01*
X256301428Y-104910771D02*
X256396666Y-104958390D01*
X256396666Y-104958390D02*
X256444285Y-105006009D01*
X256444285Y-105006009D02*
X256491904Y-105101247D01*
X256491904Y-105101247D02*
X256491904Y-105339342D01*
X256491904Y-105339342D02*
X256444285Y-105434580D01*
X256444285Y-105434580D02*
X256396666Y-105482200D01*
X256396666Y-105482200D02*
X256301428Y-105529819D01*
X256301428Y-105529819D02*
X256015714Y-105529819D01*
X256015714Y-105529819D02*
X255920476Y-105482200D01*
X255920476Y-105482200D02*
X255872857Y-105434580D01*
X251499642Y-123592319D02*
X251166309Y-123116128D01*
X250928214Y-123592319D02*
X250928214Y-122592319D01*
X250928214Y-122592319D02*
X251309166Y-122592319D01*
X251309166Y-122592319D02*
X251404404Y-122639938D01*
X251404404Y-122639938D02*
X251452023Y-122687557D01*
X251452023Y-122687557D02*
X251499642Y-122782795D01*
X251499642Y-122782795D02*
X251499642Y-122925652D01*
X251499642Y-122925652D02*
X251452023Y-123020890D01*
X251452023Y-123020890D02*
X251404404Y-123068509D01*
X251404404Y-123068509D02*
X251309166Y-123116128D01*
X251309166Y-123116128D02*
X250928214Y-123116128D01*
X252452023Y-123592319D02*
X251880595Y-123592319D01*
X252166309Y-123592319D02*
X252166309Y-122592319D01*
X252166309Y-122592319D02*
X252071071Y-122735176D01*
X252071071Y-122735176D02*
X251975833Y-122830414D01*
X251975833Y-122830414D02*
X251880595Y-122878033D01*
X253023452Y-123020890D02*
X252928214Y-122973271D01*
X252928214Y-122973271D02*
X252880595Y-122925652D01*
X252880595Y-122925652D02*
X252832976Y-122830414D01*
X252832976Y-122830414D02*
X252832976Y-122782795D01*
X252832976Y-122782795D02*
X252880595Y-122687557D01*
X252880595Y-122687557D02*
X252928214Y-122639938D01*
X252928214Y-122639938D02*
X253023452Y-122592319D01*
X253023452Y-122592319D02*
X253213928Y-122592319D01*
X253213928Y-122592319D02*
X253309166Y-122639938D01*
X253309166Y-122639938D02*
X253356785Y-122687557D01*
X253356785Y-122687557D02*
X253404404Y-122782795D01*
X253404404Y-122782795D02*
X253404404Y-122830414D01*
X253404404Y-122830414D02*
X253356785Y-122925652D01*
X253356785Y-122925652D02*
X253309166Y-122973271D01*
X253309166Y-122973271D02*
X253213928Y-123020890D01*
X253213928Y-123020890D02*
X253023452Y-123020890D01*
X253023452Y-123020890D02*
X252928214Y-123068509D01*
X252928214Y-123068509D02*
X252880595Y-123116128D01*
X252880595Y-123116128D02*
X252832976Y-123211366D01*
X252832976Y-123211366D02*
X252832976Y-123401842D01*
X252832976Y-123401842D02*
X252880595Y-123497080D01*
X252880595Y-123497080D02*
X252928214Y-123544700D01*
X252928214Y-123544700D02*
X253023452Y-123592319D01*
X253023452Y-123592319D02*
X253213928Y-123592319D01*
X253213928Y-123592319D02*
X253309166Y-123544700D01*
X253309166Y-123544700D02*
X253356785Y-123497080D01*
X253356785Y-123497080D02*
X253404404Y-123401842D01*
X253404404Y-123401842D02*
X253404404Y-123211366D01*
X253404404Y-123211366D02*
X253356785Y-123116128D01*
X253356785Y-123116128D02*
X253309166Y-123068509D01*
X253309166Y-123068509D02*
X253213928Y-123020890D01*
X262867319Y-134736666D02*
X262867319Y-135212856D01*
X262867319Y-135212856D02*
X261867319Y-135212856D01*
X261867319Y-134498570D02*
X261867319Y-133879523D01*
X261867319Y-133879523D02*
X262248271Y-134212856D01*
X262248271Y-134212856D02*
X262248271Y-134069999D01*
X262248271Y-134069999D02*
X262295890Y-133974761D01*
X262295890Y-133974761D02*
X262343509Y-133927142D01*
X262343509Y-133927142D02*
X262438747Y-133879523D01*
X262438747Y-133879523D02*
X262676842Y-133879523D01*
X262676842Y-133879523D02*
X262772080Y-133927142D01*
X262772080Y-133927142D02*
X262819700Y-133974761D01*
X262819700Y-133974761D02*
X262867319Y-134069999D01*
X262867319Y-134069999D02*
X262867319Y-134355713D01*
X262867319Y-134355713D02*
X262819700Y-134450951D01*
X262819700Y-134450951D02*
X262772080Y-134498570D01*
D12*
X164079167Y-99829800D02*
X164222024Y-99877419D01*
X164222024Y-99877419D02*
X164460119Y-99877419D01*
X164460119Y-99877419D02*
X164555357Y-99829800D01*
X164555357Y-99829800D02*
X164602976Y-99782180D01*
X164602976Y-99782180D02*
X164650595Y-99686942D01*
X164650595Y-99686942D02*
X164650595Y-99591704D01*
X164650595Y-99591704D02*
X164602976Y-99496466D01*
X164602976Y-99496466D02*
X164555357Y-99448847D01*
X164555357Y-99448847D02*
X164460119Y-99401228D01*
X164460119Y-99401228D02*
X164269643Y-99353609D01*
X164269643Y-99353609D02*
X164174405Y-99305990D01*
X164174405Y-99305990D02*
X164126786Y-99258371D01*
X164126786Y-99258371D02*
X164079167Y-99163133D01*
X164079167Y-99163133D02*
X164079167Y-99067895D01*
X164079167Y-99067895D02*
X164126786Y-98972657D01*
X164126786Y-98972657D02*
X164174405Y-98925038D01*
X164174405Y-98925038D02*
X164269643Y-98877419D01*
X164269643Y-98877419D02*
X164507738Y-98877419D01*
X164507738Y-98877419D02*
X164650595Y-98925038D01*
X164983929Y-98877419D02*
X165222024Y-99877419D01*
X165222024Y-99877419D02*
X165412500Y-99163133D01*
X165412500Y-99163133D02*
X165602976Y-99877419D01*
X165602976Y-99877419D02*
X165841072Y-98877419D01*
X166650595Y-99210752D02*
X166650595Y-99877419D01*
X166412500Y-98829800D02*
X166174405Y-99544085D01*
X166174405Y-99544085D02*
X166793452Y-99544085D01*
D11*
X193910595Y-127254819D02*
X193910595Y-128064342D01*
X193910595Y-128064342D02*
X193958214Y-128159580D01*
X193958214Y-128159580D02*
X194005833Y-128207200D01*
X194005833Y-128207200D02*
X194101071Y-128254819D01*
X194101071Y-128254819D02*
X194291547Y-128254819D01*
X194291547Y-128254819D02*
X194386785Y-128207200D01*
X194386785Y-128207200D02*
X194434404Y-128159580D01*
X194434404Y-128159580D02*
X194482023Y-128064342D01*
X194482023Y-128064342D02*
X194482023Y-127254819D01*
X195482023Y-128254819D02*
X194910595Y-128254819D01*
X195196309Y-128254819D02*
X195196309Y-127254819D01*
X195196309Y-127254819D02*
X195101071Y-127397676D01*
X195101071Y-127397676D02*
X195005833Y-127492914D01*
X195005833Y-127492914D02*
X194910595Y-127540533D01*
X263587142Y-115964580D02*
X263539523Y-116012200D01*
X263539523Y-116012200D02*
X263396666Y-116059819D01*
X263396666Y-116059819D02*
X263301428Y-116059819D01*
X263301428Y-116059819D02*
X263158571Y-116012200D01*
X263158571Y-116012200D02*
X263063333Y-115916961D01*
X263063333Y-115916961D02*
X263015714Y-115821723D01*
X263015714Y-115821723D02*
X262968095Y-115631247D01*
X262968095Y-115631247D02*
X262968095Y-115488390D01*
X262968095Y-115488390D02*
X263015714Y-115297914D01*
X263015714Y-115297914D02*
X263063333Y-115202676D01*
X263063333Y-115202676D02*
X263158571Y-115107438D01*
X263158571Y-115107438D02*
X263301428Y-115059819D01*
X263301428Y-115059819D02*
X263396666Y-115059819D01*
X263396666Y-115059819D02*
X263539523Y-115107438D01*
X263539523Y-115107438D02*
X263587142Y-115155057D01*
X263968095Y-115155057D02*
X264015714Y-115107438D01*
X264015714Y-115107438D02*
X264110952Y-115059819D01*
X264110952Y-115059819D02*
X264349047Y-115059819D01*
X264349047Y-115059819D02*
X264444285Y-115107438D01*
X264444285Y-115107438D02*
X264491904Y-115155057D01*
X264491904Y-115155057D02*
X264539523Y-115250295D01*
X264539523Y-115250295D02*
X264539523Y-115345533D01*
X264539523Y-115345533D02*
X264491904Y-115488390D01*
X264491904Y-115488390D02*
X263920476Y-116059819D01*
X263920476Y-116059819D02*
X264539523Y-116059819D01*
X264872857Y-115059819D02*
X265539523Y-115059819D01*
X265539523Y-115059819D02*
X265110952Y-116059819D01*
X161857319Y-139056666D02*
X161381128Y-139389999D01*
X161857319Y-139628094D02*
X160857319Y-139628094D01*
X160857319Y-139628094D02*
X160857319Y-139247142D01*
X160857319Y-139247142D02*
X160904938Y-139151904D01*
X160904938Y-139151904D02*
X160952557Y-139104285D01*
X160952557Y-139104285D02*
X161047795Y-139056666D01*
X161047795Y-139056666D02*
X161190652Y-139056666D01*
X161190652Y-139056666D02*
X161285890Y-139104285D01*
X161285890Y-139104285D02*
X161333509Y-139151904D01*
X161333509Y-139151904D02*
X161381128Y-139247142D01*
X161381128Y-139247142D02*
X161381128Y-139628094D01*
X161857319Y-138104285D02*
X161857319Y-138675713D01*
X161857319Y-138389999D02*
X160857319Y-138389999D01*
X160857319Y-138389999D02*
X161000176Y-138485237D01*
X161000176Y-138485237D02*
X161095414Y-138580475D01*
X161095414Y-138580475D02*
X161143033Y-138675713D01*
X242002080Y-141092857D02*
X242049700Y-141140476D01*
X242049700Y-141140476D02*
X242097319Y-141283333D01*
X242097319Y-141283333D02*
X242097319Y-141378571D01*
X242097319Y-141378571D02*
X242049700Y-141521428D01*
X242049700Y-141521428D02*
X241954461Y-141616666D01*
X241954461Y-141616666D02*
X241859223Y-141664285D01*
X241859223Y-141664285D02*
X241668747Y-141711904D01*
X241668747Y-141711904D02*
X241525890Y-141711904D01*
X241525890Y-141711904D02*
X241335414Y-141664285D01*
X241335414Y-141664285D02*
X241240176Y-141616666D01*
X241240176Y-141616666D02*
X241144938Y-141521428D01*
X241144938Y-141521428D02*
X241097319Y-141378571D01*
X241097319Y-141378571D02*
X241097319Y-141283333D01*
X241097319Y-141283333D02*
X241144938Y-141140476D01*
X241144938Y-141140476D02*
X241192557Y-141092857D01*
X241097319Y-140759523D02*
X241097319Y-140140476D01*
X241097319Y-140140476D02*
X241478271Y-140473809D01*
X241478271Y-140473809D02*
X241478271Y-140330952D01*
X241478271Y-140330952D02*
X241525890Y-140235714D01*
X241525890Y-140235714D02*
X241573509Y-140188095D01*
X241573509Y-140188095D02*
X241668747Y-140140476D01*
X241668747Y-140140476D02*
X241906842Y-140140476D01*
X241906842Y-140140476D02*
X242002080Y-140188095D01*
X242002080Y-140188095D02*
X242049700Y-140235714D01*
X242049700Y-140235714D02*
X242097319Y-140330952D01*
X242097319Y-140330952D02*
X242097319Y-140616666D01*
X242097319Y-140616666D02*
X242049700Y-140711904D01*
X242049700Y-140711904D02*
X242002080Y-140759523D01*
X241192557Y-139759523D02*
X241144938Y-139711904D01*
X241144938Y-139711904D02*
X241097319Y-139616666D01*
X241097319Y-139616666D02*
X241097319Y-139378571D01*
X241097319Y-139378571D02*
X241144938Y-139283333D01*
X241144938Y-139283333D02*
X241192557Y-139235714D01*
X241192557Y-139235714D02*
X241287795Y-139188095D01*
X241287795Y-139188095D02*
X241383033Y-139188095D01*
X241383033Y-139188095D02*
X241525890Y-139235714D01*
X241525890Y-139235714D02*
X242097319Y-139807142D01*
X242097319Y-139807142D02*
X242097319Y-139188095D01*
X198285833Y-141864819D02*
X197952500Y-141388628D01*
X197714405Y-141864819D02*
X197714405Y-140864819D01*
X197714405Y-140864819D02*
X198095357Y-140864819D01*
X198095357Y-140864819D02*
X198190595Y-140912438D01*
X198190595Y-140912438D02*
X198238214Y-140960057D01*
X198238214Y-140960057D02*
X198285833Y-141055295D01*
X198285833Y-141055295D02*
X198285833Y-141198152D01*
X198285833Y-141198152D02*
X198238214Y-141293390D01*
X198238214Y-141293390D02*
X198190595Y-141341009D01*
X198190595Y-141341009D02*
X198095357Y-141388628D01*
X198095357Y-141388628D02*
X197714405Y-141388628D01*
X198619167Y-140864819D02*
X199238214Y-140864819D01*
X199238214Y-140864819D02*
X198904881Y-141245771D01*
X198904881Y-141245771D02*
X199047738Y-141245771D01*
X199047738Y-141245771D02*
X199142976Y-141293390D01*
X199142976Y-141293390D02*
X199190595Y-141341009D01*
X199190595Y-141341009D02*
X199238214Y-141436247D01*
X199238214Y-141436247D02*
X199238214Y-141674342D01*
X199238214Y-141674342D02*
X199190595Y-141769580D01*
X199190595Y-141769580D02*
X199142976Y-141817200D01*
X199142976Y-141817200D02*
X199047738Y-141864819D01*
X199047738Y-141864819D02*
X198762024Y-141864819D01*
X198762024Y-141864819D02*
X198666786Y-141817200D01*
X198666786Y-141817200D02*
X198619167Y-141769580D01*
%TO.C,R12*%
D13*
X251569564Y-105590000D02*
X251115436Y-105590000D01*
X251569564Y-107060000D02*
X251115436Y-107060000D01*
%TO.C,C18*%
X253870000Y-109613748D02*
X253870000Y-111036252D01*
X256590000Y-109613748D02*
X256590000Y-111036252D01*
%TO.C,C25*%
X246631248Y-119490000D02*
X248053752Y-119490000D01*
X246631248Y-122210000D02*
X248053752Y-122210000D01*
%TO.C,C28*%
X259870000Y-111036252D02*
X259870000Y-109613748D01*
X262590000Y-111036252D02*
X262590000Y-109613748D01*
%TO.C,C22*%
X260695000Y-115261252D02*
X260695000Y-114738748D01*
X262165000Y-115261252D02*
X262165000Y-114738748D01*
%TO.C,C15*%
X199441248Y-126465000D02*
X199963752Y-126465000D01*
X199441248Y-127935000D02*
X199963752Y-127935000D01*
%TO.C,U4*%
X249870000Y-110465000D02*
X250345000Y-110465000D01*
X249870000Y-110940000D02*
X249870000Y-110465000D01*
X249870000Y-113685000D02*
X249870000Y-113210000D01*
X250345000Y-113685000D02*
X249870000Y-113685000D01*
X252615000Y-110465000D02*
X253090000Y-110465000D01*
X253090000Y-110465000D02*
X253090000Y-110940000D01*
X253090000Y-113210000D02*
X253090000Y-113685000D01*
X253090000Y-113685000D02*
X252615000Y-113685000D01*
X249340000Y-111325000D02*
X249010000Y-111565000D01*
X249010000Y-111085000D01*
X249340000Y-111325000D01*
G36*
X249340000Y-111325000D02*
G01*
X249010000Y-111565000D01*
X249010000Y-111085000D01*
X249340000Y-111325000D01*
G37*
%TO.C,C7*%
X189563752Y-130615000D02*
X189041248Y-130615000D01*
X189563752Y-132085000D02*
X189041248Y-132085000D01*
%TO.C,R19*%
X255515436Y-124052500D02*
X255969564Y-124052500D01*
X255515436Y-125522500D02*
X255969564Y-125522500D01*
%TO.C,R5*%
X235315436Y-149315000D02*
X235769564Y-149315000D01*
X235315436Y-150785000D02*
X235769564Y-150785000D01*
%TO.C,C6*%
X203761248Y-131135000D02*
X204283752Y-131135000D01*
X203761248Y-132605000D02*
X204283752Y-132605000D01*
%TO.C,J5*%
X176612500Y-128390000D02*
X177952500Y-128390000D01*
X176612500Y-129880000D02*
X176612500Y-128390000D01*
X176612500Y-137200000D02*
X175412500Y-137200000D01*
X176612500Y-137200000D02*
X176612500Y-138690000D01*
X176612500Y-138690000D02*
X177952500Y-138690000D01*
X180672500Y-138690000D02*
X182412500Y-138690000D01*
X182412500Y-128390000D02*
X180672500Y-128390000D01*
X182412500Y-138690000D02*
X182412500Y-128390000D01*
%TO.C,C8*%
X189131248Y-133345000D02*
X189653752Y-133345000D01*
X189131248Y-134815000D02*
X189653752Y-134815000D01*
%TO.C,R10*%
X247657064Y-113790000D02*
X247202936Y-113790000D01*
X247657064Y-115260000D02*
X247202936Y-115260000D01*
%TO.C,Y1*%
X193290000Y-142080000D02*
X193290000Y-145500000D01*
X193290000Y-145500000D02*
X197410000Y-145500000D01*
%TO.C,R29*%
X164657500Y-140257064D02*
X164657500Y-139802936D01*
X166127500Y-140257064D02*
X166127500Y-139802936D01*
%TO.C,R8*%
X259057064Y-105990000D02*
X258602936Y-105990000D01*
X259057064Y-107460000D02*
X258602936Y-107460000D01*
%TO.C,U7*%
X238782500Y-147227500D02*
X240602500Y-147227500D01*
X238782500Y-147277500D02*
X238782500Y-147227500D01*
X238782500Y-150347500D02*
X238782500Y-150297500D01*
X240602500Y-147227500D02*
X240602500Y-147277500D01*
X240602500Y-150297500D02*
X240602500Y-150347500D01*
X240602500Y-150347500D02*
X238782500Y-150347500D01*
X241142500Y-150297500D02*
X241382500Y-150627500D01*
X240902500Y-150627500D01*
X241142500Y-150297500D01*
G36*
X241382500Y-150627500D02*
G01*
X240902500Y-150627500D01*
X241142500Y-150297500D01*
X241382500Y-150627500D01*
G37*
%TO.C,R11*%
X250095000Y-103152064D02*
X250095000Y-102697936D01*
X251565000Y-103152064D02*
X251565000Y-102697936D01*
%TO.C,J4*%
X254707500Y-147075000D02*
X254707500Y-148995000D01*
X254707500Y-152710000D02*
X254707500Y-151005000D01*
X263867500Y-148995000D02*
X263867500Y-147075000D01*
X263867500Y-151005000D02*
X263867500Y-152710000D01*
X263867500Y-152710000D02*
X254707500Y-152710000D01*
%TO.C,U2*%
D12*
X201602500Y-98150000D02*
X201602500Y-100450000D01*
X210502500Y-98150000D02*
X201602500Y-98150000D01*
X210502500Y-98150000D02*
X210502500Y-100450000D01*
X200302500Y-100450000D02*
X211802500Y-100450000D01*
X211802500Y-111450000D01*
X200302500Y-111450000D01*
X200302500Y-100450000D01*
%TO.C,C14*%
D13*
X205997500Y-126148748D02*
X205997500Y-126671252D01*
X207467500Y-126148748D02*
X207467500Y-126671252D01*
%TO.C,R14*%
X259545436Y-142335000D02*
X259999564Y-142335000D01*
X259545436Y-143805000D02*
X259999564Y-143805000D01*
%TO.C,L2*%
X245620000Y-111335000D02*
X245620000Y-108115000D01*
X248840000Y-108115000D02*
X248840000Y-111335000D01*
%TO.C,C5*%
X201367500Y-138598748D02*
X201367500Y-139121252D01*
X202837500Y-138598748D02*
X202837500Y-139121252D01*
%TO.C,R2*%
X203579564Y-124295000D02*
X203125436Y-124295000D01*
X203579564Y-125765000D02*
X203125436Y-125765000D01*
%TO.C,C13*%
X204223752Y-135425000D02*
X203701248Y-135425000D01*
X204223752Y-136895000D02*
X203701248Y-136895000D01*
%TO.C,C16*%
X199451248Y-124415000D02*
X199973752Y-124415000D01*
X199451248Y-125885000D02*
X199973752Y-125885000D01*
%TO.C,R23*%
X162532936Y-150565000D02*
X162987064Y-150565000D01*
X162532936Y-152035000D02*
X162987064Y-152035000D01*
%TO.C,C37*%
X206891248Y-113565000D02*
X207413752Y-113565000D01*
X206891248Y-115035000D02*
X207413752Y-115035000D01*
%TO.C,R17*%
X240295000Y-144022936D02*
X240295000Y-144477064D01*
X241765000Y-144022936D02*
X241765000Y-144477064D01*
%TO.C,C35*%
X194281248Y-113575000D02*
X194803752Y-113575000D01*
X194281248Y-115045000D02*
X194803752Y-115045000D01*
%TO.C,C19*%
X257168748Y-114190000D02*
X257691252Y-114190000D01*
X257168748Y-115660000D02*
X257691252Y-115660000D01*
%TO.C,SW2*%
X159302500Y-116095241D02*
X171522500Y-116095241D01*
X159302500Y-118605241D02*
X159302500Y-116095241D01*
X159302500Y-123505241D02*
X159302500Y-120905241D01*
X159302500Y-128315241D02*
X159302500Y-125805241D01*
X171522500Y-118605241D02*
X171522500Y-116095241D01*
X171522500Y-123505241D02*
X171522500Y-120905241D01*
X171522500Y-128315241D02*
X159302500Y-128315241D01*
X171522500Y-128315241D02*
X171522500Y-125805241D01*
X168962500Y-122205241D02*
G75*
G02*
X161862500Y-122205241I-3550000J0D01*
G01*
X161862500Y-122205241D02*
G75*
G02*
X168962500Y-122205241I3550000J0D01*
G01*
%TO.C,D2*%
D12*
X245662500Y-150920000D02*
X244662500Y-151920000D01*
X246162500Y-150920000D02*
X246162500Y-151920000D01*
X246662500Y-150920000D02*
X247662500Y-151920000D01*
X243662500Y-145870000D02*
X248662500Y-145870000D01*
X248662500Y-152370000D01*
X243662500Y-152370000D01*
X243662500Y-145870000D01*
%TO.C,C20*%
D13*
X244843748Y-104565000D02*
X246266252Y-104565000D01*
X244843748Y-107285000D02*
X246266252Y-107285000D01*
%TO.C,C2*%
X191015000Y-144001252D02*
X191015000Y-143478748D01*
X192485000Y-144001252D02*
X192485000Y-143478748D01*
%TO.C,R26*%
X233332500Y-126987936D02*
X233332500Y-127442064D01*
X234802500Y-126987936D02*
X234802500Y-127442064D01*
%TO.C,C11*%
X203663752Y-133175000D02*
X203141248Y-133175000D01*
X203663752Y-134645000D02*
X203141248Y-134645000D01*
%TO.C,C24*%
X248407500Y-129726248D02*
X248407500Y-130248752D01*
X249877500Y-129726248D02*
X249877500Y-130248752D01*
%TO.C,C23*%
X236627500Y-126978748D02*
X236627500Y-127501252D01*
X238097500Y-126978748D02*
X238097500Y-127501252D01*
%TO.C,R9*%
X251544564Y-114590000D02*
X251090436Y-114590000D01*
X251544564Y-116060000D02*
X251090436Y-116060000D01*
%TO.C,TH1*%
X257857500Y-128060436D02*
X257857500Y-128514564D01*
X259327500Y-128060436D02*
X259327500Y-128514564D01*
%TO.C,C31*%
X244928752Y-128490000D02*
X243506248Y-128490000D01*
X244928752Y-131210000D02*
X243506248Y-131210000D01*
%TO.C,C29*%
X245782500Y-141161252D02*
X245782500Y-139738748D01*
X248502500Y-141161252D02*
X248502500Y-139738748D01*
%TO.C,C12*%
X190321248Y-126785000D02*
X190843752Y-126785000D01*
X190321248Y-128255000D02*
X190843752Y-128255000D01*
%TO.C,D3*%
X171262500Y-132430000D02*
X171262500Y-131965000D01*
X171262500Y-135055000D02*
X171262500Y-134590000D01*
X165914364Y-132430000D02*
G75*
G02*
X171262500Y-131965170I2788136J-1080000D01*
G01*
X166447816Y-132430000D02*
G75*
G02*
X170957184Y-132430000I2254684J-1080000D01*
G01*
X170957184Y-134590000D02*
G75*
G02*
X166447816Y-134590000I-2254684J1080000D01*
G01*
X171262500Y-135054830D02*
G75*
G02*
X165914364Y-134590000I-2560000J1544830D01*
G01*
%TO.C,U6*%
X251332500Y-127277500D02*
X251807500Y-127277500D01*
X251332500Y-127752500D02*
X251332500Y-127277500D01*
X251332500Y-131497500D02*
X251332500Y-131022500D01*
X251807500Y-131497500D02*
X251332500Y-131497500D01*
X255077500Y-127277500D02*
X255552500Y-127277500D01*
X255552500Y-127277500D02*
X255552500Y-127752500D01*
X255552500Y-131022500D02*
X255552500Y-131497500D01*
X255552500Y-131497500D02*
X255077500Y-131497500D01*
X256082500Y-130637500D02*
X256412500Y-130397500D01*
X256412500Y-130877500D01*
X256082500Y-130637500D01*
G36*
X256412500Y-130877500D02*
G01*
X256082500Y-130637500D01*
X256412500Y-130397500D01*
X256412500Y-130877500D01*
G37*
%TO.C,R16*%
X248232500Y-125898752D02*
X248232500Y-124476248D01*
X250052500Y-125898752D02*
X250052500Y-124476248D01*
%TO.C,C34*%
X191313752Y-113575000D02*
X190791248Y-113575000D01*
X191313752Y-115045000D02*
X190791248Y-115045000D01*
%TO.C,C17*%
X263070000Y-109613748D02*
X263070000Y-111036252D01*
X265790000Y-109613748D02*
X265790000Y-111036252D01*
%TO.C,C10*%
X203653752Y-128545000D02*
X203131248Y-128545000D01*
X203653752Y-130015000D02*
X203131248Y-130015000D01*
%TO.C,U5*%
D12*
X188472500Y-98150000D02*
X188472500Y-100450000D01*
X197372500Y-98150000D02*
X188472500Y-98150000D01*
X197372500Y-98150000D02*
X197372500Y-100450000D01*
X187172500Y-100450000D02*
X198672500Y-100450000D01*
X198672500Y-111450000D01*
X187172500Y-111450000D01*
X187172500Y-100450000D01*
%TO.C,R20*%
D13*
X255515436Y-120715000D02*
X255969564Y-120715000D01*
X255515436Y-122185000D02*
X255969564Y-122185000D01*
%TO.C,C3*%
X193381248Y-139335000D02*
X193903752Y-139335000D01*
X193381248Y-140805000D02*
X193903752Y-140805000D01*
%TO.C,R4*%
X236627500Y-123867064D02*
X236627500Y-123412936D01*
X238097500Y-123867064D02*
X238097500Y-123412936D01*
%TO.C,C33*%
X253403752Y-133052500D02*
X252881248Y-133052500D01*
X253403752Y-134522500D02*
X252881248Y-134522500D01*
%TO.C,SW3*%
D12*
X164692500Y-143700000D02*
X170892500Y-143700000D01*
X170892500Y-149900000D01*
X164692500Y-149900000D01*
X164692500Y-143700000D01*
D14*
X169292500Y-146800000D02*
G75*
G02*
X166292500Y-146800000I-1500000J0D01*
G01*
X166292500Y-146800000D02*
G75*
G02*
X169292500Y-146800000I1500000J0D01*
G01*
%TO.C,C4*%
D13*
X203221248Y-126495000D02*
X203743752Y-126495000D01*
X203221248Y-127965000D02*
X203743752Y-127965000D01*
%TO.C,R27*%
X171427500Y-140327064D02*
X171427500Y-139872936D01*
X172897500Y-140327064D02*
X172897500Y-139872936D01*
%TO.C,R7*%
X258909564Y-140105000D02*
X258455436Y-140105000D01*
X258909564Y-141575000D02*
X258455436Y-141575000D01*
%TO.C,C36*%
X203913752Y-113565000D02*
X203391248Y-113565000D01*
X203913752Y-115035000D02*
X203391248Y-115035000D01*
%TO.C,L1*%
D15*
X200018210Y-124241790D02*
G75*
G02*
X199826790Y-124241790I-95710J0D01*
G01*
X199826790Y-124241790D02*
G75*
G02*
X200018210Y-124241790I95710J0D01*
G01*
%TO.C,SW1*%
D12*
X157302500Y-143700000D02*
X163502500Y-143700000D01*
X163502500Y-149900000D01*
X157302500Y-149900000D01*
X157302500Y-143700000D01*
D14*
X161902500Y-146800000D02*
G75*
G02*
X158902500Y-146800000I-1500000J0D01*
G01*
X158902500Y-146800000D02*
G75*
G02*
X161902500Y-146800000I1500000J0D01*
G01*
%TO.C,R22*%
D13*
X262657064Y-129315000D02*
X262202936Y-129315000D01*
X262657064Y-130785000D02*
X262202936Y-130785000D01*
%TO.C,J1*%
X213442500Y-98110000D02*
X213442500Y-98960000D01*
X213442500Y-101380000D02*
X213442500Y-104330000D01*
X213442500Y-104330000D02*
X215192500Y-104330000D01*
X219412500Y-104330000D02*
X219412500Y-105220000D01*
X221162500Y-98110000D02*
X213442500Y-98110000D01*
X221162500Y-98960000D02*
X221162500Y-98110000D01*
X221162500Y-101380000D02*
X221162500Y-104330000D01*
X221162500Y-104330000D02*
X219412500Y-104330000D01*
%TO.C,R25*%
X250807500Y-144277064D02*
X250807500Y-143822936D01*
X252277500Y-144277064D02*
X252277500Y-143822936D01*
%TO.C,C1*%
X198315000Y-143478748D02*
X198315000Y-144001252D01*
X199785000Y-143478748D02*
X199785000Y-144001252D01*
%TO.C,C21*%
X254695000Y-102338748D02*
X254695000Y-102861252D01*
X256165000Y-102338748D02*
X256165000Y-102861252D01*
%TO.C,R24*%
X166105436Y-150625000D02*
X166559564Y-150625000D01*
X166105436Y-152095000D02*
X166559564Y-152095000D01*
%TO.C,R21*%
X257787500Y-124327064D02*
X257787500Y-123872936D01*
X259257500Y-124327064D02*
X259257500Y-123872936D01*
%TO.C,R6*%
X235315436Y-146715000D02*
X235769564Y-146715000D01*
X235315436Y-148185000D02*
X235769564Y-148185000D01*
%TO.C,R28*%
X168007500Y-140257064D02*
X168007500Y-139802936D01*
X169477500Y-140257064D02*
X169477500Y-139802936D01*
%TO.C,R15*%
X261867500Y-137677064D02*
X261867500Y-137222936D01*
X263337500Y-137677064D02*
X263337500Y-137222936D01*
%TO.C,C26*%
X242182500Y-125761252D02*
X242182500Y-124338748D01*
X244902500Y-125761252D02*
X244902500Y-124338748D01*
%TO.C,U3*%
X186265000Y-117212500D02*
X191785000Y-117212500D01*
X186265000Y-117482500D02*
X186265000Y-117212500D01*
X186265000Y-122732500D02*
X186265000Y-122462500D01*
X191785000Y-117212500D02*
X191785000Y-117482500D01*
X191785000Y-122462500D02*
X191785000Y-122732500D01*
X191785000Y-122732500D02*
X186265000Y-122732500D01*
X185435000Y-117472500D02*
X185095000Y-117002500D01*
X185775000Y-117002500D01*
X185435000Y-117472500D01*
G36*
X185435000Y-117472500D02*
G01*
X185095000Y-117002500D01*
X185775000Y-117002500D01*
X185435000Y-117472500D01*
G37*
%TO.C,D1*%
X161772500Y-132150000D02*
X161772500Y-131994000D01*
X161772500Y-134466000D02*
X161772500Y-134310000D01*
X158541063Y-132150000D02*
G75*
G02*
X161772500Y-131994484I1671437J-1080000D01*
G01*
X159171539Y-132150000D02*
G75*
G02*
X161253461Y-132150000I1040961J-1080000D01*
G01*
X161253461Y-134310000D02*
G75*
G02*
X159171539Y-134310000I-1040961J1080000D01*
G01*
X161772500Y-134465516D02*
G75*
G02*
X158541063Y-134310000I-1560000J1235516D01*
G01*
%TO.C,C9*%
X194647500Y-123868748D02*
X194647500Y-124391252D01*
X196117500Y-123868748D02*
X196117500Y-124391252D01*
%TO.C,C30*%
X247631248Y-132427500D02*
X249053752Y-132427500D01*
X247631248Y-135147500D02*
X249053752Y-135147500D01*
%TO.C,R13*%
X255002936Y-105990000D02*
X255457064Y-105990000D01*
X255002936Y-107460000D02*
X255457064Y-107460000D01*
%TO.C,R18*%
X251915436Y-124052500D02*
X252369564Y-124052500D01*
X251915436Y-125522500D02*
X252369564Y-125522500D01*
%TO.C,L3*%
X255232500Y-138810000D02*
X255232500Y-132590000D01*
X261452500Y-132590000D02*
X261452500Y-138810000D01*
%TO.C,SW4*%
D12*
X159412500Y-100405241D02*
X171412500Y-100405241D01*
X171412500Y-112405241D01*
X159412500Y-112405241D01*
X159412500Y-100405241D01*
X168162500Y-106405241D02*
G75*
G02*
X162662500Y-106405241I-2750000J0D01*
G01*
X162662500Y-106405241D02*
G75*
G02*
X168162500Y-106405241I2750000J0D01*
G01*
X168962500Y-106405241D02*
G75*
G02*
X161862500Y-106405241I-3550000J0D01*
G01*
X161862500Y-106405241D02*
G75*
G02*
X168962500Y-106405241I3550000J0D01*
G01*
%TO.C,U1*%
D13*
X193482500Y-129000000D02*
X193932500Y-129000000D01*
X193482500Y-129450000D02*
X193482500Y-129000000D01*
X193482500Y-136220000D02*
X193482500Y-135770000D01*
X193932500Y-136220000D02*
X193482500Y-136220000D01*
X200252500Y-129000000D02*
X200702500Y-129000000D01*
X200702500Y-129000000D02*
X200702500Y-129450000D01*
X200702500Y-135770000D02*
X200702500Y-136220000D01*
X200702500Y-136220000D02*
X200252500Y-136220000D01*
X192982500Y-129810000D02*
X192652500Y-130050000D01*
X192652500Y-129570000D01*
X192982500Y-129810000D01*
G36*
X192982500Y-129810000D02*
G01*
X192652500Y-130050000D01*
X192652500Y-129570000D01*
X192982500Y-129810000D01*
G37*
%TO.C,C27*%
X264491252Y-113190000D02*
X263968748Y-113190000D01*
X264491252Y-114660000D02*
X263968748Y-114660000D01*
%TO.C,R1*%
X159017500Y-138662936D02*
X159017500Y-139117064D01*
X160487500Y-138662936D02*
X160487500Y-139117064D01*
%TO.C,C32*%
X242582500Y-141161252D02*
X242582500Y-139738748D01*
X245302500Y-141161252D02*
X245302500Y-139738748D01*
%TO.C,R3*%
X195917500Y-140437064D02*
X195917500Y-139982936D01*
X197387500Y-140437064D02*
X197387500Y-139982936D01*
%TD*%
M02*
